<svg width="25" height="26" fill="none" xmlns="http://www.w3.org/2000/svg"><g clip-path="url(#clip0)" fill="#fff"><path d="M14.1 17.58a3.1 3.1 0 01-1.6.42 3.1 3.1 0 01-1.6-.42l-7.27-4.45s-.65-.4-.65.5V18.08c0 2.35 4.26 4.87 9.52 4.87s9.52-2.52 9.52-4.87v-.31-4.39c0-.73-.46-.37-.46-.37l-7.46 4.57z"/><path d="M24.58 9.58c.56-.34.56-.9 0-1.24L13.51 2.8a2.13 2.13 0 00-2.02 0L.42 8.34c-.56.34-.56.9 0 1.24l11.07 6.79c.55.34 1.47.34 2.02 0M24.12 19.64v-7.5s0-.35-.2-.23c-.17.1-.58.32-.73.45-.17.15-.13.48-.13.48v6.8c0 .1-.08.14-.12.17a1.3 1.3 0 101.3 0c-.04-.03-.12-.07-.12-.17z"/></g><defs><clipPath id="clip0"><path fill="#fff" transform="translate(0 .25)" d="M0 0h25v25H0z"/></clipPath></defs></svg>