<svg width="25" height="25" fill="none" xmlns="http://www.w3.org/2000/svg"><g clip-path="url(#clip0)" fill="#fff"><path d="M9.043 22.745A3.783 3.783 0 0012.5 25c1.541 0 2.87-.928 3.457-2.255H9.043zM12.5 2.389c1.017 0 1.994.179 2.9.508v-.112A2.788 2.788 0 0012.615 0h-.23A2.788 2.788 0 009.6 2.785v.11a8.511 8.511 0 012.9-.506zM21.654 21.277H3.346c-.347 0-.664-.233-.736-.572a.712.712 0 01.392-.81c.073-.048.627-.435 1.182-1.607 1.019-2.153 1.233-5.185 1.233-7.35A7.091 7.091 0 0112.5 3.857a7.09 7.09 0 017.083 7.083c0 2.164.214 5.196 1.233 7.349.554 1.172 1.108 1.56 1.182 1.607.31.143.463.474.392.81-.072.339-.39.572-.736.572zm.352-1.377z"/></g><defs><clipPath id="clip0"><path fill="#fff" d="M0 0h25v25H0z"/></clipPath></defs></svg>