<svg width="25" height="25" fill="none" xmlns="http://www.w3.org/2000/svg"><g clip-path="url(#clip0)"><path d="M24.422 15.787l-2.638-2.068c.05-.4.088-.806.088-1.219 0-.412-.038-.819-.088-1.219l2.644-2.069a.623.623 0 00.15-.8l-2.5-4.33a.618.618 0 00-.762-.27L18.203 5.07a9.485 9.485 0 00-2.112-1.232L15.62.525A.643.643 0 0014.998 0h-5a.631.631 0 00-.619.525L8.91 3.837A9.25 9.25 0 006.797 5.07L3.684 3.812a.625.625 0 00-.762.27l-2.5 4.33a.626.626 0 00.15.8l2.637 2.07c-.05.4-.087.806-.087 1.218 0 .412.037.819.087 1.219L.572 15.788a.623.623 0 00-.15.8l2.5 4.33c.156.27.481.382.762.27l3.113-1.257c.644.494 1.35.913 2.112 1.232l.469 3.312c.05.294.306.525.619.525h5a.631.631 0 00.619-.525l.468-3.313a9.251 9.251 0 002.113-1.23l3.112 1.256c.281.106.607 0 .763-.27l2.5-4.33a.626.626 0 00-.15-.8zm-11.925 1.088A4.372 4.372 0 018.122 12.5a4.372 4.372 0 014.375-4.375 4.372 4.372 0 014.375 4.375 4.372 4.372 0 01-4.375 4.375z" fill="#fff"/></g><defs><clipPath id="clip0"><path fill="#fff" d="M0 0h25v25H0z"/></clipPath></defs></svg>