<svg width="91" height="36" fill="none" xmlns="http://www.w3.org/2000/svg"><path d="M13 16.67c.1-.3.52-.3.62 0l.9 2.78c.05.14.17.23.31.23h2.93c.31 0 .44.4.19.59l-2.37 1.72a.33.33 0 00-.12.36l.9 2.79c.1.3-.24.54-.5.36l-2.36-1.72a.33.33 0 00-.38 0l-2.37 1.72a.33.33 0 01-.5-.36l.9-2.79a.33.33 0 00-.11-.36l-2.37-1.72a.33.33 0 01.2-.6h2.92a.3.3 0 00.3-.22l.9-2.78z" fill="#fff"/><path d="M12.48 14.02l-1.25 3.6a.33.33 0 01-.31.22H5.99a.33.33 0 01-.2-.06l-4.87-3.6a.33.33 0 01.2-.6h11.05c.23 0 .38.23.31.44z" fill="#626DD4"/><path d="M17.18 27.92l-3.13-2.2a.33.33 0 00-.38 0l-4 2.85c-.06.04-.1.1-.12.16L7.69 34.5c-.1.3.25.54.5.36l9-6.4a.33.33 0 00-.01-.53zm2.5-.18l-1.7-4.82c-.05-.14 0-.3.13-.39l6.6-4.28c.28-.18.14-.61-.2-.6l-7.84.35a.33.33 0 01-.33-.23l-1.54-4.74a.33.33 0 010-.2L18.58.98c.1-.3.52-.3.62 0l3.97 12.38c.05.14.17.23.32.23h13.23c.32 0 .45.4.19.6l-10.67 7.7a.33.33 0 00-.12.36l4.06 12.56c.1.3-.25.55-.5.36l-9.89-7.28a.33.33 0 01-.11-.15z" fill="#6059D0"/><path d="M86.12 28.16c-.95 0-1.86-.15-2.73-.46a6.15 6.15 0 01-2.24-1.38l1.02-1.85a7.6 7.6 0 001.97 1.19c.64.25 1.26.38 1.88.38.55 0 1-.1 1.32-.3.34-.2.51-.49.51-.89s-.2-.68-.62-.82c-.41-.16-.99-.35-1.73-.58a14.9 14.9 0 01-2.07-.78c-.55-.27-.97-.6-1.26-.98-.27-.38-.4-.88-.4-1.48 0-1.1.41-1.96 1.24-2.62a5.16 5.16 0 013.28-.97c.8 0 1.55.13 2.26.38a5.3 5.3 0 011.95 1.19l-1.16 1.8a5.24 5.24 0 00-3.18-1.27c-.45 0-.86.08-1.21.25-.34.17-.51.47-.51.9 0 .4.16.67.49.84.34.17.85.36 1.53.56.89.27 1.63.53 2.24.78.63.26 1.1.58 1.41.98.33.4.5.93.5 1.61 0 1.1-.41 1.97-1.22 2.6-.81.61-1.9.92-3.27.92zm-7.95-8.1c.68-.34 1.46-.5 2.32-.5v-2.6a4.65 4.65 0 00-.57-.02 3.8 3.8 0 00-1.96.72 4.84 4.84 0 00-1.5 1.8V17.1h-2.62v2.49c.46-.07 1.43 0 1.6.8.2.98-.4 1.91-1.6 2.04v5.78h2.86v-6.73a3 3 0 011.47-1.42zm-24.42-1.03v6.39l2.86-.96v-5.43h2.35v-2.19h-2.35v-3.6h-2.86v3.6h-1.47v2.19h1.47zm4.63 8.87a12.3 12.3 0 001.43-.5l-.57-2.26-5.36 1.2c0 .13.07.33.26.67.27.4.62.69 1.07.87.44.18.92.28 1.45.28.6 0 1.17-.09 1.72-.26zm-9.55-11.56c.42.23.69.41.81.55l1.3-2.38a11.3 11.3 0 00-2.34-1.16 8.39 8.39 0 00-2.95-.51c-1.02 0-1.95.18-2.8.55a4.5 4.5 0 00-2 1.6 4.41 4.41 0 00-.72 2.58c0 .78.15 1.42.47 1.93.3.5.78.92 1.4 1.26.64.32 1.45.62 2.42.89.78.22 1.46.43 2.04.61.6.19 1.06.41 1.4.68.32.27.48.62.48 1.06 0 1.04-.8 1.55-2.43 1.55a6.8 6.8 0 01-1.69-.21 10.55 10.55 0 01-2.73-1.13 4.58 4.58 0 01-.68-.5l-1.3 2.52c.87.61 1.85 1.1 2.96 1.44.5.13 1.56.38 1.95.32l6.33-1.72a3.9 3.9 0 00.73-2.56c0-.92-.2-1.66-.6-2.21a3.98 3.98 0 00-1.68-1.36c-.73-.34-1.6-.64-2.59-.9-.76-.19-1.4-.37-1.92-.54a3.1 3.1 0 01-1.15-.62 1.28 1.28 0 01-.38-.98c0-1.13.8-1.7 2.4-1.7a7.38 7.38 0 013.26.93zm-2.96 11.84c1 0 1.92-.14 2.77-.44.44-.15.83-.35 1.18-.6l-5.06.98 1.1.06zm15.39-5.37c.41-.55.98-.98 1.7-1.27.73-.3 1.57-.45 2.5-.45.48 0 .95.04 1.44.13.34.02.66.08 1.03.09l.06-.02.16-.35c0-.7-.2-1.25-.64-1.63-.4-.38-1.03-.57-1.85-.57-.61 0-1.2.1-1.75.31-.56.22-1.14.53-1.75.94l-.92-1.87a8.3 8.3 0 014.72-1.44c1.59 0 2.83.4 3.7 1.19.92.73 1.05 1.18 1.25 2.58l-2.92.84v.02h-.06l-6.87 1.98.2-.48zm9.9 2.65c-.1-.12-.15-.34-.15-.65L71 23.03l-2.94.6.1.67c0 .3-.17.63-.53.97a3.37 3.37 0 01-2.26.85c-.64 0-1.13-.17-1.47-.5a1.58 1.58 0 01-.52-1.15l-2.7.48c0 .66.16 1.02.49 1.55a3.73 3.73 0 003.38 1.7c.76 0 1.5-.16 2.2-.49a4.98 4.98 0 001.84-1.46l.06.57c.06.37.24.68.54.94.3.25.73.38 1.3.38.14 0 .31-.02.51-.04.22-.02.45-.05.7-.11v-2.31c-.25-.03-.43-.1-.53-.22z" fill="#fff"/></svg>
