<svg width="25" height="24" fill="none" xmlns="http://www.w3.org/2000/svg" viewBox="0 0 26 25"><path d="M8.7 11.32c.06-.2.35-.2.41 0l.61 1.88c.03.1.12.16.21.16h1.97c.22 0 .3.27.14.4l-1.6 1.16a.22.22 0 00-.08.25l.6 1.89c.07.2-.16.37-.33.24l-1.6-1.16a.22.22 0 00-.26 0l-1.6 1.16a.22.22 0 01-.33-.24l.6-1.89c.04-.1 0-.19-.07-.25l-1.6-1.16a.22.22 0 01.13-.4h1.97c.1 0 .18-.07.21-.16l.61-1.88zM8.34 9.52l-.84 2.44a.22.22 0 01-.21.15H3.96a.22.22 0 01-.13-.04L.53 9.62a.22.22 0 01.14-.4h7.46c.16 0 .26.15.21.3zM11.52 18.95l-2.12-1.5a.22.22 0 00-.25 0l-2.7 1.94a.22.22 0 00-.09.11l-1.25 3.9c-.06.2.17.38.34.25l6.07-4.34a.22.22 0 000-.36z" fill="#FFFFFF"/><path d="M13.2 18.83l-1.14-3.28c-.04-.1 0-.2.09-.26l4.45-2.9c.19-.12.1-.42-.13-.4l-5.3.23c-.1 0-.2-.06-.22-.16L9.9 8.85a.22.22 0 010-.14L12.46.67c.06-.21.35-.21.42 0l2.68 8.4c.03.09.12.15.21.15h8.94c.21 0 .3.28.13.4l-7.2 5.23a.22.22 0 00-.09.25l2.74 8.52c.07.2-.17.38-.34.25l-6.67-4.94a.22.22 0 01-.08-.1z" fill="#FFFFFF"/></svg>