<svg width="199" height="61" viewBox="0 0 199 61" fill="none" xmlns="http://www.w3.org/2000/svg">
<path d="M181.343 59.9428C177.636 59.9428 174.094 59.334 170.718 58.1165C167.342 56.899 164.437 55.1004 162.001 52.7207L165.986 45.4986C168.587 47.6016 171.133 49.1511 173.623 50.1473C176.114 51.1434 178.549 51.6415 180.928 51.6415C183.087 51.6415 184.802 51.2541 186.075 50.4793C187.403 49.7045 188.067 48.5424 188.067 46.9928C188.067 45.3879 187.265 44.3087 185.66 43.7553C184.055 43.1465 181.814 42.3994 178.936 41.5139C175.726 40.5178 173.042 39.494 170.884 38.4425C168.725 37.391 167.093 36.1181 165.986 34.6239C164.935 33.1297 164.409 31.1927 164.409 28.813C164.409 24.5517 166.014 21.1481 169.224 18.6024C172.433 16.0567 176.695 14.7838 182.008 14.7838C185.107 14.7838 188.04 15.2819 190.807 16.278C193.574 17.2189 196.092 18.7684 198.361 20.9268L193.878 27.9829C189.617 24.6623 185.494 23.0021 181.509 23.0021C179.739 23.0021 178.161 23.3341 176.778 23.9982C175.45 24.6623 174.785 25.8245 174.785 27.4848C174.785 29.0343 175.422 30.1412 176.695 30.8053C178.023 31.4694 180.015 32.1888 182.672 32.9636C186.103 34.0151 189.008 35.0389 191.388 36.0351C193.823 37.0313 195.649 38.3041 196.867 39.8537C198.14 41.4033 198.776 43.5063 198.776 46.1627C198.776 50.4793 197.199 53.8552 194.044 56.2902C190.89 58.7253 186.656 59.9428 181.343 59.9428Z" fill="white"/>
<path d="M150.404 28.25C153.061 26.9218 156.077 26.2577 159.453 26.2577V16.1301C159.121 16.0748 158.374 16.0471 157.211 16.0471C154.555 16.2131 152.009 17.154 149.574 18.8696C147.195 20.5852 145.258 22.9372 143.763 25.9256V16.6282H133.553V22.0655V24.7842V26.1412V26.1436V26.4C135.364 26.1412 139.143 26.4 139.764 29.5059C140.541 33.3883 138.212 37.0118 133.553 37.5294V38.3776V60.1269H144.676V33.8119C145.839 31.3768 147.748 29.5229 150.404 28.25Z" fill="white"/>
<path d="M55.4222 24.2155V49.2023L66.5459 45.4668V24.2155H75.6773V15.6652H66.5459V1.55298H55.4222V15.6652H49.6943V24.2155H55.4222Z" fill="white"/>
<path d="M73.4361 58.9148C75.6498 58.2507 77.5037 57.5866 78.9979 56.9225L76.7566 48.1232L55.9062 52.7999C55.9062 53.3176 56.1651 54.094 56.9165 55.4283C57.968 56.9779 59.3516 58.1124 61.0672 58.8318C62.7828 59.5513 64.6644 59.911 66.712 59.911C69.0364 59.911 71.2777 59.5789 73.4361 58.9148Z" fill="white"/>
<path d="M36.2766 13.6971C37.8815 14.5826 38.933 15.302 39.4311 15.8554L44.4949 6.55801C41.9491 4.84241 38.9053 3.32051 35.3635 1.99231C31.8216 0.664102 28.003 0 23.9077 0C19.9231 0 16.2982 0.719445 13.033 2.15834C9.76784 3.54188 7.16677 5.6172 5.22981 8.3843C3.34818 11.096 2.40737 14.4719 2.40737 18.5119C2.40737 21.5557 3.01613 24.0737 4.23365 26.066C5.45118 28.003 7.27746 29.6356 9.7125 30.9638C12.2029 32.2366 15.3297 33.3988 19.0929 34.4503C22.1368 35.3358 24.7932 36.1382 27.0622 36.8577C29.3865 37.5771 31.1851 38.4626 32.458 39.5141C33.7309 40.5656 34.3673 41.9491 34.3673 43.6647C34.3673 47.7047 31.2128 49.7247 24.9038 49.7247C22.6902 49.7247 20.5042 49.448 18.3458 48.8946C16.1875 48.3411 14.1952 47.677 12.3689 46.9022C10.5426 46.0721 8.99306 45.2697 7.72019 44.4949C6.44733 43.6647 5.56186 43.0006 5.06378 42.5026L0 52.3811C3.37585 54.7608 7.22212 56.6424 11.5388 58.026C13.4329 58.5271 17.5956 59.4776 19.0929 59.2705L43.7411 52.5411C45.7888 49.94 46.5702 46.7085 46.5702 42.5026C46.5702 38.9053 45.7954 36.0276 44.2458 33.8692C42.7516 31.6556 40.5656 29.8846 37.6878 28.5564C34.8654 27.2282 31.5172 26.066 27.6433 25.0699C24.6548 24.2951 22.1644 23.5756 20.1721 22.9115C18.1798 22.2474 16.6856 21.445 15.6894 20.5042C14.6933 19.5634 14.1952 18.2905 14.1952 16.6856C14.1952 12.2582 17.322 10.0446 23.5756 10.0446C25.9553 10.0446 28.252 10.4319 30.4657 11.2067C32.7347 11.9262 34.6717 12.7563 36.2766 13.6971Z" fill="white"/>
<path d="M24.7381 60.0185C28.612 60.0185 32.2092 59.4374 35.5297 58.2752C37.2341 57.6787 38.7634 56.9 40.1178 55.939L20.4473 59.7883L24.7381 60.0185Z" fill="white"/>
<path d="M84.6303 39.0024C86.2352 36.8441 88.4489 35.1838 91.2713 34.0217C94.0937 32.8595 97.3312 32.2784 100.984 32.2784C102.81 32.2784 104.664 32.4444 106.546 32.7765C107.873 32.8667 109.118 33.1086 110.588 33.1281L110.807 33.0646L111.443 31.6973C111.443 28.9302 110.613 26.7995 108.953 25.3053C107.348 23.8111 104.941 23.064 101.731 23.064C99.3512 23.064 97.0822 23.479 94.9239 24.3092C92.7655 25.1393 90.4965 26.3568 88.1168 27.9617L84.5473 20.6566C87.425 18.775 90.3582 17.3638 93.3466 16.4229C96.3904 15.4821 99.5726 15.0117 102.893 15.0117C109.091 15.0117 113.906 16.5613 117.337 19.6604C120.871 22.5176 121.388 24.3092 122.165 29.7646L110.807 33.0646L110.776 33.1293C110.713 33.1293 110.651 33.1289 110.588 33.1281L83.8589 40.894L84.6303 39.0024Z" fill="white"/>
<path d="M123.148 49.379C122.761 48.8809 122.567 48.0231 122.567 46.8056L122.484 39.8588L111.036 42.1882L111.444 44.8133C111.444 46.0308 110.752 47.3037 109.368 48.6319C108.317 49.6281 106.989 50.4305 105.384 51.0393C103.834 51.648 102.229 51.9524 100.569 51.9524C98.0786 51.9524 96.1693 51.2883 94.8411 49.9601C93.5129 48.6319 92.8488 47.1377 92.8488 45.4774L82.3062 47.3646C82.3062 49.9657 82.9426 51.3437 84.2154 53.4466C85.5437 55.4943 87.3423 57.1269 89.6113 58.3444C91.8803 59.5066 94.4814 60.0877 97.4145 60.0877C100.348 60.0877 103.198 59.4512 105.965 58.1784C108.787 56.8502 111.167 54.9409 113.104 52.4505L113.353 54.6918C113.574 56.1307 114.266 57.3482 115.428 58.3444C116.59 59.3405 118.278 59.8386 120.492 59.8386C121.045 59.8386 121.71 59.7833 122.484 59.6726C123.314 59.6173 124.228 59.4789 125.224 59.2575V50.2091C124.228 50.0985 123.536 49.8218 123.148 49.379Z" fill="white"/>
</svg>
