<svg width="25" height="25" fill="none" xmlns="http://www.w3.org/2000/svg"><path d="M22.5 0h-15A2.507 2.507 0 005 2.5v18.75c0 .75-.625 1.25-1.25 1.25S2.5 22 2.5 21.25V7.5c0-.625-.625-1.25-1.25-1.25S0 6.875 0 7.5v15C0 23.875 1.125 25 2.5 25h20c1.375 0 2.5-1.125 2.5-2.5v-20C25 1.125 23.875 0 22.5 0zm-6.25 12.5h-7.5c-.625 0-1.25-.5-1.25-1.25 0-.625.625-1.25 1.25-1.25h7.5c.625 0 1.25.625 1.25 1.25 0 .75-.625 1.25-1.25 1.25zm5-5H8.75C8.125 7.5 7.5 7 7.5 6.25 7.5 5.625 8.125 5 8.75 5h12.5c.625 0 1.25.625 1.25 1.25 0 .75-.625 1.25-1.25 1.25z" fill="#fff"/></svg>