<svg xmlns="http://www.w3.org/2000/svg" viewBox="0 0 278 52.7">
    <path d="M5.4 48.9V3.6H20c5.5 0 9.1.3 10.8.7 2.6.7 4.8 2.2 6.5 4.5a14 14 0 012.6 8.8c0 2.7-.5 5-1.5 7-1 1.9-2.3 3.3-3.8 4.4-1.6 1.1-3.1 1.8-4.7 2.2-2.2.4-5.4.6-9.5.6h-6v17H5.4zm9.1-37.6v12.8h5c3.6 0 6-.2 7.2-.7a6 6 0 004-5.7c0-1.7-.6-3-1.5-4-1-1.2-2.2-1.8-3.7-2-1-.3-3.3-.4-6.6-.4h-4.4zM83.7 48.9h-10l-4-10.3h-18L48 48.9h-9.7L55.9 3.6h9.6L83.7 49zm-16.9-18l-6.2-16.7L54.5 31h12.3zM94.6 48.9v-19L78.1 3.5h10.7l10.6 18 10.4-18h10.6L103.7 30v19h-9z"/><g fill="#64B3DF">
    <path d="M124.8 48.9V3.6h33.6v7.7H134v10h22.7V29H134v12.4h25.2v7.6h-34.4zM167 48.9V3.6h33.5v7.7h-24.4v10h22.7V29h-22.7v12.4h25.3v7.6H167zM209.1 48.9V3.6h19.3c4.8 0 8.3.5 10.5 1.3 2.2.8 4 2.2 5.3 4.3 1.3 2 2 4.5 2 7.1 0 3.4-1 6.2-3 8.4s-5 3.6-9 4.2c2 1.2 3.6 2.4 4.9 3.8 1.3 1.4 3 3.8 5.2 7.4l5.5 8.8h-11l-6.5-9.9a64 64 0 00-4.8-6.6c-.9-1-1.8-1.6-2.8-1.9s-2.5-.5-4.6-.5h-1.8v18.9H209zm9.2-26.1h6.7a35 35 0 008.2-.6c1.1-.4 2-1 2.6-1.9.6-.9 1-2 1-3.4 0-1.5-.5-2.7-1.3-3.7s-2-1.5-3.4-1.7c-.8-.2-3-.2-6.7-.2h-7.1v11.5z"/> </g>
    <path d="M275.7 36.2c0 3.5-1.3 6.5-3.7 9-2.5 2.4-5.5 3.7-9 3.7s-6.4-1.3-8.8-3.7a12.2 12.2 0 01-3.7-9c0-3.4 1.2-6.4 3.7-8.8a12 12 0 018.9-3.7c3.4 0 6.4 1.2 8.9 3.7a12 12 0 013.7 8.8zM263 25.4c-3 0-5.6 1-7.7 3.2a10.5 10.5 0 00-3.1 7.7c0 3 1 5.6 3.1 7.7 2.1 2.1 4.7 3.2 7.7 3.2s5.5-1.1 7.6-3.2c2.1-2.1 3.2-4.7 3.2-7.7s-1-5.6-3.2-7.7a10.4 10.4 0 00-7.6-3.2zm-.3 3.9c1.7 0 3 .2 3.8.5 1.4.6 2.1 1.8 2.1 3.5 0 1.2-.4 2.1-1.3 2.7-.5.3-1.2.6-2 .7 1 .2 1.9.6 2.4 1.4.5.7.7 1.4.7 2v1.1a15.6 15.6 0 00.2 1.7v.2h-2.2V43l-.1-.2v-1.5c0-1.6-.5-2.7-1.4-3.2-.5-.3-1.4-.4-2.7-.4h-1.9V43H258V29.3h4.8zm3.6 4.2c0-1-.3-1.7-1-2-.6-.4-1.5-.5-2.9-.5h-2v5h2.1c1 0 1.8-.1 2.3-.3 1-.4 1.5-1.1 1.5-2.2z"/>
    <text transform="translate(276 48.9)" font-family="'Helvetica'" font-size="38.6146"></text></svg>