<svg width="301" height="132" viewBox="0 0 301 132" fill="none" xmlns="http://www.w3.org/2000/svg">
<path d="M0.714189 52V2.1523H21.9872C24.3743 2.1523 26.5507 2.64376 28.5166 3.62667C30.5292 4.56278 32.261 5.84993 33.712 7.48812C35.1629 9.0795 36.2862 10.8815 37.0819 12.8941C37.8776 14.9068 38.2755 16.9428 38.2755 19.0022C38.2755 21.9042 37.5968 24.6423 36.2394 27.2166C34.9289 29.7909 33.0801 31.8971 30.693 33.5353C28.3059 35.1267 25.521 35.9224 22.3383 35.9224H12.2283V52H0.714189ZM12.2283 25.8826H21.6362C22.9935 25.8826 24.1637 25.2975 25.1466 24.1274C26.1295 22.9573 26.6209 21.2489 26.6209 19.0022C26.6209 16.7088 26.0359 15.0238 24.8657 13.9472C23.7424 12.8239 22.5255 12.2623 21.2149 12.2623H12.2283V25.8826ZM66.9236 24.7593C64.2089 24.8061 61.7516 25.2507 59.5518 26.0932C57.3519 26.9357 55.7606 28.1995 54.7777 29.8845V52H43.5444V15.1408H53.8649V22.5828C55.1287 20.1022 56.7669 18.1597 58.7795 16.7556C60.7921 15.3514 62.8984 14.6259 65.0982 14.5791C66.0343 14.5791 66.6428 14.6025 66.9236 14.6493V24.7593ZM89.003 52.7021C84.8373 52.7021 81.2801 51.8362 78.3313 50.1044C75.3826 48.3726 73.1125 46.0791 71.5212 43.224C69.9766 40.3689 69.2043 37.2797 69.2043 33.9565C69.2043 30.3993 69.9766 27.1464 71.5212 24.1976C73.0657 21.2489 75.3124 18.8852 78.2611 17.1066C81.2099 15.328 84.7905 14.4387 89.003 14.4387C93.1686 14.4387 96.7258 15.328 99.6746 17.1066C102.623 18.8852 104.847 21.2255 106.344 24.1274C107.889 27.0293 108.661 30.1419 108.661 33.4651C108.661 34.8224 108.568 36.016 108.38 37.0457H81.1397C81.3269 39.5264 82.2162 41.422 83.8076 42.7325C85.4458 43.9963 87.2946 44.6282 89.354 44.6282C90.9922 44.6282 92.5602 44.2303 94.0579 43.4346C95.5557 42.6389 96.5854 41.5624 97.1471 40.205L106.695 42.873C105.244 45.7749 102.974 48.1386 99.8852 49.964C96.8429 51.7894 93.2154 52.7021 89.003 52.7021ZM80.8588 30.1653H96.8663C96.6322 27.825 95.7663 25.9762 94.2686 24.6189C92.8176 23.2147 91.0156 22.5126 88.8625 22.5126C86.7095 22.5126 84.8841 23.2147 83.3863 24.6189C81.9354 26.023 81.0929 27.8718 80.8588 30.1653ZM172.025 52H160.792V31.2886C160.792 28.9016 160.347 27.1464 159.458 26.023C158.568 24.8997 157.422 24.338 156.018 24.338C154.52 24.338 153.045 24.9465 151.595 26.1634C150.144 27.3804 149.114 28.9484 148.505 30.8674V52H137.272V31.2886C137.272 28.8548 136.827 27.0996 135.938 26.023C135.049 24.8997 133.902 24.338 132.498 24.338C131 24.338 129.526 24.9465 128.075 26.1634C126.671 27.3804 125.641 28.9484 124.986 30.8674V52H113.752V15.1408H123.862V21.3191C125.22 19.1192 127.069 17.4342 129.409 16.2641C131.749 15.0472 134.44 14.4387 137.483 14.4387C140.525 14.4387 142.865 15.1642 144.503 16.6152C146.142 18.0193 147.195 19.6809 147.663 21.5999C149.067 19.3533 150.916 17.5981 153.209 16.3343C155.55 15.0706 158.171 14.4387 161.073 14.4387C163.413 14.4387 165.285 14.8834 166.689 15.7727C168.14 16.6152 169.24 17.7385 169.989 19.1426C170.785 20.5468 171.323 22.068 171.604 23.7062C171.885 25.2975 172.025 26.8655 172.025 28.4101V52ZM179.367 10.9283V0.748146H190.6V10.9283H179.367ZM179.367 52V15.1408H190.6V52H179.367ZM197.939 38.7307V15.1408H209.172V36.2734C209.172 40.9071 210.881 43.224 214.297 43.224C215.795 43.224 217.246 42.8261 218.65 42.0305C220.054 41.188 221.295 39.8072 222.371 37.8882V15.1408H233.605V39.503C233.605 40.6263 233.768 41.422 234.096 41.89C234.47 42.3581 235.102 42.6155 235.992 42.6623V52C234.915 52.1872 234.002 52.3276 233.254 52.4212C232.505 52.5149 231.826 52.5617 231.217 52.5617C227.192 52.5617 224.899 50.9937 224.337 47.8577L224.126 45.6111C222.441 48.0449 220.335 49.8469 217.808 51.0171C215.327 52.1404 212.542 52.7021 209.453 52.7021C205.709 52.7021 202.853 51.5085 200.888 49.1215C198.922 46.7344 197.939 43.2708 197.939 38.7307ZM300.58 52H289.346V31.2886C289.346 28.9016 288.902 27.1464 288.013 26.023C287.123 24.8997 285.976 24.338 284.572 24.338C283.075 24.338 281.6 24.9465 280.149 26.1634C278.698 27.3804 277.669 28.9484 277.06 30.8674V52H265.827V31.2886C265.827 28.8548 265.382 27.0996 264.493 26.023C263.604 24.8997 262.457 24.338 261.053 24.338C259.555 24.338 258.08 24.9465 256.63 26.1634C255.225 27.3804 254.196 28.9484 253.54 30.8674V52H242.307V15.1408H252.417V21.3191C253.774 19.1192 255.623 17.4342 257.963 16.2641C260.304 15.0472 262.995 14.4387 266.037 14.4387C269.08 14.4387 271.42 15.1642 273.058 16.6152C274.696 18.0193 275.75 19.6809 276.218 21.5999C277.622 19.3533 279.471 17.5981 281.764 16.3343C284.104 15.0706 286.725 14.4387 289.627 14.4387C291.968 14.4387 293.84 14.8834 295.244 15.7727C296.695 16.6152 297.795 17.7385 298.544 19.1426C299.339 20.5468 299.878 22.068 300.158 23.7062C300.439 25.2975 300.58 26.8655 300.58 28.4101V52ZM97.3684 95.7556C97.228 95.5683 96.7365 95.2173 95.894 94.7024C95.0515 94.1876 93.9984 93.6493 92.7347 93.0877C91.4709 92.4792 90.0902 91.9877 88.5924 91.6133C87.0946 91.192 85.5969 90.9814 84.0991 90.9814C79.9802 90.9814 77.9208 92.3622 77.9208 95.1237C77.9208 96.8087 78.8101 98.0022 80.5887 98.7043C82.4141 99.4064 85.0118 100.249 88.3818 101.232C91.5645 102.121 94.3026 103.151 96.5961 104.321C98.9364 105.444 100.738 106.965 102.002 108.884C103.266 110.757 103.898 113.237 103.898 116.327C103.898 119.135 103.383 121.522 102.353 123.488C101.323 125.407 99.9193 126.975 98.1407 128.192C96.3621 129.362 94.3495 130.228 92.1028 130.789C89.9029 131.304 87.6095 131.562 85.2224 131.562C81.5248 131.562 77.7804 131.023 73.9891 129.947C70.1979 128.824 66.8513 127.302 63.9494 125.383L69.0044 115.344C69.1916 115.578 69.8001 116.022 70.8298 116.678C71.8595 117.286 73.1466 117.941 74.6912 118.643C76.2358 119.345 77.9208 119.954 79.7462 120.469C81.6184 120.937 83.514 121.171 85.433 121.171C89.5051 121.171 91.5411 119.931 91.5411 117.45C91.5411 116.186 91.0029 115.203 89.9263 114.501C88.8966 113.752 87.4691 113.12 85.6437 112.605C83.8183 112.044 81.7588 111.412 79.4654 110.71C74.8784 109.306 71.485 107.597 69.2852 105.585C67.1321 103.572 66.0556 100.694 66.0556 96.9491C66.0556 93.4387 66.8747 90.49 68.5129 88.1029C70.1979 85.669 72.4446 83.8436 75.2529 82.6267C78.0612 81.3629 81.1269 80.731 84.4501 80.731C87.9605 80.731 91.2837 81.3395 94.4197 82.5565C97.5556 83.7266 100.224 84.9435 102.423 86.2073L97.3684 95.7556ZM132.652 129.034C131.108 129.689 129.329 130.298 127.317 130.86C125.351 131.421 123.361 131.702 121.349 131.702C119.477 131.702 117.768 131.398 116.224 130.789C114.679 130.134 113.439 129.081 112.503 127.63C111.567 126.179 111.098 124.26 111.098 121.873V102.636H106.395V94.1408H111.098V82.416H122.332V94.1408H129.844V102.636H122.332V118.012C122.332 119.228 122.636 120.118 123.244 120.679C123.853 121.194 124.625 121.452 125.561 121.452C126.404 121.452 127.27 121.311 128.159 121.03C129.048 120.75 129.821 120.445 130.476 120.118L132.652 129.034ZM134.712 119.977C134.712 117.543 135.391 115.414 136.749 113.588C138.106 111.763 139.978 110.335 142.365 109.306C144.752 108.229 147.49 107.691 150.579 107.691C152.077 107.691 153.552 107.831 155.003 108.112C156.454 108.346 157.717 108.697 158.794 109.165V107.551C158.794 103.385 156.337 101.302 151.422 101.302C149.363 101.302 147.42 101.653 145.595 102.355C143.816 103.057 141.921 104.064 139.908 105.374L136.538 98.2128C141.406 95.0301 146.741 93.4387 152.545 93.4387C158.068 93.4387 162.351 94.7726 165.393 97.4406C168.483 100.062 170.027 103.876 170.027 108.884V118.503C170.027 119.626 170.191 120.422 170.519 120.89C170.893 121.358 171.525 121.616 172.414 121.662V131C171.431 131.187 170.542 131.328 169.746 131.421C168.951 131.515 168.249 131.562 167.64 131.562C165.534 131.562 163.919 131.14 162.796 130.298C161.719 129.455 161.04 128.309 160.76 126.858L160.549 125.243C158.911 127.349 156.945 128.964 154.652 130.087C152.358 131.164 149.994 131.702 147.561 131.702C145.127 131.702 142.927 131.187 140.961 130.157C139.042 129.128 137.521 127.747 136.397 126.015C135.274 124.237 134.712 122.224 134.712 119.977ZM157.039 121.381C158.209 120.445 158.794 119.486 158.794 118.503V115.203C157.811 114.829 156.734 114.548 155.564 114.361C154.441 114.127 153.411 114.01 152.475 114.01C150.369 114.01 148.637 114.478 147.28 115.414C145.969 116.35 145.314 117.543 145.314 118.994C145.314 120.258 145.805 121.358 146.788 122.294C147.818 123.183 149.175 123.628 150.86 123.628C151.984 123.628 153.107 123.418 154.23 122.996C155.354 122.575 156.29 122.037 157.039 121.381ZM201.546 103.759C198.831 103.806 196.374 104.251 194.174 105.093C191.974 105.936 190.383 107.199 189.4 108.884V131H178.167V94.1408H188.487V101.583C189.751 99.1021 191.389 97.1597 193.402 95.7556C195.415 94.3514 197.521 93.6259 199.721 93.5791C200.657 93.5791 201.265 93.6025 201.546 93.6493V103.759ZM220.389 131.702C217.207 131.702 214.117 131.187 211.122 130.157C208.173 129.081 205.669 127.56 203.61 125.594L207.471 118.503C212.011 121.826 216.2 123.488 220.038 123.488C221.489 123.488 222.613 123.254 223.408 122.786C224.204 122.318 224.602 121.592 224.602 120.609C224.602 119.579 224.064 118.854 222.987 118.433C221.91 117.965 220.319 117.426 218.213 116.818C215.405 115.882 213.064 114.969 211.192 114.08C209.32 113.191 207.916 112.114 206.98 110.85C206.043 109.587 205.575 107.902 205.575 105.795C205.575 102.098 206.956 99.1255 209.718 96.8789C212.479 94.5854 216.224 93.4387 220.951 93.4387C223.478 93.4387 225.936 93.8365 228.323 94.6322C230.757 95.4279 233.027 96.7619 235.133 98.6341L230.78 105.655C228.674 104.204 226.802 103.151 225.163 102.496C223.525 101.84 221.934 101.513 220.389 101.513C219.172 101.513 218.143 101.747 217.3 102.215C216.458 102.636 216.036 103.385 216.036 104.461C216.036 105.491 216.504 106.263 217.441 106.778C218.377 107.246 219.828 107.761 221.793 108.323C224.789 109.212 227.293 110.125 229.306 111.061C231.365 111.95 232.886 113.074 233.869 114.431C234.899 115.741 235.414 117.497 235.414 119.696C235.414 123.441 234.056 126.39 231.342 128.543C228.627 130.649 224.976 131.702 220.389 131.702Z" fill="white"/>
</svg>
