<svg width="25" height="27" fill="none" xmlns="http://www.w3.org/2000/svg"><g clip-path="url(#clip0)"><path d="M12.5 0C5.6 0 0 5.89 0 13.13c0 7.23 5.6 13.12 12.5 13.12S25 20.36 25 13.12C25 5.9 19.4 0 12.5 0zm0 20.78c-.58 0-1.04-.49-1.04-1.1 0-.6.46-1.09 1.04-1.09.58 0 1.04.5 1.04 1.1 0 .6-.46 1.1-1.04 1.1zm1.65-6.95c-.37.18-.6.57-.6 1v.48c0 .6-.47 1.1-1.05 1.1-.58 0-1.04-.5-1.04-1.1v-.49a3.3 3.3 0 011.82-2.98c1.06-.51 1.82-1.87 1.82-2.54 0-1.51-1.16-2.74-2.6-2.74A2.67 2.67 0 009.9 9.3c0 .6-.47 1.1-1.05 1.1-.57 0-1.04-.5-1.04-1.1 0-2.72 2.1-4.93 4.69-4.93 2.58 0 4.69 2.21 4.69 4.93 0 1.47-1.22 3.65-3.04 4.53z" fill="#fff"/></g><defs><clipPath id="clip0"><path fill="#fff" d="M0 0h25v26.25H0z"/></clipPath></defs></svg>