<svg width="100" height="93" viewBox="0 0 100 93" fill="none" xmlns="http://www.w3.org/2000/svg">
<path d="M19.3563 38.091C16.3491 37.5861 11.3272 37.4023 6.91244 40.5644L10.72 42.2786C10.72 42.2786 5.28741 43.7561 1.66584 46.5706C5.64438 48.883 11.2146 49.6068 11.2146 49.6068L7.67197 51.8172C12.4716 54.3573 17.4233 53.5003 20.3353 52.5959L29.3646 45.7912L19.3563 38.091Z" fill="#8083E6"/>
<path d="M64.9785 33.3249C85.08 34.128 94.8864 41.2257 97.9775 44.0031C98.3106 44.3005 98.5191 44.7038 98.5579 45.1261C98.5967 45.5484 98.4627 45.9559 98.1849 46.2606C95.6087 49.1191 87.1426 56.4509 67.237 57.7704C67.237 57.7704 55.4334 58.5818 43.4773 53.3103L42.7858 45.8456L42.0943 38.3808C53.0532 32.8154 64.9785 33.3249 64.9785 33.3249Z" fill="white"/>
<path d="M36.7434 41.108L37.7471 50.9188L41.6862 50.2636L40.7953 41.6617L36.7434 41.108Z" fill="white"/>
<path d="M44.2503 39.8731L45.354 51.7676L40.5913 51.8286L39.4875 39.9341L44.2503 39.8731Z" fill="#5430BF"/>
<path d="M61.2817 54.937L52.3263 62.581C51.746 63.0732 51.0587 63.4383 50.3063 63.6541C49.5539 63.8699 48.7521 63.932 47.9495 63.8365L31.756 61.8961C31.5694 61.8738 31.3871 61.8124 31.222 61.7163C31.0568 61.6201 30.9129 61.4915 30.8004 61.3397C30.6879 61.1878 30.6096 61.0164 30.5711 60.8376C30.5325 60.6588 30.5347 60.477 30.5773 60.3051V60.3051C30.6334 60.0817 30.7562 59.8836 30.931 59.7342C31.1058 59.5848 31.3254 59.4905 31.5636 59.4625C34.6996 59.0772 46.2567 57.2737 49.0654 51.0596L61.2817 54.937Z" fill="#3F0A9A"/>
<path d="M59.5303 36.0589L49.1627 28.6749C48.4927 28.1981 47.7392 27.8511 46.9484 27.6552C46.1575 27.4593 45.3458 27.4185 44.5628 27.5354L28.7687 29.8824C28.5876 29.9102 28.4181 29.9765 28.2721 30.0768C28.1261 30.1771 28.0071 30.3088 27.9236 30.4628C27.8401 30.6167 27.7941 30.7891 27.7888 30.9678C27.7835 31.1465 27.8191 31.3271 27.8929 31.497V31.497C27.9905 31.7181 28.1495 31.9126 28.3513 32.0573C28.5531 32.202 28.7892 32.291 29.0319 32.3138C32.2395 32.6171 44.0963 34.1233 48.0472 40.2465L59.5303 36.0589Z" fill="#3F0A9A"/>
<path d="M27.7333 45.1324L27.87 46.7178C27.8772 46.8042 27.9019 46.8898 27.9429 46.9695C27.9838 47.0492 28.04 47.1215 28.1084 47.1822C28.1768 47.2429 28.2559 47.2908 28.3412 47.3232C28.4266 47.3556 28.5164 47.3719 28.6056 47.371L57.2994 47.5775C57.4107 47.5788 57.5193 47.5586 57.619 47.518C57.7188 47.4774 57.8075 47.4174 57.8801 47.3413C57.9526 47.2652 58.0076 47.1746 58.0416 47.075C58.0756 46.9753 58.0881 46.8685 58.0783 46.7609L57.8476 44.3239C57.8381 44.2166 57.8065 44.1107 57.7546 44.0123C57.7028 43.9139 57.6318 43.825 57.5458 43.7509C57.4598 43.6769 57.3606 43.6191 57.2541 43.5811C57.1475 43.5431 57.0357 43.5255 56.9254 43.5295L28.3383 44.4696C28.1618 44.4758 27.9999 44.5484 27.887 44.6721C27.7741 44.7958 27.719 44.9609 27.7333 45.1324V45.1324Z" fill="#6663D7"/>
<path d="M65.2308 44.1813C65.633 40.7249 68.8942 38.4535 72.5147 39.108C76.1353 39.7626 78.7443 43.0952 78.3421 46.5516C77.9398 50.0081 74.6787 52.2795 71.0581 51.6249C67.4375 50.9704 64.8285 47.6378 65.2308 44.1813Z" fill="#3F0A9A"/>
<path d="M71.3887 41.1771C70.5472 41.1888 69.7472 41.4421 69.09 41.9051C68.4327 42.368 67.9477 43.0198 67.6962 43.7781C67.4447 44.5363 67.4381 45.367 67.677 46.1651C67.916 46.9632 68.3899 47.6929 69.0389 48.262C69.6878 48.8311 70.4826 49.214 71.3229 49.3624C72.1632 49.5107 73.0112 49.4178 73.7598 49.0955C74.5083 48.7732 75.1238 48.2358 75.5285 47.5513C75.9331 46.8669 76.1087 46.066 76.0332 45.2501C75.9829 44.7077 75.8229 44.172 75.5622 43.6737C75.3015 43.1753 74.9454 42.7241 74.514 42.3458C74.0826 41.9676 73.5846 41.6696 73.0483 41.4691C72.5121 41.2686 71.9481 41.1693 71.3887 41.1771V41.1771Z" fill="#7679EA"/>
</svg>
