<svg aria-hidden="true"
  style="position: absolute; width: 0; height: 0; overflow: hidden;"
  version="1.1"
  xmlns="http://www.w3.org/2000/svg"
  xmlns:xlink="http://www.w3.org/1999/xlink">
  <defs>
    <symbol id="chevron-down"
      viewBox="0 0 32 32">
      <path d="M15.171 22.348l-9.494-8.8c-0.458-0.424-0.458-1.112 0-1.537l1.107-1.026c0.457-0.424 1.198-0.425 1.656-0.002l7.56 6.974 7.56-6.974c0.458-0.423 1.199-0.422 1.656 0.002l1.107 1.026c0.458 0.424 0.458 1.113 0 1.537l-9.494 8.8c-0.458 0.424-1.2 0.424-1.658 0z"></path>
    </symbol>
    <symbol id="chevron-left"
      viewBox="0 0 32 32">
      <path d="M10.318 17.496l8.8 9.494c0.424 0.458 1.113 0.458 1.537 0l1.026-1.107c0.424-0.457 0.424-1.198 0.002-1.656l-6.974-7.56 6.974-7.56c0.423-0.458 0.422-1.199-0.002-1.656l-1.026-1.107c-0.424-0.458-1.113-0.458-1.537 0l-8.8 9.494c-0.424 0.458-0.424 1.2 0 1.658z"></path>
    </symbol>
    <symbol id="copy"
      viewBox="0 0 32 32">
      <path d="M25.664 0h-13.444c-1.953 0-3.542 1.589-3.542 3.542v0.435h-2.342c-1.953 0-3.542 1.589-3.542 3.542v20.941c0 1.953 1.589 3.542 3.542 3.542h13.444c1.953 0 3.541-1.589 3.541-3.542v-0.435h2.343c1.953 0 3.542-1.589 3.542-3.542v-20.941c0-1.953-1.589-3.542-3.541-3.542zM21.037 28.459c0 0.693-0.564 1.257-1.257 1.257h-13.444c-0.693 0-1.257-0.564-1.257-1.257v-20.941c0-0.693 0.564-1.257 1.257-1.257h13.444c0.693 0 1.257 0.564 1.257 1.257v20.941h0zM26.921 24.482c0 0.693-0.564 1.257-1.257 1.257h-2.342v-18.221c0-1.953-1.589-3.542-3.542-3.542h-8.817v-0.435c0-0.693 0.564-1.257 1.257-1.257h13.444c0.693 0 1.257 0.564 1.257 1.257v20.941z"></path>
    </symbol>
    <symbol id="user"
      viewBox="0 0 32 32">
      <path d="M16.667 16c3.156 0 5.714-2.387 5.714-5.333s-2.558-5.333-5.714-5.333-5.714 2.388-5.714 5.333c0 2.946 2.558 5.333 5.714 5.333zM20.667 17.333h-0.746c-0.991 0.425-2.094 0.667-3.254 0.667s-2.259-0.242-3.254-0.667h-0.746c-3.313 0-6 2.508-6 5.6v1.733c0 1.104 0.96 2 2.143 2h15.714c1.183 0 2.143-0.896 2.143-2v-1.733c0-3.092-2.687-5.6-6-5.6z"></path>
    </symbol>
    <symbol id="user-add"
      viewBox="0 0 32 32">
      <path d="M28.7 14.792h-2.533v-2.5c0-0.344-0.285-0.625-0.633-0.625h-1.267c-0.348 0-0.633 0.281-0.633 0.625v2.5h-2.533c-0.348 0-0.633 0.281-0.633 0.625v1.25c0 0.344 0.285 0.625 0.633 0.625h2.533v2.5c0 0.344 0.285 0.625 0.633 0.625h1.267c0.348 0 0.633-0.281 0.633-0.625v-2.5h2.533c0.348 0 0.633-0.281 0.633-0.625v-1.25c0-0.344-0.285-0.625-0.633-0.625zM12.867 16.667c2.799 0 5.067-2.238 5.067-5s-2.268-5-5.067-5c-2.799 0-5.067 2.238-5.067 5s2.268 5 5.067 5zM16.413 17.917h-0.661c-0.879 0.398-1.856 0.625-2.886 0.625s-2.003-0.227-2.886-0.625h-0.661c-2.937 0-5.32 2.352-5.32 5.25v1.625c0 1.035 0.851 1.875 1.9 1.875h13.933c1.049 0 1.9-0.84 1.9-1.875v-1.625c0-2.898-2.383-5.25-5.32-5.25z"></path>
    </symbol>
    <symbol id="eye"
      viewBox="0 0 28 28">
      <path d="M26 15c-1.484-2.297-3.516-4.266-5.953-5.516 0.625 1.062 0.953 2.281 0.953 3.516 0 3.859-3.141 7-7 7s-7-3.141-7-7c0-1.234 0.328-2.453 0.953-3.516-2.438 1.25-4.469 3.219-5.953 5.516 2.672 4.125 6.984 7 12 7s9.328-2.875 12-7zM14.75 9c0-0.406-0.344-0.75-0.75-0.75-2.609 0-4.75 2.141-4.75 4.75 0 0.406 0.344 0.75 0.75 0.75s0.75-0.344 0.75-0.75c0-1.781 1.469-3.25 3.25-3.25 0.406 0 0.75-0.344 0.75-0.75zM28 15c0 0.391-0.125 0.75-0.313 1.078-2.875 4.734-8.141 7.922-13.687 7.922s-10.813-3.203-13.687-7.922c-0.187-0.328-0.313-0.688-0.313-1.078s0.125-0.75 0.313-1.078c2.875-4.719 8.141-7.922 13.687-7.922s10.813 3.203 13.687 7.922c0.187 0.328 0.313 0.688 0.313 1.078z"></path>
    </symbol>
    <symbol id="eye-slash"
      viewBox="0 0 28 28">
      <path d="M8.672 20.859l1.219-2.203c-1.813-1.313-2.891-3.422-2.891-5.656 0-1.234 0.328-2.453 0.953-3.516-2.438 1.25-4.469 3.219-5.953 5.516 1.625 2.516 3.922 4.625 6.672 5.859zM14.75 9c0-0.406-0.344-0.75-0.75-0.75-2.609 0-4.75 2.141-4.75 4.75 0 0.406 0.344 0.75 0.75 0.75s0.75-0.344 0.75-0.75c0-1.797 1.469-3.25 3.25-3.25 0.406 0 0.75-0.344 0.75-0.75zM20.422 6.016c0 0.031 0 0.109-0.016 0.141-3.297 5.891-6.563 11.813-9.859 17.703l-0.766 1.391c-0.094 0.156-0.266 0.25-0.438 0.25-0.281 0-1.766-0.906-2.094-1.094-0.156-0.094-0.25-0.25-0.25-0.438 0-0.25 0.531-1.094 0.688-1.359-3.031-1.375-5.578-3.719-7.375-6.531-0.203-0.313-0.313-0.688-0.313-1.078 0-0.375 0.109-0.766 0.313-1.078 3.094-4.75 7.922-7.922 13.687-7.922 0.938 0 1.891 0.094 2.812 0.266l0.844-1.516c0.094-0.156 0.25-0.25 0.438-0.25 0.281 0 1.75 0.906 2.078 1.094 0.156 0.094 0.25 0.25 0.25 0.422zM21 13c0 2.906-1.797 5.5-4.5 6.531l4.375-7.844c0.078 0.438 0.125 0.875 0.125 1.313zM28 15c0 0.406-0.109 0.734-0.313 1.078-0.484 0.797-1.094 1.563-1.703 2.266-3.063 3.516-7.281 5.656-11.984 5.656l1.156-2.063c4.547-0.391 8.406-3.156 10.844-6.937-1.156-1.797-2.641-3.375-4.406-4.594l0.984-1.75c1.937 1.297 3.891 3.25 5.109 5.266 0.203 0.344 0.313 0.672 0.313 1.078z"></path>
    </symbol>
    <symbol id="bell"
      viewBox="0 0 28 28">
      <path d="M14.25 26.5c0-0.141-0.109-0.25-0.25-0.25-1.234 0-2.25-1.016-2.25-2.25 0-0.141-0.109-0.25-0.25-0.25s-0.25 0.109-0.25 0.25c0 1.516 1.234 2.75 2.75 2.75 0.141 0 0.25-0.109 0.25-0.25zM27 22c0 1.094-0.906 2-2 2h-7c0 2.203-1.797 4-4 4s-4-1.797-4-4h-7c-1.094 0-2-0.906-2-2 2.312-1.953 5-5.453 5-13 0-3 2.484-6.281 6.625-6.891-0.078-0.187-0.125-0.391-0.125-0.609 0-0.828 0.672-1.5 1.5-1.5s1.5 0.672 1.5 1.5c0 0.219-0.047 0.422-0.125 0.609 4.141 0.609 6.625 3.891 6.625 6.891 0 7.547 2.688 11.047 5 13z"></path>
    </symbol>
    <symbol id="search"
      viewBox="0 0 26 28">
      <path d="M18 13c0-3.859-3.141-7-7-7s-7 3.141-7 7 3.141 7 7 7 7-3.141 7-7zM26 26c0 1.094-0.906 2-2 2-0.531 0-1.047-0.219-1.406-0.594l-5.359-5.344c-1.828 1.266-4.016 1.937-6.234 1.937-6.078 0-11-4.922-11-11s4.922-11 11-11 11 4.922 11 11c0 2.219-0.672 4.406-1.937 6.234l5.359 5.359c0.359 0.359 0.578 0.875 0.578 1.406z"></path>
    </symbol>
    <symbol id="cog"
      viewBox="0 0 24 28">
      <path d="M16 14c0-2.203-1.797-4-4-4s-4 1.797-4 4 1.797 4 4 4 4-1.797 4-4zM24 12.297v3.469c0 0.234-0.187 0.516-0.438 0.562l-2.891 0.438c-0.172 0.5-0.359 0.969-0.609 1.422 0.531 0.766 1.094 1.453 1.672 2.156 0.094 0.109 0.156 0.25 0.156 0.391s-0.047 0.25-0.141 0.359c-0.375 0.5-2.484 2.797-3.016 2.797-0.141 0-0.281-0.063-0.406-0.141l-2.156-1.687c-0.453 0.234-0.938 0.438-1.422 0.594-0.109 0.953-0.203 1.969-0.453 2.906-0.063 0.25-0.281 0.438-0.562 0.438h-3.469c-0.281 0-0.531-0.203-0.562-0.469l-0.438-2.875c-0.484-0.156-0.953-0.344-1.406-0.578l-2.203 1.672c-0.109 0.094-0.25 0.141-0.391 0.141s-0.281-0.063-0.391-0.172c-0.828-0.75-1.922-1.719-2.578-2.625-0.078-0.109-0.109-0.234-0.109-0.359 0-0.141 0.047-0.25 0.125-0.359 0.531-0.719 1.109-1.406 1.641-2.141-0.266-0.5-0.484-1.016-0.641-1.547l-2.859-0.422c-0.266-0.047-0.453-0.297-0.453-0.562v-3.469c0-0.234 0.187-0.516 0.422-0.562l2.906-0.438c0.156-0.5 0.359-0.969 0.609-1.437-0.531-0.75-1.094-1.453-1.672-2.156-0.094-0.109-0.156-0.234-0.156-0.375s0.063-0.25 0.141-0.359c0.375-0.516 2.484-2.797 3.016-2.797 0.141 0 0.281 0.063 0.406 0.156l2.156 1.672c0.453-0.234 0.938-0.438 1.422-0.594 0.109-0.953 0.203-1.969 0.453-2.906 0.063-0.25 0.281-0.438 0.562-0.438h3.469c0.281 0 0.531 0.203 0.562 0.469l0.438 2.875c0.484 0.156 0.953 0.344 1.406 0.578l2.219-1.672c0.094-0.094 0.234-0.141 0.375-0.141s0.281 0.063 0.391 0.156c0.828 0.766 1.922 1.734 2.578 2.656 0.078 0.094 0.109 0.219 0.109 0.344 0 0.141-0.047 0.25-0.125 0.359-0.531 0.719-1.109 1.406-1.641 2.141 0.266 0.5 0.484 1.016 0.641 1.531l2.859 0.438c0.266 0.047 0.453 0.297 0.453 0.562z"></path>
    </symbol>
    <symbol id="angle-left"
      viewBox="0 0 11 28">
      <path d="M9.797 8.5c0 0.125-0.063 0.266-0.156 0.359l-6.141 6.141 6.141 6.141c0.094 0.094 0.156 0.234 0.156 0.359s-0.063 0.266-0.156 0.359l-0.781 0.781c-0.094 0.094-0.234 0.156-0.359 0.156s-0.266-0.063-0.359-0.156l-7.281-7.281c-0.094-0.094-0.156-0.234-0.156-0.359s0.063-0.266 0.156-0.359l7.281-7.281c0.094-0.094 0.234-0.156 0.359-0.156s0.266 0.063 0.359 0.156l0.781 0.781c0.094 0.094 0.156 0.219 0.156 0.359z"></path>
    </symbol>
    <symbol id="angle-right"
      viewBox="0 0 9 28">
      <path d="M9.297 15c0 0.125-0.063 0.266-0.156 0.359l-7.281 7.281c-0.094 0.094-0.234 0.156-0.359 0.156s-0.266-0.063-0.359-0.156l-0.781-0.781c-0.094-0.094-0.156-0.219-0.156-0.359 0-0.125 0.063-0.266 0.156-0.359l6.141-6.141-6.141-6.141c-0.094-0.094-0.156-0.234-0.156-0.359s0.063-0.266 0.156-0.359l0.781-0.781c0.094-0.094 0.234-0.156 0.359-0.156s0.266 0.063 0.359 0.156l7.281 7.281c0.094 0.094 0.156 0.234 0.156 0.359z"></path>
    </symbol>
    <symbol id="angle-up"
      viewBox="0 0 18 28">
      <path d="M16.797 18.5c0 0.125-0.063 0.266-0.156 0.359l-0.781 0.781c-0.094 0.094-0.219 0.156-0.359 0.156-0.125 0-0.266-0.063-0.359-0.156l-6.141-6.141-6.141 6.141c-0.094 0.094-0.234 0.156-0.359 0.156s-0.266-0.063-0.359-0.156l-0.781-0.781c-0.094-0.094-0.156-0.234-0.156-0.359s0.063-0.266 0.156-0.359l7.281-7.281c0.094-0.094 0.234-0.156 0.359-0.156s0.266 0.063 0.359 0.156l7.281 7.281c0.094 0.094 0.156 0.234 0.156 0.359z"></path>
    </symbol>
    <symbol id="angle-down"
      viewBox="0 0 18 28">
      <path d="M16.797 11.5c0 0.125-0.063 0.266-0.156 0.359l-7.281 7.281c-0.094 0.094-0.234 0.156-0.359 0.156s-0.266-0.063-0.359-0.156l-7.281-7.281c-0.094-0.094-0.156-0.234-0.156-0.359s0.063-0.266 0.156-0.359l0.781-0.781c0.094-0.094 0.219-0.156 0.359-0.156 0.125 0 0.266 0.063 0.359 0.156l6.141 6.141 6.141-6.141c0.094-0.094 0.234-0.156 0.359-0.156s0.266 0.063 0.359 0.156l0.781 0.781c0.094 0.094 0.156 0.234 0.156 0.359z"></path>
    </symbol>
    <symbol id="keys"
      viewBox="0 0 26 32">
      <path d="M21.8 12h-1v-4c0-4.412-3.588-8-8-8s-8 3.588-8 8v4h-1c-1.653 0-3 1.345-3 3v14c0 1.655 1.347 3 3 3h18c1.653 0 3-1.345 3-3v-14c0-1.655-1.347-3-3-3zM7.467 8c0-2.941 2.392-5.333 5.333-5.333s5.333 2.392 5.333 5.333v4h-10.667v-4zM14.133 22.296v3.037c0 0.736-0.596 1.333-1.333 1.333s-1.333-0.597-1.333-1.333v-3.037c-0.793-0.463-1.333-1.313-1.333-2.296 0-1.471 1.196-2.667 2.667-2.667s2.667 1.196 2.667 2.667c0 0.983-0.54 1.833-1.333 2.296z"></path>
    </symbol>
    <symbol id="cancel"
      viewBox="0 0 32 32">
      <path d="M29.282 24.716l-21.944-21.943c-0.957-0.957-2.508-0.957-3.464 0l-1.156 1.155c-0.957 0.957-0.957 2.509 0 3.464l21.943 21.943c0.957 0.957 2.509 0.957 3.464 0l1.155-1.155c0.959-0.956 0.959-2.507 0.001-3.464v0z"></path>
      <path d="M24.661 2.773l-21.943 21.944c-0.957 0.957-0.957 2.509 0 3.464l1.155 1.155c0.957 0.957 2.509 0.957 3.464 0l21.945-21.942c0.957-0.957 0.957-2.508 0-3.464l-1.155-1.155c-0.957-0.959-2.509-0.959-3.466-0.002v0z"></path>
    </symbol>
    <symbol id="back"
      viewBox="0 0 36 32">
      <path stroke-linejoin="round"
        stroke-linecap="round"
        stroke-miterlimit="4"
        stroke-width="3.5556"
        d="M34.133 15.644h-32M2.133 15.644l13.156-13.511M2.133 15.644l13.156 14.222"></path>
    </symbol>
    <symbol id="instagram"
      viewBox="0 0 24 28">
      <path d="M16 14c0-2.203-1.797-4-4-4s-4 1.797-4 4 1.797 4 4 4 4-1.797 4-4zM18.156 14c0 3.406-2.75 6.156-6.156 6.156s-6.156-2.75-6.156-6.156 2.75-6.156 6.156-6.156 6.156 2.75 6.156 6.156zM19.844 7.594c0 0.797-0.641 1.437-1.437 1.437s-1.437-0.641-1.437-1.437 0.641-1.437 1.437-1.437 1.437 0.641 1.437 1.437zM12 4.156c-1.75 0-5.5-0.141-7.078 0.484-0.547 0.219-0.953 0.484-1.375 0.906s-0.688 0.828-0.906 1.375c-0.625 1.578-0.484 5.328-0.484 7.078s-0.141 5.5 0.484 7.078c0.219 0.547 0.484 0.953 0.906 1.375s0.828 0.688 1.375 0.906c1.578 0.625 5.328 0.484 7.078 0.484s5.5 0.141 7.078-0.484c0.547-0.219 0.953-0.484 1.375-0.906s0.688-0.828 0.906-1.375c0.625-1.578 0.484-5.328 0.484-7.078s0.141-5.5-0.484-7.078c-0.219-0.547-0.484-0.953-0.906-1.375s-0.828-0.688-1.375-0.906c-1.578-0.625-5.328-0.484-7.078-0.484zM24 14c0 1.656 0.016 3.297-0.078 4.953-0.094 1.922-0.531 3.625-1.937 5.031s-3.109 1.844-5.031 1.937c-1.656 0.094-3.297 0.078-4.953 0.078s-3.297 0.016-4.953-0.078c-1.922-0.094-3.625-0.531-5.031-1.937s-1.844-3.109-1.937-5.031c-0.094-1.656-0.078-3.297-0.078-4.953s-0.016-3.297 0.078-4.953c0.094-1.922 0.531-3.625 1.937-5.031s3.109-1.844 5.031-1.937c1.656-0.094 3.297-0.078 4.953-0.078s3.297-0.016 4.953 0.078c1.922 0.094 3.625 0.531 5.031 1.937s1.844 3.109 1.937 5.031c0.094 1.656 0.078 3.297 0.078 4.953z"></path>
    </symbol>
    <symbol id="vk"
      viewBox="0 0 31 28">
      <path d="M29.953 8.125c0.234 0.641-0.5 2.141-2.344 4.594-3.031 4.031-3.359 3.656-0.859 5.984 2.406 2.234 2.906 3.313 2.984 3.453 0 0 1 1.75-1.109 1.766l-4 0.063c-0.859 0.172-2-0.609-2-0.609-1.5-1.031-2.906-3.703-4-3.359 0 0-1.125 0.359-1.094 2.766 0.016 0.516-0.234 0.797-0.234 0.797s-0.281 0.297-0.828 0.344h-1.797c-3.953 0.25-7.438-3.391-7.438-3.391s-3.813-3.938-7.156-11.797c-0.219-0.516 0.016-0.766 0.016-0.766s0.234-0.297 0.891-0.297l4.281-0.031c0.406 0.063 0.688 0.281 0.688 0.281s0.25 0.172 0.375 0.5c0.703 1.75 1.609 3.344 1.609 3.344 1.563 3.219 2.625 3.766 3.234 3.437 0 0 0.797-0.484 0.625-4.375-0.063-1.406-0.453-2.047-0.453-2.047-0.359-0.484-1.031-0.625-1.328-0.672-0.234-0.031 0.156-0.594 0.672-0.844 0.766-0.375 2.125-0.391 3.734-0.375 1.266 0.016 1.625 0.094 2.109 0.203 1.484 0.359 0.984 1.734 0.984 5.047 0 1.062-0.203 2.547 0.562 3.031 0.328 0.219 1.141 0.031 3.141-3.375 0 0 0.938-1.625 1.672-3.516 0.125-0.344 0.391-0.484 0.391-0.484s0.25-0.141 0.594-0.094l4.5-0.031c1.359-0.172 1.578 0.453 1.578 0.453z"></path>
    </symbol>
    <symbol id="paper-plane"
      viewBox="0 0 28 28">
      <path d="M27.563 0.172c0.328 0.234 0.484 0.609 0.422 1l-4 24c-0.047 0.297-0.234 0.547-0.5 0.703-0.141 0.078-0.313 0.125-0.484 0.125-0.125 0-0.25-0.031-0.375-0.078l-7.078-2.891-3.781 4.609c-0.187 0.234-0.469 0.359-0.766 0.359-0.109 0-0.234-0.016-0.344-0.063-0.391-0.141-0.656-0.516-0.656-0.938v-5.453l13.5-16.547-16.703 14.453-6.172-2.531c-0.359-0.141-0.594-0.469-0.625-0.859-0.016-0.375 0.172-0.734 0.5-0.922l26-15c0.156-0.094 0.328-0.141 0.5-0.141 0.203 0 0.406 0.063 0.562 0.172z"></path>
    </symbol>
    <symbol id="download"
      viewBox="0 0 32 32">
      <path d="M29.173 10.726c0.098-0.524 0.147-1.056 0.148-1.589-0.006-4.952-4.026-8.962-8.978-8.956-3.77 0.005-7.135 2.367-8.419 5.911-2.301-0.916-4.908 0.207-5.824 2.507-0.079 0.199-0.144 0.404-0.194 0.612-3.673 0.549-6.206 3.973-5.657 7.646 0.493 3.295 3.323 5.732 6.654 5.731h5.604c0.619 0 1.121-0.502 1.121-1.121s-0.502-1.121-1.121-1.121h-5.604c-2.476 0-4.484-2.007-4.484-4.484s2.007-4.484 4.484-4.484c0.619 0 1.121-0.502 1.121-1.121 0.002-1.238 1.007-2.24 2.245-2.238 0.585 0.001 1.147 0.231 1.566 0.641 0.441 0.435 1.151 0.429 1.585-0.012 0.163-0.166 0.271-0.378 0.308-0.607 0.608-3.66 4.069-6.134 7.729-5.526s6.134 4.069 5.526 7.729c-0.036 0.218-0.083 0.435-0.141 0.648-0.129 0.468 0.058 0.966 0.463 1.233 2.063 1.369 2.626 4.152 1.257 6.215-0.829 1.249-2.227 2.001-3.725 2.005h-3.363c-0.619 0-1.121 0.502-1.121 1.121s0.502 1.121 1.121 1.121h3.363c3.714-0.003 6.723-3.017 6.719-6.732-0.002-1.977-0.873-3.853-2.383-5.13z"></path>
      <path d="M23.364 24.036c-0.434-0.419-1.123-0.419-1.557 0l-3.693 3.691v-16.349c0-0.619-0.502-1.121-1.121-1.121s-1.121 0.502-1.121 1.121v16.349l-3.691-3.691c-0.445-0.43-1.155-0.418-1.585 0.028-0.42 0.434-0.42 1.123 0 1.557l5.604 5.604c0.437 0.438 1.147 0.439 1.585 0.002 0.001-0.001 0.001-0.001 0.002-0.002l5.604-5.604c0.43-0.445 0.418-1.155-0.028-1.585z"></path>
    </symbol>
    <symbol id="starsup"
      viewBox="0 0 32 32">
      <path d="M29.14 12.862l-12.667-12.667c-0.26-0.26-0.683-0.26-0.943 0l-12.666 12.667c-1.363 1.363-1.363 3.58 0 4.943s3.58 1.363 4.943 0l4.861-4.861v15.724c0 1.837 1.496 3.333 3.333 3.333s3.333-1.496 3.333-3.333v-15.724l4.861 4.861c1.363 1.363 3.58 1.363 4.943 0 1.363-1.361 1.363-3.58 0.001-4.943z"></path>
    </symbol>
    <symbol id="settings"
      viewBox="0 0 32 32">
      <path d="M27.693 18.884l-2.153-1.19c0.217-1.123 0.217-2.274 0-3.397l2.153-1.19c0.248-0.136 0.359-0.416 0.278-0.677-0.561-1.723-1.516-3.281-2.765-4.577-0.192-0.198-0.505-0.247-0.748-0.111l-2.153 1.19c-0.905-0.745-1.946-1.321-3.073-1.698v-2.376c0-0.271-0.197-0.508-0.475-0.566-1.855-0.397-3.756-0.377-5.52 0-0.278 0.058-0.475 0.295-0.475 0.566v2.381c-1.122 0.382-2.163 0.958-3.073 1.698l-2.148-1.19c-0.248-0.135-0.556-0.092-0.748 0.111-1.248 1.292-2.204 2.85-2.765 4.577-0.086 0.261 0.030 0.542 0.278 0.677l2.153 1.19c-0.217 1.123-0.217 2.274 0 3.397l-2.153 1.19c-0.248 0.135-0.359 0.416-0.278 0.677 0.561 1.723 1.516 3.281 2.765 4.577 0.192 0.198 0.505 0.247 0.748 0.111l2.153-1.19c0.905 0.745 1.946 1.321 3.073 1.698v2.381c0 0.271 0.197 0.508 0.475 0.566 1.855 0.397 3.755 0.377 5.52 0 0.278-0.058 0.475-0.295 0.475-0.566v-2.381c1.122-0.382 2.163-0.958 3.073-1.698l2.153 1.19c0.248 0.135 0.556 0.092 0.748-0.111 1.248-1.292 2.204-2.85 2.765-4.577 0.076-0.266-0.035-0.547-0.283-0.682zM15.997 19.866c-2.229 0-4.044-1.737-4.044-3.871s1.815-3.871 4.044-3.871c2.229 0 4.044 1.737 4.044 3.871s-1.815 3.871-4.044 3.871z"></path>
    </symbol>
    <symbol id="arrow-up"
      viewBox="0 0 26 28">
      <path d="M25.172 15.172c0 0.531-0.219 1.031-0.578 1.406l-1.172 1.172c-0.375 0.375-0.891 0.594-1.422 0.594s-1.047-0.219-1.406-0.594l-4.594-4.578v11c0 1.125-0.938 1.828-2 1.828h-2c-1.062 0-2-0.703-2-1.828v-11l-4.594 4.578c-0.359 0.375-0.875 0.594-1.406 0.594s-1.047-0.219-1.406-0.594l-1.172-1.172c-0.375-0.375-0.594-0.875-0.594-1.406s0.219-1.047 0.594-1.422l10.172-10.172c0.359-0.375 0.875-0.578 1.406-0.578s1.047 0.203 1.422 0.578l10.172 10.172c0.359 0.375 0.578 0.891 0.578 1.422z"></path>
    </symbol>
  </defs>
</svg>
