<svg xmlns="http://www.w3.org/2000/svg" xmlns:xlink="http://www.w3.org/1999/xlink" width="271.085" height="281.533" viewBox="0 0 271.085 281.533"><defs><style>.a{opacity:0.6;fill:url(#a);}.b{fill:#8083e6;}.c{opacity:0.1;}.d{fill:#c7c7c7;}.e{fill:#a6a6a6;}.f,.h{fill:#fff;}.g{fill:#ebebeb;}.h{opacity:0.2;}.i{fill:#fcfcfc;}.j{fill:url(#b);}.k{fill:url(#e);}.l{fill:#00c3e1;}.m{filter:url(#h);}.n{filter:url(#f);}.o{filter:url(#c);}</style><linearGradient id="a" x1="0.945" y1="0.183" x2="0" y2="0.134" gradientUnits="objectBoundingBox"><stop offset="0" stop-color="#8083e6"/><stop offset="1" stop-color="#404273" stop-opacity="0"/></linearGradient><linearGradient id="b" x1="0.5" x2="0.5" y2="0.234" gradientUnits="objectBoundingBox"><stop offset="0" stop-color="#00c3e1" stop-opacity="0"/><stop offset="1" stop-color="#00c3e1"/></linearGradient><filter id="c" x="0.63" y="73.747" width="114.798" height="141.91" filterUnits="userSpaceOnUse"><feOffset input="SourceAlpha"/><feGaussianBlur stdDeviation="10" result="d"/><feFlood flood-color="#00c3e1" flood-opacity="0.8"/><feComposite operator="in" in2="d"/><feComposite in="SourceGraphic"/></filter><linearGradient id="e" x1="0.5" y1="0.761" x2="0.5" y2="1" gradientUnits="objectBoundingBox"><stop offset="0" stop-color="#00c3e1"/><stop offset="1" stop-color="#00c3e1" stop-opacity="0"/></linearGradient><filter id="f" x="66.479" y="93.381" width="106.534" height="141.367" filterUnits="userSpaceOnUse"><feOffset input="SourceAlpha"/><feGaussianBlur stdDeviation="10" result="g"/><feFlood flood-color="#00c3e1" flood-opacity="0.8"/><feComposite operator="in" in2="g"/><feComposite in="SourceGraphic"/></filter><filter id="h" x="0" y="0" width="271.085" height="123.955" filterUnits="userSpaceOnUse"><feOffset input="SourceAlpha"/><feGaussianBlur stdDeviation="10" result="i"/><feFlood flood-color="#00c3e1" flood-opacity="0.8"/><feComposite operator="in" in2="i"/><feComposite in="SourceGraphic"/></filter></defs><g transform="translate(-547.591 -154.866)"><g transform="translate(571.737 282.827)"><path class="a" d="M203.867,90.939c-5.321,17.286-13.08,25.974-25.061,39.787-11.885,13.785-31.677,22.216-49.165,28.162-8.773,2.878-22.739,2.583-31.413,2.583-9.363.256-18.6-2.187-27.891-4.755A109.971,109.971,0,0,1,43.6,145.557a148.331,148.331,0,0,1-23.941-17.3A150.337,150.337,0,0,0,41.7,148.521a118.794,118.794,0,0,0,26.517,14.858,111.741,111.741,0,0,0,30.014,7.258,106.9,106.9,0,0,0,31.413-1.78c20.774-4.351,40.268-14.953,56.1-29.419,15.924-14.495,20.263-29.762,28.979-49.533Z" transform="translate(-19.657 -17.519)"/><path class="b" d="M199.1,68.746c.333,0,13.258,5.835,14.145,20.423.838,13.433-8.376,26.268-9.555,25.429-1.474-1.037.95-9.407-1.986-18.963-1.037-3.4-5.493-6.355-5.493-6.355Z" transform="translate(0.174 -19.895)"/><path class="c" d="M196.169,89.277a19.8,19.8,0,0,1,3.536,3.135c1.862-4.292,5.365-12.273,7.646-17.465a24.193,24.193,0,0,0-8.249-6.2Z" transform="translate(0.17 -19.895)"/><path class="b" d="M170.762,69.033c-.333,0-13.151,6.084-13.771,20.695-.557,13.442,8.861,26.1,10.052,25.24,1.449-1.047-1.132-9.381,1.625-18.988.978-3.4,5.386-6.471,5.386-6.471Z" transform="translate(-4.233 -19.863)"/><path class="c" d="M162,75.453c2.368,5.176,6.019,13.124,7.946,17.36a20.508,20.508,0,0,1,3.559-3.283l-3.292-20.475A22.372,22.372,0,0,0,162,75.453Z" transform="translate(-3.668 -19.861)"/><path class="d" d="M176.47,107.533l19.408-.182s8.989-16.438,7.725-35.9A95.329,95.329,0,0,0,197.2,43.884c-4.3-11.139-9.574-19.05-11.833-19.037s-7.38,8.031-11.474,19.246a96.784,96.784,0,0,0-5.866,27.69C167.16,91.269,176.47,107.533,176.47,107.533Z" transform="translate(-2.998 -24.826)"/><path class="e" d="M173.559,65.882a11.189,11.189,0,1,0,11.073-11.3A11.187,11.187,0,0,0,173.559,65.882Z" transform="translate(-2.37 -21.487)"/><path class="b" d="M173.914,64.833a11.189,11.189,0,1,0,11.073-11.3A11.188,11.188,0,0,0,173.914,64.833Z" transform="translate(-2.33 -21.605)"/><path class="f" d="M176.985,64.467a7.755,7.755,0,1,0,7.677-7.832A7.736,7.736,0,0,0,176.985,64.467Z" transform="translate(-1.985 -21.256)"/><path class="g" d="M176.983,63.886a6.844,6.844,0,0,0,.571,2.809l4.462,4.4a7.652,7.652,0,0,0,2.821.493,7.74,7.74,0,0,0,2.081-.313l-9.628-9.468A6.026,6.026,0,0,0,176.983,63.886Z" transform="translate(-1.985 -20.675)"/><path class="g" d="M182.882,56.729l8.883,8.749a9.617,9.617,0,0,0,.083-1.145,7.734,7.734,0,0,0-7.832-7.676A4.623,4.623,0,0,0,182.882,56.729Z" transform="translate(-1.323 -21.254)"/><path class="g" d="M177.825,60.334l10.642,10.449a2.617,2.617,0,0,0,.581-.378L178.178,59.74C178.053,59.93,177.95,60.144,177.825,60.334Z" transform="translate(-1.891 -20.907)"/><path class="b" d="M173.289,44.094l23.329-.229c-4.3-11.139-9.573-19.05-11.832-19.037C182.5,24.861,177.4,32.859,173.289,44.094Z" transform="translate(-2.4 -24.828)"/><path class="f" d="M190.611,39.892a.642.642,0,1,0,.645-.64A.618.618,0,0,0,190.611,39.892Z" transform="translate(-0.454 -23.208)"/><path class="f" d="M186.885,39.919a.642.642,0,1,0,.644-.64A.618.618,0,0,0,186.885,39.919Z" transform="translate(-0.873 -23.205)"/><path class="f" d="M183.162,39.947a.642.642,0,1,0,.645-.64A.641.641,0,0,0,183.162,39.947Z" transform="translate(-1.291 -23.202)"/><path class="f" d="M179.416,39.992a.642.642,0,1,0,.645-.64A.672.672,0,0,0,179.416,39.992Z" transform="translate(-1.712 -23.197)"/><path class="f" d="M175.694,40.021a.642.642,0,1,0,.644-.64A.67.67,0,0,0,175.694,40.021Z" transform="translate(-2.13 -23.194)"/><path class="e" d="M191.166,96.419a.642.642,0,1,0,.645-.64A.617.617,0,0,0,191.166,96.419Z" transform="translate(-0.392 -16.859)"/><path class="e" d="M187.44,96.446a.642.642,0,1,0,.644-.64A.614.614,0,0,0,187.44,96.446Z" transform="translate(-0.811 -16.856)"/><path class="e" d="M183.7,96.492a.642.642,0,1,0,.645-.64A.619.619,0,0,0,183.7,96.492Z" transform="translate(-1.231 -16.851)"/><path class="e" d="M179.971,96.52a.642.642,0,1,0,.644-.64A.616.616,0,0,0,179.971,96.52Z" transform="translate(-1.65 -16.848)"/><path class="e" d="M176.248,96.549a.642.642,0,1,0,.645-.64A.616.616,0,0,0,176.248,96.549Z" transform="translate(-2.068 -16.844)"/><path class="h" d="M184.327,25.079c5.2,6.976,11.079,21.794,12.029,41.9.712,14.863-5.856,31.809-9.736,40.4l7.4-.082s9.009-16.414,7.725-35.9a95.8,95.8,0,0,0-6.407-27.565C191.527,33.839,186.883,26.461,184.327,25.079Z" transform="translate(-1.16 -24.8)"/><path class="b" d="M177.353,105l15.773-.137.691-5.839-17.281.16Z" transform="translate(-2.036 -16.494)"/><path class="c" d="M176.537,99.187l.414,2.82,16.594-.763.273-2.217Z" transform="translate(-2.035 -16.494)"/><path class="i" d="M163.272,39.5l1.813,1.859-1.049,2.558,2-1.892,2.4,1.06L166.7,41.122l.952-2.433-1.92,1.742Z" transform="translate(-3.525 -23.271)"/><path class="i" d="M152.058,71.625l.522,2.575-2.272,1.551,2.7-.508,1.414,2.2-.367-2.6,2.122-1.5-2.588.429Z" transform="translate(-4.982 -19.572)"/><path class="i" d="M215.31,86.859l1.856,1.862-1.093,2.555,2.021-1.912,2.379,1.081-1.74-1.964,1-2.429-1.944,1.763Z" transform="translate(2.32 -17.951)"/></g><g transform="translate(577.591 184.866)"><g class="o" transform="matrix(1, 0, 0, 1, -30, -30)"><path class="j" d="M14.786,79.475A23.564,23.564,0,0,1,6.263,72.69a30.426,30.426,0,0,1-4.784-9.829A45.229,45.229,0,0,1,0,51.207V19.633H14.265V51.207a30.671,30.671,0,0,0,1.217,8.785,15.017,15.017,0,0,0,4.176,6.7A11.308,11.308,0,0,0,27.4,69.211a11.2,11.2,0,0,0,7.828-2.61,14.378,14.378,0,0,0,4.088-6.7,30.355,30.355,0,0,0,1.217-8.7V19.633h-.006V0H54.8V19.633h0V51.207a40.25,40.25,0,0,1-2.87,15.482,24.547,24.547,0,0,1-8.959,11.133q-6,4.087-15.569,4.088A29.655,29.655,0,0,1,14.786,79.475Z" transform="translate(30.63 103.75)"/></g><g class="n" transform="matrix(1, 0, 0, 1, -30, -30)"><path class="k" d="M0,81.367V61.733H0V0H26.355a17.829,17.829,0,0,1,8.089,1.826A19.461,19.461,0,0,1,40.881,6.61a21.666,21.666,0,0,1,4.174,6.7,20.422,20.422,0,0,1,1.479,7.567,21.514,21.514,0,0,1-2.522,10.176,20.8,20.8,0,0,1-6.872,7.829,18.221,18.221,0,0,1-10.35,2.957H14.265v19.9h.007V81.367ZM14.265,29.4H25.92a5.516,5.516,0,0,0,4.349-2.175Q32.1,25.051,32.1,20.875q0-4.263-2.174-6.263A6.318,6.318,0,0,0,25.4,12.525H14.265Z" transform="translate(96.48 123.38)"/></g><g class="m" transform="matrix(1, 0, 0, 1, -30, -30)"><path class="l" d="M181.334,62.019a25.345,25.345,0,0,1-9.241-5.721l4.225-7.657a31.876,31.876,0,0,0,8.1,4.928,20.767,20.767,0,0,0,7.744,1.585,10.447,10.447,0,0,0,5.458-1.232,4.015,4.015,0,0,0,2.113-3.7,3.384,3.384,0,0,0-2.553-3.433q-2.553-.969-7.131-2.377a61.166,61.166,0,0,1-8.536-3.257,13.819,13.819,0,0,1-5.194-4.048,10.473,10.473,0,0,1-1.672-6.162,13.109,13.109,0,0,1,5.1-10.826q5.105-4.048,13.554-4.048a27.343,27.343,0,0,1,9.33,1.584,21.7,21.7,0,0,1,8.01,4.929l-4.753,7.481q-6.777-5.281-13.115-5.281a11.442,11.442,0,0,0-5.016,1.056,3.782,3.782,0,0,0-2.112,3.7,3.659,3.659,0,0,0,2.024,3.52,40.149,40.149,0,0,0,6.337,2.288q5.457,1.673,9.242,3.257a13.854,13.854,0,0,1,5.808,4.049,10.22,10.22,0,0,1,2.025,6.689,12.8,12.8,0,0,1-5.017,10.738q-5.018,3.873-13.468,3.873A32.965,32.965,0,0,1,181.334,62.019Zm-39.643,1.771V39.815c4.942-.55,7.414-4.394,6.59-8.512-.66-3.3-4.668-3.57-6.59-3.3V17.641h10.833V27.5a20.062,20.062,0,0,1,6.164-7.486,15.61,15.61,0,0,1,8.1-2.994,19.038,19.038,0,0,1,2.379.088V27.857a21.165,21.165,0,0,0-9.6,2.113,12.392,12.392,0,0,0-6.078,5.9V63.789ZM95.071,61.9a15.312,15.312,0,0,1-5.724-5.2,10.806,10.806,0,0,1-2.025-6.452l11.184-2A6.572,6.572,0,0,0,100.621,53a8.22,8.22,0,0,0,6.076,2.114,13.849,13.849,0,0,0,5.108-.969,12.485,12.485,0,0,0,4.228-2.554q2.2-2.114,2.2-4.051l-.432-2.785,12.145-2.472.089,7.37a4.56,4.56,0,0,0,.616,2.731,3.342,3.342,0,0,0,2.2.88v9.6a19.316,19.316,0,0,1-2.906.44,15.16,15.16,0,0,1-2.113.176,8.044,8.044,0,0,1-5.373-1.585,6.226,6.226,0,0,1-2.2-3.875L120,55.646a20.582,20.582,0,0,1-7.574,6.077,21.478,21.478,0,0,1-9.071,2.025A17.921,17.921,0,0,1,95.071,61.9ZM21.687,63.43l20.869-4.083a19.513,19.513,0,0,1-4.869,2.479,34.437,34.437,0,0,1-11.448,1.849Zm43.1-1.015a9.791,9.791,0,0,1-4.4-3.61,6.446,6.446,0,0,1-1.072-2.789l22.121-4.961,2.378,9.335a50.323,50.323,0,0,1-5.9,2.113,24.112,24.112,0,0,1-7.134,1.057A15.322,15.322,0,0,1,64.789,62.415Zm-52.547-.854A44.864,44.864,0,0,1,0,55.573l5.373-10.48a18.97,18.97,0,0,0,2.818,2.113,46.892,46.892,0,0,0,4.931,2.554,44.667,44.667,0,0,0,6.342,2.114,27.916,27.916,0,0,0,6.957.88q10.041,0,10.04-6.429a5.43,5.43,0,0,0-2.025-4.4A16.767,16.767,0,0,0,28.711,39.1q-3.612-1.144-8.455-2.554a54.125,54.125,0,0,1-9.952-3.7,15.3,15.3,0,0,1-5.812-5.2,15.147,15.147,0,0,1-1.937-8.015A18.4,18.4,0,0,1,5.549,8.895a18.834,18.834,0,0,1,8.278-6.605A28.3,28.3,0,0,1,25.365,0,34.345,34.345,0,0,1,37.518,2.113a46.592,46.592,0,0,1,9.688,4.844l-5.372,9.864a14.121,14.121,0,0,0-3.347-2.289,30.418,30.418,0,0,0-6.165-2.643,21.969,21.969,0,0,0-7.31-1.232q-9.953,0-9.952,7.046a5.308,5.308,0,0,0,1.585,4.051A12.8,12.8,0,0,0,21.4,24.307q3.17,1.057,7.926,2.289a60.608,60.608,0,0,1,10.656,3.7,16.434,16.434,0,0,1,6.957,5.636q2.465,3.436,2.467,9.16c0,4.462-.83,7.891-3,10.65l-26.15,7.14a3.942,3.942,0,0,1-.529.031A39.879,39.879,0,0,1,12.242,61.561ZM58.8,25.69H52.722V16.619H58.8V1.648H70.6V16.619h9.687V25.69H70.6V48.237L58.8,52.2ZM89.783,41.378a16.231,16.231,0,0,1,7.046-5.284,26.874,26.874,0,0,1,10.3-1.85,33.9,33.9,0,0,1,5.9.529c1.408.1,2.729.352,4.29.373l.231-.067.675-1.451a8.653,8.653,0,0,0-2.642-6.781q-2.554-2.379-7.661-2.379A19.938,19.938,0,0,0,100.7,25.79a36.515,36.515,0,0,0-7.222,3.875l-3.787-7.75a37.794,37.794,0,0,1,9.336-4.492,34.09,34.09,0,0,1,10.127-1.5q9.864,0,15.325,4.931c3.748,3.031,4.3,4.932,5.121,10.72l-12.05,3.5-.032.068h-.2L88.964,43.385Z" transform="translate(30 30)"/></g></g></g></svg>