<svg xmlns="http://www.w3.org/2000/svg" width="62.494" height="59.413" viewBox="0 0 62.494 59.413"><defs><style>.a{fill:#fff;}.b{fill:none;}.c,.d{stroke:none;}.d{fill:#df56fb;}</style></defs><g transform="translate(0 0)"><path class="a" d="M16.232,16.833a.562.562,0,0,1,1.068,0l1.551,4.79a.569.569,0,0,0,.534.4h5.049a.564.564,0,0,1,.327,1.017L20.678,26a.569.569,0,0,0-.207.62l1.551,4.807a.557.557,0,0,1-.862.62l-4.066-2.964a.569.569,0,0,0-.655,0l-4.084,2.964a.569.569,0,0,1-.862-.62l1.551-4.807a.569.569,0,0,0-.19-.62L8.772,23.036A.569.569,0,0,1,9.116,22h5.031a.517.517,0,0,0,.517-.379l1.551-4.79Z" transform="translate(4.824 10.59)"/><g class="b" transform="translate(0 0)"><path class="c" d="M49.8,59.3,32.756,46.755a.567.567,0,0,1-.189-.257l-2.929-8.306a.58.58,0,0,1,.224-.672l11.372-7.375a.564.564,0,0,0-.344-1.034l-13.509.6a.566.566,0,0,1-.568-.4l-2.654-8.168a.564.564,0,0,1,0-.344L30.672.388a.561.561,0,0,1,1.067,0L38.58,21.719a.575.575,0,0,0,.552.4h22.8a.57.57,0,0,1,.327,1.035L43.871,36.417a.569.569,0,0,0-.207.62l7,21.642a.56.56,0,0,1-.533.734A.539.539,0,0,1,49.8,59.3ZM11.907,58.146,15.113,48.2a.546.546,0,0,1,.206-.275l6.893-4.912a.573.573,0,0,1,.654,0l5.394,3.792v.018a.568.568,0,0,1,.017.913L12.769,58.765a.558.558,0,0,1-.862-.62ZM8.633,29.335l-8.391-6.2A.569.569,0,0,1,.587,22.1h19.04a.573.573,0,0,1,.534.759l-2.154,6.2a.568.568,0,0,1-.534.379H8.961A.563.563,0,0,1,8.633,29.335Z"/><path class="d" d="M 47.37998580932617 55.03655624389648 L 41.74576568603516 37.60540390014648 C 41.44010543823242 36.57404327392578 41.81559753417969 35.45082473754883 42.68010711669922 34.81040573120117 L 42.70023727416992 34.79568481445312 L 57.49971008300781 24.11572456359863 L 39.13207626342773 24.11572456359863 C 38.02926635742188 24.11572456359863 37.07395553588867 23.44068336486816 36.69829559326172 22.39597320556641 L 36.67585754394531 22.32995414733887 L 31.20962715148926 5.28416633605957 L 26.20412063598633 20.97474098205566 L 28.37839126586914 27.6673641204834 L 40.82964706420898 27.11221313476562 C 40.85643768310547 27.11141395568848 40.88286590576172 27.11103439331055 40.90929412841797 27.11103439331055 C 42.06621551513672 27.11103439331055 43.06186676025391 27.85390472412109 43.38683700561523 28.95956420898438 C 43.70847320556641 30.0538387298584 43.27963256835938 31.20456314086914 42.3195915222168 31.82452392578125 L 31.89713096618652 38.58351898193359 L 34.30448913574219 45.41106796264648 L 47.37998580932617 55.03655624389648 M 15.14466571807861 54.62166213989258 L 25.46165084838867 47.28508377075195 L 22.54434013366699 45.23439025878906 L 16.86634063720703 49.28036499023438 L 15.14466571807861 54.62166213989258 M 16.45243453979492 27.43896484375 L 17.61276435852051 24.09814453125 L 4.913670063018799 24.09814453125 L 9.432969093322754 27.43896484375 L 16.45243453979492 27.43896484375 M 50.12670516967773 59.41357421875 C 50.01611709594727 59.41357421875 49.90209579467773 59.37890243530273 49.79833602905273 59.30029296875 L 32.75634765625 46.7548828125 C 32.67040634155273 46.689453125 32.60375595092773 46.59961318969727 32.56689453125 46.49756240844727 L 29.63818550109863 38.19140243530273 C 29.55126571655273 37.95068359375 29.63818550109863 37.67578506469727 29.86205673217773 37.51953506469727 L 41.23364639282227 30.14502334594727 C 41.71630859375 29.83447456359863 41.47582626342773 29.09427833557129 40.889404296875 29.11132431030273 L 27.3803768157959 29.71386337280273 C 27.12300491333008 29.72711563110352 26.88915824890137 29.56396484375 26.81201553344727 29.31884384155273 L 24.15844535827637 21.1508846282959 C 24.12255668640137 21.03906440734863 24.12255668640137 20.91845321655273 24.15844535827637 20.80664443969727 L 30.67236518859863 0.3876939713954926 C 30.843994140625 -0.1289082318544388 31.5671329498291 -0.1289038211107254 31.73974609375 0.3876939713954926 L 38.58032608032227 21.71923446655273 C 38.667236328125 21.96093368530273 38.87353515625 22.11572456359863 39.13207626342773 22.11572456359863 L 61.927734375 22.11572456359863 C 62.47924423217773 22.11572456359863 62.703125 22.80468368530273 62.255126953125 23.15039443969727 L 43.87060546875 36.41748428344727 C 43.67748641967773 36.56054306030273 43.59545516967773 36.80810546875 43.66332626342773 37.03711318969727 L 50.65942764282227 58.67920303344727 C 50.789794921875 59.07177352905273 50.474365234375 59.41357421875 50.12670516967773 59.41357421875 Z M 12.44409561157227 58.87256240844727 C 12.0949764251709 58.87256240844727 11.77685642242432 58.53808212280273 11.9074764251709 58.14551544189453 L 15.11254596710205 48.20215225219727 C 15.14721584320068 48.10009384155273 15.21630573272705 47.99658584594727 15.31884574890137 47.92724227905273 L 22.21166610717773 43.015625 C 22.40820693969727 42.87890625 22.67040634155273 42.87890625 22.86572647094727 43.015625 L 28.25952529907227 46.80713272094727 L 28.25952529907227 46.8251953125 C 28.406005859375 46.92871475219727 28.49438667297363 47.09668350219727 28.49780654907227 47.27685546875 C 28.50146675109863 47.45654296875 28.41918563842773 47.62793350219727 28.27612686157227 47.73779296875 L 12.76904582977295 58.76513290405273 C 12.66625595092773 58.83935546875 12.55371570587158 58.87256240844727 12.44409561157227 58.87256240844727 Z M 8.960696220397949 29.439453125 C 8.843996047973633 29.439453125 8.729986190795898 29.40380477905273 8.633305549621582 29.33496475219727 L 0.2426760196685791 23.13232421875 C 0.03662601485848427 22.98779487609863 -0.05029398575425148 22.72607421875 0.0292960163205862 22.48632431030273 C 0.1081559956073761 22.24804306030273 0.3356914818286896 22.08976554870605 0.5869160294532776 22.09814453125 L 19.62719535827637 22.09814453125 C 20.022705078125 22.09814453125 20.28124618530273 22.4946346282959 20.16088676452637 22.85742378234863 L 18.00659561157227 29.06005477905273 C 17.92675590515137 29.28613471984863 17.71362686157227 29.43798446655273 17.4729061126709 29.43896484375 L 8.977536201477051 29.43896484375 C 8.971925735473633 29.43896484375 8.966305732727051 29.439453125 8.960696220397949 29.439453125 Z"/></g></g></svg>