<svg xmlns="http://www.w3.org/2000/svg" width="60.001" height="70" viewBox="0 0 60.001 70"><defs><style>.a{fill:#fff;}.b{fill:#00c3e1;}</style></defs><g transform="translate(-1347.004 -473)"><g transform="translate(1347.004 473)"><path class="a" d="M15.925,16.817a.539.539,0,0,1,1.026,0l1.489,4.6a.546.546,0,0,0,.513.38H23.8a.542.542,0,0,1,.314.976l-3.921,2.845a.546.546,0,0,0-.2.6l1.489,4.615a.535.535,0,0,1-.827.6l-3.9-2.845a.546.546,0,0,0-.629,0L12.2,31.425a.546.546,0,0,1-.827-.6l1.489-4.615a.546.546,0,0,0-.182-.6L8.762,22.773a.546.546,0,0,1,.331-.993h4.831a.5.5,0,0,0,.5-.364l1.489-4.6Z" transform="translate(4.292 9.511)"/><path class="b" d="M47.811,56.933,31.449,44.889a.55.55,0,0,1-.182-.248l-2.812-7.974a.556.556,0,0,1,.213-.645l10.919-7.081a.542.542,0,0,0-.331-.993l-12.969.578a.546.546,0,0,1-.546-.379L23.2,20.305a.533.533,0,0,1,0-.331L29.449.372a.539.539,0,0,1,1.025,0l6.566,20.479a.555.555,0,0,0,.53.381H59.457a.547.547,0,0,1,.315.993L42.12,34.964a.545.545,0,0,0-.2.594l6.716,20.779a.537.537,0,0,1-.511.705A.52.52,0,0,1,47.811,56.933ZM11.433,55.824l3.077-9.546a.523.523,0,0,1,.2-.265L21.325,41.3a.544.544,0,0,1,.628,0l5.178,3.639v.016a.548.548,0,0,1,.018.877L12.26,56.418a.536.536,0,0,1-.827-.594ZM8.29,28.164.232,22.209a.551.551,0,0,1-.2-.62.545.545,0,0,1,.535-.373h18.28a.55.55,0,0,1,.514.728L17.289,27.9a.548.548,0,0,1-.514.365H8.606A.552.552,0,0,1,8.29,28.164Z"/></g><path class="b" d="M2,0H50a2,2,0,0,1,2,2V5a0,0,0,0,1,0,0H0A0,0,0,0,1,0,5V2A2,2,0,0,1,2,0Z" transform="translate(1351 538)"/><path class="b" d="M2,0H40a2,2,0,0,1,2,2V6a0,0,0,0,1,0,0H0A0,0,0,0,1,0,6V2A2,2,0,0,1,2,0Z" transform="translate(1356 531)"/></g></svg>