<svg xmlns="http://www.w3.org/2000/svg" width="62.495" height="59.413" viewBox="0 0 62.495 59.413"><defs><style>.a{fill:#fff;}.b{fill:#626dd4;}.c{fill:#6059d0;}</style></defs><g transform="translate(0)"><path class="a" d="M16.232,16.833a.562.562,0,0,1,1.068,0l1.551,4.79a.569.569,0,0,0,.534.4h5.049a.564.564,0,0,1,.327,1.017L20.678,26a.569.569,0,0,0-.207.62l1.551,4.807a.557.557,0,0,1-.862.62l-4.066-2.964a.569.569,0,0,0-.655,0l-4.084,2.964a.569.569,0,0,1-.862-.62l1.551-4.807a.569.569,0,0,0-.19-.62L8.772,23.036A.569.569,0,0,1,9.116,22h5.031a.517.517,0,0,0,.517-.379l1.551-4.79Z" transform="translate(4.825 10.59)"/><path class="b" d="M20.94,14.338l-2.154,6.2a.569.569,0,0,1-.534.379H9.758a.569.569,0,0,1-.345-.1l-8.391-6.2a.569.569,0,0,1,.345-1.034h19.04a.573.573,0,0,1,.534.758Z" transform="translate(-0.779 8.518)"/><path class="c" d="M24.055,47.562l-5.393-3.791a.569.569,0,0,0-.655,0l-6.892,4.911a.536.536,0,0,0-.207.276L7.7,58.9a.559.559,0,0,0,.862.62L24.072,48.493a.569.569,0,0,0-.017-.913Zm4.308-.31-2.929-8.305a.58.58,0,0,1,.224-.672L37.029,30.9a.564.564,0,0,0-.345-1.034l-13.509.6a.569.569,0,0,1-.569-.4l-2.654-8.167a.569.569,0,0,1,0-.345L26.467,1.143a.562.562,0,0,1,1.068,0l6.841,21.332a.574.574,0,0,0,.551.4h22.8a.569.569,0,0,1,.327,1.034L39.666,37.172a.569.569,0,0,0-.207.62l7,21.642a.557.557,0,0,1-.862.62L28.552,47.51a.569.569,0,0,1-.19-.258Z" transform="translate(4.205 -0.755)"/></g></svg>