<svg width="294" height="70" viewBox="0 0 294 70" fill="none" xmlns="http://www.w3.org/2000/svg">
<path d="M191.14 18.948H175.704V59H166.388V18.948H150.952V10.72H191.14V18.948ZM214.079 31.256C211.314 31.256 208.843 31.8 206.667 32.888C204.491 33.9307 202.927 35.4493 201.975 37.444V59H192.863V23.368H201.227V30.984C202.451 28.536 204.038 26.6093 205.987 25.204C207.982 23.7987 210.067 23.028 212.243 22.892C213.195 22.892 213.807 22.9147 214.079 22.96V31.256ZM235.219 59.68C231.366 59.68 228.034 58.8413 225.223 57.164C222.458 55.4867 220.304 53.2653 218.763 50.5C217.222 47.6893 216.451 44.652 216.451 41.388C216.451 38.0333 217.199 34.9507 218.695 32.14C220.236 29.284 222.412 27.0173 225.223 25.34C228.034 23.6173 231.388 22.756 235.287 22.756C239.186 22.756 242.518 23.6173 245.283 25.34C248.048 27.0173 250.156 29.2613 251.607 32.072C253.103 34.8373 253.851 37.8293 253.851 41.048C253.851 42.2267 253.783 43.2467 253.647 44.108H226.107C226.334 46.8733 227.354 49.0493 229.167 50.636C231.026 52.2227 233.156 53.016 235.559 53.016C237.372 53.016 239.072 52.5853 240.659 51.724C242.291 50.8173 243.402 49.6387 243.991 48.188L251.811 50.364C250.496 53.084 248.388 55.328 245.487 57.096C242.586 58.8187 239.163 59.68 235.219 59.68ZM225.903 38.328H244.535C244.263 35.6533 243.243 33.5 241.475 31.868C239.752 30.1907 237.644 29.352 235.151 29.352C232.703 29.352 230.595 30.1907 228.827 31.868C227.104 33.5 226.13 35.6533 225.903 38.328ZM283.746 59L273.342 43.632L268.514 48.392V59H259.402V9.36H268.514V39.416L282.862 23.436H292.518L279.258 38.532L293.47 59H283.746Z" fill="#00C3E1"/>
<path d="M125.076 32.4919C127.285 31.3874 129.793 30.8351 132.6 30.8351V22.4133C132.324 22.3672 131.703 22.3442 130.737 22.3442C128.527 22.4823 126.411 23.2647 124.386 24.6913C122.407 26.118 120.796 28.0739 119.553 30.559V22.8275H111.062V27.349V29.6098V30.7383V30.7402V30.9535C112.569 30.7383 115.712 30.9535 116.228 33.5363C116.874 36.7648 114.937 39.778 111.062 40.2085V40.9137V59H120.313V37.117C121.279 35.0921 122.867 33.5504 125.076 32.4919Z" fill="#00C3E1"/>
<path d="M46.0874 29.1368V49.9153L55.3376 46.8089V29.1368H62.9311V22.0265H55.3376V10.2911H46.0874V22.0265H41.3242V29.1368H46.0874Z" fill="#00C3E1"/>
<path d="M61.0696 57.9922C62.9104 57.4399 64.4522 56.8877 65.6947 56.3354L63.8309 49.0181L46.4922 52.9072C46.4922 53.3376 46.7074 53.9833 47.3323 55.0929C48.2067 56.3814 49.3572 57.3249 50.7839 57.9232C52.2105 58.5214 53.7753 58.8206 55.478 58.8206C57.4109 58.8206 59.2748 58.5444 61.0696 57.9922Z" fill="#00C3E1"/>
<path d="M30.1668 20.3902C31.5014 21.1266 32.3758 21.7248 32.79 22.185L37.0009 14.4535C34.884 13.0268 32.3528 11.7613 29.4075 10.6568C26.4621 9.55225 23.2867 9 19.8811 9C16.5676 9 13.5532 9.59827 10.838 10.7948C8.12272 11.9454 5.95973 13.6711 4.34899 15.9722C2.78428 18.2272 2.00192 21.0345 2.00192 24.3941C2.00192 26.9252 2.50815 29.0192 3.52061 30.6759C4.53308 32.2867 6.05177 33.6443 8.0767 34.7488C10.1476 35.8073 12.7478 36.7737 15.8773 37.6481C18.4084 38.3845 20.6174 39.0518 22.5043 39.65C24.4372 40.2483 25.9329 40.9847 26.9914 41.8591C28.0498 42.7335 28.5791 43.884 28.5791 45.3106C28.5791 48.6702 25.9559 50.3499 20.7095 50.3499C18.8686 50.3499 17.0508 50.1198 15.256 49.6596C13.4612 49.1994 11.8044 48.6472 10.2857 48.0029C8.76702 47.3126 7.47843 46.6453 6.41994 46.001C5.36146 45.3106 4.62512 44.7584 4.21093 44.3442L0 52.559C2.80729 54.5379 6.00575 56.1026 9.5954 57.2531C11.1705 57.6698 14.6321 58.4602 15.8773 58.2881L36.3742 52.692C38.0769 50.529 38.7267 47.8418 38.7267 44.3442C38.7267 41.3528 38.0824 38.9597 36.7938 37.1649C35.5513 35.3241 33.7335 33.8514 31.3404 32.7469C28.9933 31.6424 26.209 30.6759 22.9875 29.8476C20.5024 29.2033 18.4314 28.605 16.7747 28.0527C15.1179 27.5005 13.8754 26.8332 13.047 26.0508C12.2186 25.2685 11.8044 24.21 11.8044 22.8754C11.8044 19.1937 14.4046 17.3528 19.605 17.3528C21.5839 17.3528 23.4938 17.675 25.3346 18.3193C27.2215 18.9175 28.8322 19.6079 30.1668 20.3902Z" fill="#00C3E1"/>
<path d="M20.5681 58.9098C23.7896 58.9098 26.781 58.4266 29.5422 57.4601C30.9595 56.9641 32.2313 56.3165 33.3576 55.5173L17 58.7184L20.5681 58.9098Z" fill="#00C3E1"/>
<path d="M70.3759 41.4334C71.7105 39.6386 73.5513 38.258 75.8984 37.2915C78.2455 36.3251 80.9377 35.8419 83.9751 35.8419C85.4938 35.8419 87.0355 35.9799 88.6002 36.2561C89.7041 36.3311 90.7394 36.5322 91.9619 36.5484L92.1435 36.4957L92.6731 35.3586C92.6731 33.0576 91.9828 31.2858 90.6021 30.0432C89.2675 28.8006 87.2656 28.1793 84.5964 28.1793C82.6175 28.1793 80.7306 28.5245 78.9358 29.2148C77.141 29.9051 75.2541 30.9176 73.2752 32.2522L70.3068 26.1774C72.6999 24.6127 75.139 23.4392 77.6242 22.6568C80.1553 21.8745 82.8015 21.4833 85.5628 21.4833C90.7172 21.4833 94.721 22.7719 97.5743 25.349C100.512 27.725 100.943 29.2148 101.589 33.7515L92.1435 36.4957L92.1185 36.5495C92.0659 36.5495 92.0137 36.5491 91.9619 36.5484L69.7344 43.0064L70.3759 41.4334Z" fill="#00C3E1"/>
<path d="M102.409 50.0622C102.087 49.648 101.926 48.9347 101.926 47.9222L101.857 42.1454L92.336 44.0825L92.6754 46.2655C92.6754 47.2779 92.1001 48.3364 90.9496 49.4409C90.0752 50.2693 88.9707 50.9366 87.6361 51.4428C86.3475 51.9491 85.0129 52.2022 83.6323 52.2022C81.5613 52.2022 79.9736 51.6499 78.8691 50.5454C77.7646 49.4409 77.2123 48.1984 77.2123 46.8177L68.4453 48.3871C68.4453 50.5501 68.9746 51.696 70.033 53.4448C71.1375 55.1475 72.6332 56.5052 74.5201 57.5176C76.407 58.4841 78.57 58.9673 81.0091 58.9673C83.4482 58.9673 85.8183 58.4381 88.1193 57.3796C90.4664 56.2751 92.4453 54.6873 94.056 52.6164L94.2631 54.4802C94.4472 55.6768 95.0225 56.6892 95.9889 57.5176C96.9554 58.346 98.359 58.7602 100.2 58.7602C100.66 58.7602 101.212 58.7142 101.857 58.6221C102.547 58.5761 103.306 58.4611 104.135 58.277V50.7525C103.306 50.6605 102.731 50.4304 102.409 50.0622Z" fill="#00C3E1"/>
</svg>
