<svg width="400" height="400" viewBox="0 0 400 400" fill="none" xmlns="http://www.w3.org/2000/svg">
<g clip-path="url(#clip0)">
<rect width="400" height="400" fill="#230B51"/>
<path d="M134.632 354.752L67.8607 391.174C63.9424 393.31 60.421 395.936 57.1445 398.799C96.074 431.623 146.328 451.426 201.234 451.426C255.735 451.426 305.668 431.919 344.488 399.542C340.907 396.519 337.023 393.8 332.716 391.655L261.216 355.909C251.978 351.29 246.142 341.849 246.142 331.521V303.468C248.152 301.18 250.449 298.241 252.906 294.771C262.652 281.006 270.024 265.865 275.133 249.981C284.303 247.152 291.059 238.682 291.059 228.616V198.671C291.059 192.085 288.129 186.199 283.577 182.078V138.791C283.577 138.791 292.469 71.4286 201.243 71.4286C110.016 71.4286 118.908 138.791 118.908 138.791V182.078C114.348 186.199 111.426 192.085 111.426 198.671V228.616C111.426 236.503 115.572 243.444 121.779 247.456C129.261 280.026 148.853 303.468 148.853 303.468V330.829C148.844 340.793 143.389 349.973 134.632 354.752Z" fill="#8083E6"/>
</g>
<defs>
<clipPath id="clip0">
<rect width="400" height="400" fill="white"/>
</clipPath>
</defs>
</svg>
