<svg width="25" height="11" fill="none" xmlns="http://www.w3.org/2000/svg" viewBox="0 0 25 13"><path d="M5.86 7.523a2.539 2.539 0 100 5.079 2.539 2.539 0 000-5.079zm0 3.711a1.172 1.172 0 110-2.344 1.172 1.172 0 010 2.344zM19.922 7.523a2.54 2.54 0 100 5.08 2.54 2.54 0 000-5.08zm0 3.711a1.172 1.172 0 110-2.345 1.172 1.172 0 010 2.345z" fill="#fff"/><path d="M23.31 5.426l-4.56-.832-3.883-3.222a2.154 2.154 0 00-1.365-.49h-5.72a2.138 2.138 0 00-1.677.807l-2.48 2.905H1.953A1.76 1.76 0 00.195 6.352V8.5a2.15 2.15 0 002.149 2.148h.446a3.125 3.125 0 116.138 0h7.925a3.125 3.125 0 116.138 0h.056a1.76 1.76 0 001.758-1.757V7.164a1.748 1.748 0 00-1.494-1.738zM8.79 4.008a.586.586 0 01-.587.586H5.627a.293.293 0 01-.223-.484L7.11 2.113a.586.586 0 01.446-.205h.648a.586.586 0 01.586.586v1.514zm2.929 2.734h-.781a.586.586 0 010-1.172h.78a.586.586 0 010 1.172zm4.613-2.134l-5.591-.013a.586.586 0 01-.585-.586V2.494a.586.586 0 01.586-.586h2.81c.132 0 .26.045.363.126l2.6 2.051a.293.293 0 01-.183.523z" fill="#fff"/></svg>