<svg width="47"
  height="47"
  viewBox="0 0 47 47"
  xmlns="http://www.w3.org/2000/svg">
  <path d="M45.7949 38.1311L8.96088 1.29717C7.35445 -0.309262 4.75002 -0.309262 3.1461 1.29717L1.20482 3.23543C-0.401608 4.84236 -0.401608 7.44679 1.20482 9.05071L38.0388 45.8847C39.6457 47.4911 42.2502 47.4911 43.8541 45.8847L45.7923 43.9464C47.4018 42.3425 47.4018 39.7376 45.7949 38.1311V38.1311Z"
    fill="#8083E6" />
  <path d="M38.0388 1.29869L1.20482 38.1327C-0.401608 39.7391 -0.401608 42.344 1.20482 43.9479L3.14308 45.8862C4.75002 47.4926 7.35445 47.4926 8.95837 45.8862L45.7949 9.05474C47.4018 7.44831 47.4018 4.84388 45.7949 3.23996L43.8566 1.3017C42.2502 -0.307746 39.6457 -0.307746 38.0388 1.29869V1.29869Z"
    fill="#8083E6" />
</svg>