<svg width="25" height="28" viewBox="0 0 25 28" fill="none" xmlns="http://www.w3.org/2000/svg">
<path d="M18.8698 27.9943C18.4935 27.8689 18.1171 27.7246 17.8957 27.3715C17.7646 27.1632 17.6091 26.9249 17.5984 26.694C17.5614 25.8993 17.584 25.1021 17.584 24.2898H20.6738C20.6738 25.0996 20.724 25.9075 20.6575 26.7059C20.6073 27.3131 20.1883 27.7095 19.605 27.914C19.5385 27.9372 19.4745 27.9673 19.4093 27.9943H18.8698Z" fill="white"/>
<path d="M2.15442 27.9943C1.93677 27.8921 1.69904 27.8193 1.50647 27.6807C1.04858 27.3564 0.85351 26.891 0.855392 26.3321C0.859783 24.8493 0.855392 23.3665 0.855392 21.8837C0.855392 20.1763 0.859785 18.469 0.849749 16.7616C0.842215 16.6169 0.78481 16.4792 0.68729 16.3721C0.115869 15.7668 -0.121858 15.0768 0.0600438 14.2488C0.499116 12.2322 0.938191 10.2156 1.35531 8.19465C1.58551 7.08066 2.28614 6.47662 3.35246 6.23263C4.76314 5.91022 6.30052 6.75638 6.68941 8.10872C6.84999 8.66572 6.89829 9.2547 7.00806 9.82675C7.07078 10.1404 7.14229 10.4584 7.2232 10.7676C7.39883 11.4494 7.84041 11.891 8.49651 12.1162C8.83522 12.2322 9.18209 12.3244 9.53022 12.4104C9.5736 12.4176 9.61804 12.415 9.66028 12.4027C9.70251 12.3904 9.74145 12.3688 9.77421 12.3395C10.0251 12.0472 10.3425 11.9255 10.722 11.9054C11.4032 11.8684 12.0856 11.8364 12.763 11.758C13.7729 11.642 14.2277 11.2167 14.4428 10.2263C14.5808 9.58651 14.6937 8.94045 14.8192 8.29752C15.0174 7.27887 16.0937 6.31605 17.1274 6.19625C17.6399 6.13666 18.131 6.15736 18.6008 6.3794C18.8685 6.50068 19.1049 6.68167 19.2918 6.90848C19.4787 7.13528 19.6112 7.40189 19.6791 7.68784C20.3358 10.2595 20.9768 12.8369 21.6235 15.4124C21.6281 15.4297 21.6314 15.4473 21.6336 15.4651C21.6768 15.8452 21.7954 16.1337 22.1874 16.3369C22.4333 16.4624 22.5958 16.798 22.7344 17.0702C22.814 17.227 22.8768 17.2816 23.043 17.2797C23.6884 17.2722 24.3339 17.2797 25 17.2797V23.8269H16.1558V17.2816H16.869C17.3005 17.2816 17.7321 17.2878 18.163 17.2759C18.2395 17.2759 18.3562 17.217 18.3825 17.1549C18.6491 16.5276 18.7482 16.4128 19.4313 16.0534C19.2143 15.233 19.0104 14.3975 18.7714 13.5727C18.5249 12.7202 18.2477 11.8791 17.9742 11.0323C17.924 10.8893 17.8505 10.7555 17.7566 10.6365C17.7283 10.612 17.6947 10.5945 17.6583 10.5855C17.622 10.5766 17.5841 10.5764 17.5477 10.5851C17.5088 10.5958 17.4774 10.7011 17.4774 10.7645C17.4821 10.8448 17.5019 10.9236 17.5358 10.9966C18.1523 12.5145 18.567 14.092 18.9295 15.6859C18.9653 15.842 18.9113 15.9104 18.8041 16.0164C18.5626 16.2491 18.365 16.5232 18.1348 16.7691C18.0677 16.8419 17.9673 16.9284 17.8789 16.9322C17.0885 16.9661 16.4506 16.4843 16.2392 15.652C16.0323 14.8366 15.8742 14.0061 15.6935 13.1819C15.6753 13.0972 15.6503 13.0138 15.6208 12.9003C14.5965 13.8907 13.3069 14.0594 11.9991 14.1698C11.9304 14.1708 11.8633 14.1905 11.805 14.2269C11.7467 14.2632 11.6995 14.3149 11.6685 14.3762C11.4176 14.7807 11.0375 15.0034 10.5558 14.9357C9.42672 14.7795 8.29266 14.602 7.26335 14.077C6.78225 13.8311 6.34945 13.4911 5.8834 13.185C5.805 13.5419 5.71279 13.9534 5.62372 14.3655C5.5472 14.7168 5.47067 15.0674 5.40042 15.4193C5.25929 16.1293 4.86099 16.6449 4.21304 16.9567C4.0462 17.0369 4.00417 17.1317 4.00417 17.3048C4.00793 20.2165 4.00793 23.1279 4.00417 26.0392C4.00417 27.199 3.76456 27.5578 2.70263 27.9918L2.15442 27.9943ZM19.2011 17.264H21.9553C21.8161 16.8544 21.5407 16.7453 21.2233 16.9617C21.034 17.0916 20.8097 17.1611 20.5801 17.1611C20.3505 17.1611 20.1262 17.0916 19.9369 16.9617C19.6107 16.7465 19.3435 16.8494 19.2011 17.264Z" fill="white"/>
<path d="M15.3733 6.01185C14.7786 6.00972 14.1978 5.83116 13.7046 5.49878C13.2114 5.16639 12.8279 4.69513 12.6027 4.14467C12.3775 3.5942 12.3207 2.98928 12.4395 2.40651C12.5583 1.82373 12.8473 1.28932 13.27 0.870918C13.6927 0.45252 14.2301 0.168962 14.814 0.0561461C15.398 -0.0566696 16.0023 0.00633033 16.5504 0.237171C17.0985 0.468011 17.5659 0.856308 17.8932 1.3529C18.2205 1.84949 18.3931 2.43204 18.3891 3.02678C18.3872 3.42084 18.3077 3.81066 18.1551 4.17398C18.0025 4.53729 17.7798 4.86698 17.4997 5.14419C17.2197 5.42141 16.8877 5.64072 16.5229 5.78959C16.158 5.93847 15.7674 6.01399 15.3733 6.01185Z" fill="white"/>
<path d="M5.42371 6.01147C4.82895 6.0076 4.24871 5.82737 3.75643 5.49358C3.26415 5.15979 2.88196 4.68746 2.65824 4.13637C2.43452 3.58528 2.37933 2.98021 2.49964 2.39773C2.61996 1.81526 2.91038 1.28157 3.33414 0.864225C3.7579 0.446878 4.29595 0.164632 4.88019 0.0532131C5.46443 -0.0582059 6.0686 0.00621058 6.61621 0.238309C7.16383 0.470408 7.63027 0.859753 7.95651 1.35707C8.28275 1.85438 8.45411 2.4373 8.44891 3.03205C8.44662 3.42652 8.36647 3.81667 8.21307 4.1801C8.05966 4.54353 7.83601 4.8731 7.55495 5.14991C7.27389 5.42671 6.94095 5.64531 6.57522 5.79315C6.20949 5.941 5.81817 6.01519 5.42371 6.01147Z" fill="white"/>
<path d="M2.15442 27.9943C1.93677 27.8921 1.69904 27.8193 1.50647 27.6807C1.04858 27.3564 0.85351 26.891 0.855392 26.3321C0.859783 24.8493 0.855392 23.3665 0.855392 21.8837C0.855392 20.1763 0.859785 18.469 0.849749 16.7616C0.842215 16.6169 0.78481 16.4792 0.68729 16.3721C0.115869 15.7668 -0.121858 15.0768 0.0600438 14.2488C0.499116 12.2322 0.938191 10.2156 1.35531 8.19465C1.58551 7.08066 2.28614 6.47662 3.35246 6.23263C4.76314 5.91022 6.30052 6.75638 6.68941 8.10872C6.84999 8.66572 6.89829 9.2547 7.00806 9.82675C7.07078 10.1404 7.14229 10.4584 7.2232 10.7676C7.39883 11.4494 7.84041 11.891 8.49651 12.1162C8.83522 12.2322 9.18209 12.3244 9.53022 12.4104C9.5736 12.4176 9.61804 12.415 9.66028 12.4027C9.70251 12.3904 9.74145 12.3688 9.77421 12.3395C10.0251 12.0472 10.3425 11.9255 10.722 11.9054C11.4032 11.8684 12.0856 11.8364 12.763 11.758C13.7729 11.642 14.2277 11.2167 14.4428 10.2263C14.5808 9.58651 14.6937 8.94045 14.8192 8.29752C15.0174 7.27887 16.0937 6.31605 17.1274 6.19625C17.6399 6.13666 18.131 6.15736 18.6008 6.3794C18.8685 6.50068 19.1049 6.68167 19.2918 6.90848C19.4787 7.13528 19.6112 7.40189 19.6791 7.68784C20.3358 10.2595 20.9768 12.8369 21.6235 15.4124C21.6281 15.4297 21.6314 15.4473 21.6336 15.4651C21.6768 15.8452 21.7954 16.1337 22.1874 16.3369C22.4333 16.4624 22.5958 16.798 22.7344 17.0702C22.814 17.227 22.8768 17.2816 23.043 17.2797C23.6884 17.2722 24.3339 17.2797 25 17.2797V23.8269H16.1558V17.2816H16.869C17.3005 17.2816 17.7321 17.2878 18.163 17.2759C18.2395 17.2759 18.3562 17.217 18.3825 17.1549C18.6491 16.5276 18.7482 16.4128 19.4313 16.0534C19.2143 15.233 19.0104 14.3975 18.7714 13.5727C18.5249 12.7202 18.2477 11.8791 17.9742 11.0323C17.924 10.8893 17.8505 10.7555 17.7566 10.6365C17.7283 10.612 17.6947 10.5945 17.6583 10.5855C17.622 10.5766 17.5841 10.5764 17.5477 10.5851C17.5088 10.5958 17.4774 10.7011 17.4774 10.7645C17.4821 10.8448 17.5019 10.9236 17.5358 10.9966C18.1523 12.5145 18.567 14.092 18.9295 15.6859C18.9653 15.842 18.9113 15.9104 18.8041 16.0164C18.5626 16.2491 18.365 16.5232 18.1348 16.7691C18.0677 16.8419 17.9673 16.9284 17.8789 16.9322C17.0885 16.9661 16.4506 16.4843 16.2392 15.652C16.0323 14.8366 15.8742 14.0061 15.6935 13.1819C15.6753 13.0972 15.6503 13.0138 15.6208 12.9003C14.5965 13.8907 13.3069 14.0594 11.9991 14.1698C11.9304 14.1708 11.8633 14.1905 11.805 14.2269C11.7467 14.2632 11.6995 14.3149 11.6685 14.3762C11.4176 14.7807 11.0375 15.0034 10.5558 14.9357C9.42672 14.7795 8.29266 14.602 7.26335 14.077C6.78225 13.8311 6.34945 13.4911 5.8834 13.185C5.805 13.5419 5.71279 13.9534 5.62372 14.3655C5.5472 14.7168 5.47067 15.0674 5.40042 15.4193C5.25929 16.1293 4.86099 16.6449 4.21304 16.9567C4.0462 17.0369 4.00417 17.1317 4.00417 17.3048C4.00793 20.2165 4.00793 23.1279 4.00417 26.0392C4.00417 27.199 3.76456 27.5578 2.70263 27.9918L2.15442 27.9943ZM19.2011 17.264H21.9553C21.8161 16.8544 21.5407 16.7453 21.2233 16.9617C21.034 17.0916 20.8097 17.1611 20.5801 17.1611C20.3505 17.1611 20.1262 17.0916 19.9369 16.9617C19.6107 16.7465 19.3435 16.8494 19.2011 17.264Z" fill="white"/>
<path d="M15.3733 6.01185C14.7786 6.00972 14.1978 5.83116 13.7046 5.49878C13.2114 5.16639 12.8279 4.69513 12.6027 4.14467C12.3775 3.5942 12.3207 2.98928 12.4395 2.40651C12.5583 1.82373 12.8473 1.28932 13.27 0.870918C13.6927 0.45252 14.2301 0.168962 14.814 0.0561461C15.398 -0.0566696 16.0023 0.00633033 16.5504 0.237171C17.0985 0.468011 17.5659 0.856308 17.8932 1.3529C18.2205 1.84949 18.3931 2.43204 18.3891 3.02678C18.3872 3.42084 18.3077 3.81066 18.1551 4.17398C18.0025 4.53729 17.7798 4.86698 17.4997 5.14419C17.2197 5.42141 16.8877 5.64072 16.5229 5.78959C16.158 5.93847 15.7674 6.01399 15.3733 6.01185Z" fill="white"/>
<path d="M5.42371 6.01147C4.82895 6.0076 4.24871 5.82737 3.75643 5.49358C3.26415 5.15979 2.88196 4.68746 2.65824 4.13637C2.43452 3.58528 2.37933 2.98021 2.49964 2.39773C2.61996 1.81526 2.91038 1.28157 3.33414 0.864225C3.7579 0.446878 4.29595 0.164632 4.88019 0.0532131C5.46443 -0.0582059 6.0686 0.00621058 6.61621 0.238309C7.16383 0.470408 7.63027 0.859753 7.95651 1.35707C8.28275 1.85438 8.45411 2.4373 8.44891 3.03205C8.44662 3.42652 8.36647 3.81667 8.21307 4.1801C8.05966 4.54353 7.83601 4.8731 7.55495 5.14991C7.27389 5.42671 6.94095 5.64531 6.57522 5.79315C6.20949 5.941 5.81817 6.01519 5.42371 6.01147Z" fill="white"/>
</svg>
