<svg width="345" height="75" viewBox="0 0 345 75" fill="none" xmlns="http://www.w3.org/2000/svg">
<path d="M4.624 59V10.72H15.776V49.208H39.168V59H4.624ZM43.1773 46.148V23.3H54.0573V43.768C54.0573 48.256 55.712 50.5 59.0213 50.5C60.472 50.5 61.8773 50.1147 63.2373 49.344C64.5973 48.528 65.7987 47.1907 66.8413 45.332V23.3H77.7213V46.896C77.7213 47.984 77.88 48.7547 78.1973 49.208C78.56 49.6613 79.172 49.9107 80.0333 49.956V59C78.9907 59.1813 78.1067 59.3173 77.3813 59.408C76.656 59.4987 75.9987 59.544 75.4093 59.544C71.5107 59.544 69.2893 58.0253 68.7453 54.988L68.5413 52.812C66.9093 55.1693 64.8693 56.9147 62.4213 58.048C60.0187 59.136 57.3213 59.68 54.3293 59.68C50.7027 59.68 47.9373 58.524 46.0333 56.212C44.1293 53.9 43.1773 50.5453 43.1773 46.148ZM103.218 59.68C99.2288 59.68 95.7835 58.8187 92.8822 57.096C90.0262 55.3733 87.8275 53.1067 86.2862 50.296C84.7902 47.4853 84.0422 44.4253 84.0422 41.116C84.0422 37.852 84.7902 34.8147 86.2862 32.004C87.8275 29.1933 90.0262 26.9267 92.8822 25.204C95.7382 23.4813 99.1835 22.62 103.218 22.62C107.298 22.62 110.743 23.504 113.554 25.272C116.41 26.9947 118.541 29.2613 119.946 32.072L109.338 35.268C107.933 33.0013 105.87 31.868 103.15 31.868C100.929 31.868 99.0475 32.7067 97.5062 34.384C95.9648 36.0613 95.1942 38.3053 95.1942 41.116C95.1942 43.9267 95.9648 46.1933 97.5062 47.916C99.0475 49.6387 100.929 50.5 103.15 50.5C104.51 50.5 105.757 50.1827 106.89 49.548C108.023 48.868 108.862 48.0067 109.406 46.964L120.014 50.228C118.699 52.9933 116.591 55.26 113.69 57.028C110.834 58.796 107.343 59.68 103.218 59.68ZM148.935 59L139.619 44.72L135.811 48.596V59H124.931V9.36H135.811V38.056L147.915 23.3H159.407L146.555 38.668L160.495 59H148.935ZM163.918 64.372C165.777 64.9613 167.341 65.256 168.61 65.256C169.88 65.256 170.877 64.8027 171.602 63.896C172.373 62.9893 173.053 61.3573 173.642 59L160.042 23.3H171.262L179.558 47.848L186.63 23.3H196.898L183.298 64.78C182.346 67.7267 180.624 70.1067 178.13 71.92C175.682 73.7787 172.804 74.708 169.494 74.708C167.59 74.708 165.732 74.368 163.918 73.688V64.372Z" fill="#00C3E1"/>
<path d="M337.074 32.4919C339.283 31.3874 341.791 30.8351 344.598 30.8351V22.4133C344.322 22.3672 343.701 22.3442 342.735 22.3442C340.526 22.4823 338.409 23.2647 336.384 24.6913C334.405 26.118 332.794 28.0739 331.551 30.559V22.8275H323.061V27.349V29.6098V30.7383V30.7402V30.9535C324.567 30.7383 327.71 30.9535 328.226 33.5363C328.872 36.7648 326.935 39.778 323.061 40.2085V40.9137V59H332.311V37.117C333.277 35.0921 334.865 33.5504 337.074 32.4919Z" fill="#00C3E1"/>
<path d="M258.087 29.1368V49.9153L267.338 46.8089V29.1368H274.931V22.0265H267.338V10.2911H258.087V22.0265H253.324V29.1368H258.087Z" fill="#00C3E1"/>
<path d="M273.068 57.9922C274.908 57.4399 276.45 56.8877 277.693 56.3354L275.829 49.0181L258.49 52.9072C258.49 53.3376 258.705 53.9833 259.33 55.0929C260.205 56.3814 261.355 57.3249 262.782 57.9232C264.209 58.5214 265.773 58.8206 267.476 58.8206C269.409 58.8206 271.273 58.5444 273.068 57.9922Z" fill="#00C3E1"/>
<path d="M242.167 20.3902C243.501 21.1266 244.376 21.7248 244.79 22.185L249.001 14.4535C246.884 13.0268 244.353 11.7613 241.407 10.6568C238.462 9.55225 235.287 9 231.881 9C228.568 9 225.553 9.59827 222.838 10.7948C220.123 11.9454 217.96 13.6711 216.349 15.9722C214.784 18.2272 214.002 21.0345 214.002 24.3941C214.002 26.9252 214.508 29.0192 215.521 30.6759C216.533 32.2867 218.052 33.6443 220.077 34.7488C222.148 35.8073 224.748 36.7737 227.877 37.6481C230.408 38.3845 232.617 39.0518 234.504 39.65C236.437 40.2483 237.933 40.9847 238.991 41.8591C240.05 42.7335 240.579 43.884 240.579 45.3106C240.579 48.6702 237.956 50.3499 232.709 50.3499C230.869 50.3499 229.051 50.1198 227.256 49.6596C225.461 49.1994 223.804 48.6472 222.286 48.0029C220.767 47.3126 219.478 46.6453 218.42 46.001C217.361 45.3106 216.625 44.7584 216.211 44.3442L212 52.559C214.807 54.5379 218.006 56.1026 221.595 57.2531C223.171 57.6698 226.632 58.4602 227.877 58.2881L248.374 52.692C250.077 50.529 250.727 47.8418 250.727 44.3442C250.727 41.3528 250.082 38.9597 248.794 37.1649C247.551 35.3241 245.733 33.8514 243.34 32.7469C240.993 31.6424 238.209 30.6759 234.988 29.8476C232.502 29.2033 230.431 28.605 228.775 28.0527C227.118 27.5005 225.875 26.8332 225.047 26.0508C224.219 25.2685 223.804 24.21 223.804 22.8754C223.804 19.1937 226.405 17.3528 231.605 17.3528C233.584 17.3528 235.494 17.675 237.335 18.3193C239.221 18.9175 240.832 19.6079 242.167 20.3902Z" fill="#00C3E1"/>
<path d="M232.568 58.9098C235.79 58.9098 238.781 58.4266 241.542 57.4601C242.96 56.9641 244.231 56.3165 245.358 55.5173L229 58.7184L232.568 58.9098Z" fill="#00C3E1"/>
<path d="M282.374 41.4334C283.709 39.6386 285.549 38.258 287.896 37.2915C290.244 36.3251 292.936 35.8419 295.973 35.8419C297.492 35.8419 299.034 35.9799 300.598 36.2561C301.702 36.3311 302.737 36.5322 303.96 36.5484L304.142 36.4957L304.671 35.3586C304.671 33.0576 303.981 31.2858 302.6 30.0432C301.266 28.8006 299.264 28.1793 296.594 28.1793C294.616 28.1793 292.729 28.5245 290.934 29.2148C289.139 29.9051 287.252 30.9176 285.273 32.2522L282.305 26.1774C284.698 24.6127 287.137 23.4392 289.622 22.6568C292.153 21.8745 294.8 21.4833 297.561 21.4833C302.715 21.4833 306.719 22.7719 309.572 25.349C312.511 27.725 312.941 29.2148 313.587 33.7515L304.142 36.4957L304.116 36.5495C304.064 36.5495 304.012 36.5491 303.96 36.5484L281.732 43.0064L282.374 41.4334Z" fill="#00C3E1"/>
<path d="M314.407 50.0622C314.085 49.648 313.924 48.9347 313.924 47.9222L313.855 42.1454L304.334 44.0825L304.673 46.2655C304.673 47.2779 304.098 48.3364 302.948 49.4409C302.073 50.2693 300.969 50.9366 299.634 51.4428C298.346 51.9491 297.011 52.2022 295.63 52.2022C293.559 52.2022 291.972 51.6499 290.867 50.5454C289.763 49.4409 289.21 48.1984 289.21 46.8177L280.443 48.3871C280.443 50.5501 280.973 51.696 282.031 53.4448C283.136 55.1475 284.631 56.5052 286.518 57.5176C288.405 58.4841 290.568 58.9673 293.007 58.9673C295.446 58.9673 297.816 58.4381 300.117 57.3796C302.464 56.2751 304.443 54.6873 306.054 52.6164L306.261 54.4802C306.445 55.6768 307.021 56.6892 307.987 57.5176C308.953 58.346 310.357 58.7602 312.198 58.7602C312.658 58.7602 313.21 58.7142 313.855 58.6221C314.545 58.5761 315.304 58.4611 316.133 58.277V50.7525C315.304 50.6605 314.729 50.4304 314.407 50.0622Z" fill="#00C3E1"/>
</svg>
