<svg width="24" height="24" viewBox="0 0 24 24" fill="none" xmlns="http://www.w3.org/2000/svg">
<path d="M19.9144 12.7551C18.1445 12.1773 16.0153 12.0221 14.4218 12.0023V11.9977C16.0153 11.9779 18.1446 11.8227 19.9144 11.2449C20.7675 11.057 21.6189 10.601 22.3289 9.89106C24.0271 8.19283 24.2714 5.68383 22.8745 4.28694C22.2764 3.68884 21.4744 3.39161 20.6194 3.38059C20.6084 2.52564 20.3112 1.72355 19.7131 1.12545C18.3162 -0.271441 15.8071 -0.0271323 14.1089 1.67109C13.399 2.38102 12.9431 3.23272 12.7551 4.08559C12.1773 5.85547 12.0221 7.98473 12.0023 9.57819H11.9977C11.9779 7.98473 11.8227 5.85537 11.2449 4.08559C11.057 3.23247 10.601 2.38102 9.89106 1.67109C8.19288 -0.0271323 5.68383 -0.271441 4.28694 1.12545C3.68884 1.72355 3.39161 2.52564 3.38059 3.38059C2.52559 3.39161 1.72355 3.68884 1.12545 4.28694C-0.271441 5.68383 -0.0271323 8.19283 1.67109 9.89106C2.38107 10.601 3.23272 11.0568 4.08559 11.2449C5.85547 11.8227 7.98473 11.9779 9.57819 11.9977V12.0023C7.98473 12.0221 5.85542 12.1773 4.08559 12.7551C3.23247 12.943 2.38107 13.399 1.67109 14.1089C-0.0271323 15.8072 -0.271441 18.3162 1.12545 19.7131C1.72355 20.3112 2.52559 20.6084 3.38059 20.6194C3.39161 21.4744 3.68884 22.2764 4.28694 22.8745C5.68383 24.2714 8.19288 24.0273 9.89106 22.3289C10.601 21.619 11.0569 20.7673 11.2449 19.9144C11.8227 18.1445 11.9779 16.0153 11.9977 14.4218H12.0023C12.0221 16.0153 12.1773 18.1446 12.7551 19.9144C12.943 20.7675 13.399 21.619 14.1089 22.3289C15.8071 24.0271 18.3162 24.2714 19.7131 22.8745C20.3112 22.2764 20.6084 21.4744 20.6194 20.6194C21.4744 20.6084 22.2764 20.3112 22.8745 19.7131C24.2714 18.3162 24.0273 15.8072 22.3289 14.1089C21.6189 13.399 20.7673 12.9432 19.9144 12.7551Z" fill="white"/>
</svg>
