<svg width="100" height="93" viewBox="0 0 100 93" fill="none" xmlns="http://www.w3.org/2000/svg">
<path d="M80.0461 38.091C83.0532 37.5861 88.0751 37.4023 92.4899 40.5644L88.6824 42.2786C88.6824 42.2786 94.1149 43.7561 97.7365 46.5706C93.758 48.883 88.1877 49.6068 88.1877 49.6068L91.7304 51.8172C86.9307 54.3573 81.979 53.5003 79.067 52.5959L70.0377 45.7912L80.0461 38.091Z" fill="#8083E6"/>
<path d="M34.4248 33.3249C14.3233 34.128 4.51689 41.2257 1.42586 44.0031C1.09271 44.3005 0.884257 44.7038 0.845455 45.1261C0.806654 45.5484 0.940613 45.9559 1.21845 46.2606C3.79465 49.1191 12.2607 56.4509 32.1663 57.7704C32.1663 57.7704 43.9699 58.5818 55.926 53.3103L56.6175 45.8456L57.309 38.3808C46.3501 32.8154 34.4248 33.3249 34.4248 33.3249Z" fill="white"/>
<path d="M62.66 41.108L61.6562 50.9188L57.7171 50.2636L58.608 41.6617L62.66 41.108Z" fill="white"/>
<path d="M55.1525 39.8731L54.0488 51.7676L58.8116 51.8286L59.9153 39.9341L55.1525 39.8731Z" fill="#5430BF"/>
<path d="M38.1211 54.937L47.0765 62.581C47.6568 63.0732 48.3441 63.4383 49.0965 63.6541C49.8489 63.8699 50.6508 63.932 51.4533 63.8365L67.6469 61.8961C67.8334 61.8738 68.0157 61.8124 68.1809 61.7163C68.346 61.6201 68.4899 61.4915 68.6024 61.3397C68.7149 61.1878 68.7932 61.0164 68.8318 60.8376C68.8703 60.6588 68.8682 60.477 68.8255 60.3051V60.3051C68.7694 60.0817 68.6466 59.8836 68.4718 59.7342C68.297 59.5848 68.0774 59.4905 67.8393 59.4625C64.7033 59.0772 53.1461 57.2737 50.3375 51.0596L38.1211 54.937Z" fill="#3F0A9A"/>
<path d="M39.8725 36.0589L50.2401 28.6749C50.9101 28.1981 51.6636 27.8511 52.4545 27.6552C53.2454 27.4593 54.0571 27.4185 54.84 27.5354L70.6342 29.8824C70.8153 29.9102 70.9848 29.9765 71.1308 30.0768C71.2768 30.1771 71.3957 30.3088 71.4792 30.4628C71.5627 30.6167 71.6087 30.7891 71.614 30.9678C71.6193 31.1465 71.5838 31.3271 71.5099 31.497V31.497C71.4124 31.7181 71.2533 31.9126 71.0515 32.0573C70.8498 32.202 70.6136 32.291 70.371 32.3138C67.1633 32.6171 55.3066 34.1233 51.3556 40.2465L39.8725 36.0589Z" fill="#3F0A9A"/>
<path d="M71.6695 45.1324L71.5328 46.7178C71.5256 46.8042 71.5009 46.8898 71.46 46.9695C71.4191 47.0492 71.3628 47.1215 71.2944 47.1822C71.226 47.2429 71.1469 47.2908 71.0616 47.3232C70.9763 47.3556 70.8864 47.3719 70.7972 47.371L42.1034 47.5775C41.9922 47.5788 41.8835 47.5586 41.7838 47.518C41.6841 47.4774 41.5953 47.4174 41.5228 47.3413C41.4502 47.2652 41.3953 47.1746 41.3612 47.075C41.3272 46.9753 41.3147 46.8685 41.3245 46.7609L41.5552 44.3239C41.5648 44.2166 41.5964 44.1107 41.6482 44.0123C41.7001 43.9139 41.7711 43.825 41.857 43.7509C41.943 43.6769 42.0422 43.6191 42.1488 43.5811C42.2553 43.5431 42.3671 43.5255 42.4774 43.5295L71.0646 44.4696C71.2411 44.4758 71.4029 44.5484 71.5158 44.6721C71.6287 44.7958 71.6838 44.9609 71.6695 45.1324V45.1324Z" fill="#6663D7"/>
<path d="M34.173 44.1813C33.7708 40.7249 30.5097 38.4535 26.8891 39.108C23.2685 39.7626 20.6595 43.0952 21.0617 46.5516C21.464 50.0081 24.7251 52.2795 28.3457 51.6249C31.9663 50.9704 34.5753 47.6378 34.173 44.1813Z" fill="#3F0A9A"/>
<path d="M28.0146 41.1771C28.8562 41.1888 29.6561 41.4421 30.3134 41.9051C30.9706 42.368 31.4556 43.0198 31.7071 43.7781C31.9586 44.5363 31.9653 45.367 31.7263 46.1651C31.4873 46.9632 31.0134 47.6929 30.3645 48.262C29.7155 48.8311 28.9207 49.214 28.0804 49.3624C27.2401 49.5107 26.3921 49.4178 25.6435 49.0955C24.895 48.7732 24.2795 48.2358 23.8749 47.5513C23.4702 46.8669 23.2946 46.066 23.3702 45.2501C23.4204 44.7077 23.5804 44.172 23.8411 43.6737C24.1018 43.1753 24.458 42.7241 24.8893 42.3458C25.3207 41.9676 25.8187 41.6696 26.355 41.4691C26.8912 41.2686 27.4552 41.1693 28.0146 41.1771V41.1771Z" fill="#7679EA"/>
</svg>
