<svg width="27" height="25" fill="none" xmlns="http://www.w3.org/2000/svg"><path d="M17.549 21.951c5.21 0 9.451-4.24 9.451-9.451s-4.24-9.452-9.451-9.452a9.403 9.403 0 00-8.797 5.995.645.645 0 001.2.471 8.12 8.12 0 017.597-5.177c4.5 0 8.162 3.662 8.162 8.163 0 4.5-3.662 8.163-8.162 8.163a8.121 8.121 0 01-7.598-5.176.645.645 0 00-1.2.471 9.403 9.403 0 008.798 5.993z" fill="#fff"/><path d="M14.103 12.91H1.644a.645.645 0 010-1.288h12.46a.645.645 0 010 1.289z" fill="#fff"/><path d="M5.081 16.348a.64.64 0 01-.455-.19l-3.437-3.436a.645.645 0 010-.912l3.437-3.437a.645.645 0 01.912.912l-2.982 2.982 2.982 2.981a.645.645 0 01-.457 1.1z" fill="#fff"/></svg>