<svg width="241" height="163" viewBox="0 0 241 163" fill="none" xmlns="http://www.w3.org/2000/svg">
<path d="M193.404 130.25C196.061 128.922 199.077 128.258 202.453 128.258V118.13C202.121 118.075 201.374 118.047 200.211 118.047C197.555 118.213 195.009 119.154 192.574 120.869C190.195 122.585 188.258 124.937 186.763 127.926V118.628H176.553V124.065V126.784V128.141V128.143V128.4C178.364 128.141 182.143 128.4 182.764 131.506C183.541 135.388 181.212 139.012 176.553 139.529V140.378V162.127H187.676V135.812C188.839 133.377 190.748 131.523 193.404 130.25Z" fill="white"/>
<path d="M98.4212 126.215V151.202L109.545 147.467V126.215H118.676V117.665H109.545V103.553H98.4212V117.665H92.6934V126.215H98.4212Z" fill="white"/>
<path d="M116.436 160.915C118.65 160.251 120.504 159.587 121.998 158.923L119.757 150.123L98.9062 154.8C98.9062 155.318 99.1651 156.094 99.9165 157.428C100.968 158.978 102.352 160.112 104.067 160.832C105.783 161.551 107.664 161.911 109.712 161.911C112.036 161.911 114.278 161.579 116.436 160.915Z" fill="white"/>
<path d="M79.2766 115.697C80.8815 116.583 81.933 117.302 82.4311 117.855L87.4949 108.558C84.9491 106.842 81.9053 105.321 78.3635 103.992C74.8216 102.664 71.003 102 66.9077 102C62.9231 102 59.2982 102.719 56.033 104.158C52.7678 105.542 50.1668 107.617 48.2298 110.384C46.3482 113.096 45.4074 116.472 45.4074 120.512C45.4074 123.556 46.0161 126.074 47.2337 128.066C48.4512 130.003 50.2775 131.636 52.7125 132.964C55.2029 134.237 58.3297 135.399 62.0929 136.45C65.1368 137.336 67.7932 138.138 70.0622 138.858C72.3865 139.577 74.1851 140.463 75.458 141.514C76.7309 142.566 77.3673 143.949 77.3673 145.665C77.3673 149.705 74.2128 151.725 67.9038 151.725C65.6902 151.725 63.5042 151.448 61.3458 150.895C59.1875 150.341 57.1952 149.677 55.3689 148.902C53.5426 148.072 51.9931 147.27 50.7202 146.495C49.4473 145.665 48.5619 145.001 48.0638 144.503L43 154.381C46.3759 156.761 50.2221 158.642 54.5388 160.026C56.4329 160.527 60.5956 161.478 62.0929 161.271L86.7411 154.541C88.7888 151.94 89.5702 148.709 89.5702 144.503C89.5702 140.905 88.7954 138.028 87.2458 135.869C85.7516 133.656 83.5656 131.885 80.6878 130.556C77.8654 129.228 74.5172 128.066 70.6433 127.07C67.6548 126.295 65.1644 125.576 63.1721 124.912C61.1798 124.247 59.6856 123.445 58.6894 122.504C57.6933 121.563 57.1952 120.29 57.1952 118.686C57.1952 114.258 60.322 112.045 66.5756 112.045C68.9553 112.045 71.252 112.432 73.4657 113.207C75.7347 113.926 77.6717 114.756 79.2766 115.697Z" fill="white"/>
<path d="M67.7381 162.019C71.612 162.019 75.2092 161.437 78.5297 160.275C80.2341 159.679 81.7634 158.9 83.1178 157.939L63.4473 161.788L67.7381 162.019Z" fill="white"/>
<path d="M127.631 141.002C129.236 138.844 131.449 137.184 134.272 136.022C137.094 134.86 140.332 134.278 143.984 134.278C145.811 134.278 147.665 134.444 149.546 134.777C150.874 134.867 152.119 135.109 153.589 135.128L153.807 135.065L154.444 133.697C154.444 130.93 153.614 128.8 151.954 127.305C150.349 125.811 147.941 125.064 144.731 125.064C142.352 125.064 140.083 125.479 137.924 126.309C135.766 127.139 133.497 128.357 131.117 129.962L127.548 122.657C130.426 120.775 133.359 119.364 136.347 118.423C139.391 117.482 142.573 117.012 145.894 117.012C152.092 117.012 156.907 118.561 160.338 121.661C163.871 124.518 164.389 126.309 165.165 131.765L153.807 135.065L153.777 135.129C153.714 135.129 153.651 135.129 153.589 135.128L126.859 142.894L127.631 141.002Z" fill="white"/>
<path d="M166.149 151.379C165.762 150.881 165.568 150.023 165.568 148.806L165.485 141.859L154.036 144.188L154.444 146.813C154.444 148.031 153.752 149.304 152.369 150.632C151.317 151.628 149.989 152.431 148.384 153.039C146.835 153.648 145.23 153.952 143.569 153.952C141.079 153.952 139.17 153.288 137.842 151.96C136.513 150.632 135.849 149.138 135.849 147.477L125.307 149.365C125.307 151.966 125.943 153.344 127.216 155.447C128.544 157.494 130.343 159.127 132.612 160.344C134.881 161.507 137.482 162.088 140.415 162.088C143.348 162.088 146.198 161.451 148.965 160.178C151.788 158.85 154.167 156.941 156.104 154.451L156.353 156.692C156.575 158.131 157.267 159.348 158.429 160.344C159.591 161.341 161.279 161.839 163.493 161.839C164.046 161.839 164.71 161.783 165.485 161.673C166.315 161.617 167.228 161.479 168.224 161.258V152.209C167.228 152.098 166.536 151.822 166.149 151.379Z" fill="white"/>
<path d="M42.0036 28.7145C41.4965 28.1511 40.426 27.4186 38.7921 26.5171C37.1581 25.5593 35.1861 24.7142 32.8761 23.9817C30.6223 23.1929 28.2841 22.7985 25.8614 22.7985C19.4946 22.7985 16.3113 25.0522 16.3113 29.5597C16.3113 31.1936 16.8183 32.4895 17.8325 33.4473C18.8467 34.4051 20.3679 35.2221 22.3963 35.8982C24.4246 36.5743 26.9601 37.3068 30.0026 38.0956C33.9466 39.1098 37.3553 40.293 40.2288 41.6452C43.1586 42.9974 45.3842 44.8004 46.9054 47.0541C48.483 49.2515 49.2718 52.1813 49.2718 55.8436C49.2718 60.1257 48.2295 63.5907 46.1448 66.2389C44.1165 68.8306 41.412 70.7181 38.0314 71.9013C34.6509 73.0845 30.9886 73.6761 27.0446 73.6761C22.5371 73.6761 18.0579 73 13.6068 71.6478C9.21206 70.2392 5.29623 68.3235 1.85931 65.9008L7.01469 55.8436C7.52177 56.3507 8.42326 57.0268 9.71914 57.8719C11.015 58.6607 12.5926 59.4777 14.4519 60.3229C16.3113 61.1117 18.3396 61.7878 20.537 62.3512C22.7343 62.9146 24.9599 63.1963 27.2136 63.1963C33.6367 63.1963 36.8482 61.1398 36.8482 57.0268C36.8482 55.2802 36.2003 53.8716 34.9044 52.8011C33.6085 51.7306 31.7774 50.8291 29.411 50.0966C27.1009 49.3642 24.3965 48.5472 21.2976 47.6457C17.4663 46.5752 14.2829 45.392 11.7475 44.0961C9.2684 42.7439 7.40909 41.0818 6.16954 39.1098C4.93 37.0814 4.31023 34.5178 4.31023 31.419C4.31023 27.3059 5.26806 23.869 7.18371 21.1082C9.15571 18.2911 11.8038 16.1782 15.1281 14.7697C18.4523 13.3047 22.1427 12.5723 26.1994 12.5723C30.3688 12.5723 34.2565 13.2484 37.8624 14.6006C41.4683 15.9529 44.5672 17.5023 47.159 19.2489L42.0036 28.7145ZM56.3162 56.4352V28.7145H67.6411V53.9843C67.6411 60.8018 70.092 64.2105 74.9939 64.2105C77.1912 64.2105 79.3041 63.5626 81.3324 62.2667C83.4171 60.9145 85.1074 58.8861 86.4033 56.1817V28.7145H97.7282V60.3229C97.7282 61.5624 97.9254 62.4357 98.3198 62.9428C98.7142 63.3935 99.4185 63.6753 100.433 63.7879V73C99.3058 73.2254 98.348 73.3662 97.5592 73.4226C96.8267 73.4789 96.1506 73.5071 95.5308 73.5071C93.5025 73.5071 91.8404 73.0563 90.5445 72.1549C89.305 71.197 88.5725 69.9011 88.3471 68.2672L88.0936 64.7176C86.1216 67.7601 83.5862 70.042 80.4873 71.5633C77.3884 73.0845 73.9797 73.8451 70.2611 73.8451C65.6973 73.8451 62.2322 72.3802 59.8658 69.4504C57.4994 66.4642 56.3162 62.1258 56.3162 56.4352ZM135.52 73.8451C132.027 73.8451 128.984 73.0563 126.392 71.4787C123.801 69.9011 121.772 67.8165 120.307 65.2247V91.0015H108.982V28.7145H118.871V36.3208C120.505 33.729 122.617 31.7007 125.209 30.2358C127.857 28.7145 130.844 27.9539 134.168 27.9539C138.168 27.9539 141.718 28.9962 144.817 31.0809C147.915 33.1093 150.366 35.8701 152.169 39.3633C153.972 42.8002 154.874 46.6034 154.874 50.7727C154.874 55.1111 154.029 59.027 152.338 62.5202C150.704 65.9571 148.422 68.7179 145.493 70.8026C142.619 72.831 139.295 73.8451 135.52 73.8451ZM131.717 64.2105C134.027 64.2105 136.027 63.5907 137.717 62.3512C139.464 61.0553 140.816 59.3932 141.774 57.3649C142.788 55.2802 143.295 53.0828 143.295 50.7727C143.295 48.2937 142.76 46.0681 141.689 44.0961C140.619 42.0678 139.154 40.4902 137.295 39.3633C135.492 38.1801 133.407 37.5885 131.041 37.5885C128.9 37.5885 126.759 38.2928 124.618 39.7014C122.477 41.1099 121.04 42.8847 120.307 45.0258V55.421C121.322 57.9001 122.871 59.9848 124.956 61.6751C127.04 63.3654 129.294 64.2105 131.717 64.2105ZM183.084 73.8451C178.295 73.8451 174.153 72.8028 170.66 70.7181C167.223 68.6334 164.547 65.8726 162.631 62.4357C160.716 58.9425 159.758 55.1675 159.758 51.1108C159.758 46.9414 160.687 43.1101 162.547 39.6169C164.462 36.0673 167.167 33.2501 170.66 31.1654C174.153 29.0244 178.323 27.9539 183.168 27.9539C188.014 27.9539 192.155 29.0244 195.592 31.1654C199.029 33.2501 201.649 36.0391 203.452 39.5323C205.311 42.9693 206.241 46.6879 206.241 50.6882C206.241 52.1531 206.156 53.4209 205.987 54.4914H171.759C172.04 57.9283 173.308 60.6327 175.562 62.6047C177.872 64.5767 180.52 65.5627 183.506 65.5627C185.76 65.5627 187.873 65.0275 189.845 63.957C191.873 62.8301 193.254 61.3652 193.986 59.5622L203.705 62.2667C202.071 65.6473 199.451 68.4362 195.845 70.6336C192.239 72.7746 187.985 73.8451 183.084 73.8451ZM171.505 47.3077H194.662C194.324 43.9834 193.056 41.3071 190.859 39.2788C188.718 37.1941 186.098 36.1518 182.999 36.1518C179.957 36.1518 177.337 37.1941 175.139 39.2788C172.998 41.3071 171.787 43.9834 171.505 47.3077ZM239.508 38.5182C236.071 38.5182 233.001 39.1943 230.296 40.5465C227.592 41.8424 225.648 43.7299 224.465 46.209V73H213.14V28.7145H223.535V38.1801C225.056 35.1376 227.028 32.743 229.451 30.9964C231.93 29.2498 234.522 28.2919 237.226 28.1229C238.409 28.1229 239.17 28.1511 239.508 28.2074V38.5182Z" fill="white"/>
</svg>
