<svg width="287" height="287" viewBox="0 0 287 287" fill="none" xmlns="http://www.w3.org/2000/svg">
	<g clip-path="url(#clip0)">
		<path d="M144.2 10.9C141.9 10.3 140.3 9.49999 139.3 8.49999C138.3 7.59999 137.8 6.49999 137.8 5.09999C137.8 3.49999 138.4 2.29999 139.6 1.29999C140.9 0.299991 142.5 -0.300007 144.5 -0.300007C145.746 -0.31734 146.979 -0.0433962 148.1 0.499992C149.1 0.999992 150 1.79999 150.5 2.69999C151.1 3.59999 151.5 4.59999 151.5 5.69999H148.8C148.8 4.49999 148.4 3.59999 147.7 2.89999C146.9 2.19999 145.9 1.89999 144.5 1.89999C143.2 1.89999 142.2 2.09999 141.5 2.69999C140.8 3.29999 140.5 3.99999 140.5 4.99999C140.5 5.79999 140.8 6.49999 141.5 6.99999C142.1 7.59999 143.3 8.09999 144.9 8.59999C146.5 9.09999 147.9 9.59999 148.7 10.1C149.7 10.7 150.3 11.3 150.7 12.1C151.2 12.8 151.5 13.7 151.5 14.7C151.5 16.3 150.8 17.5 149.6 18.5C148.135 19.5096 146.376 20.0022 144.6 19.9C143.3 19.9 142 19.7 140.8 19.2C139.7 18.6 138.8 17.9 138.1 17C137.5 16.1 137.1 15.1 137.1 14H139.8C139.8 15.1 140.2 16 141.1 16.8C142 17.5 143.1 17.8 144.6 17.8C146 17.8 147 17.5 147.8 17C148.5 16.4 148.8 15.7 148.8 14.7C148.8 13.7 148.5 13 147.8 12.5C147.2 11.9 145.9 11.5 144.2 10.9V10.9ZM167.4 3.59999L161.1 2.89999L159.1 20.3L156.5 20L158.5 2.59999L152.3 1.89999L152.6 -0.200009L167.6 1.49999L167.4 3.59999V3.59999ZM177.2 18.6L169.2 16.7L166.2 21.3L163.6 20.7L175.4 3.29999L177.7 3.79999L180.4 24.6L177.8 24L177.2 18.6V18.6ZM170.4 14.8L176.9 16.4L175.9 6.59999L170.4 14.8V14.8ZM190.3 20L186 18.4L183.2 25.8L180.8 24.9L187.5 6.49999L193.7 8.69999C195.7 9.49999 197.2 10.5 197.9 11.9C198.7 13.2 198.8 14.8 198.1 16.6C197.7 17.8 197.1 18.6 196.1 19.3C195.1 19.9 194.1 20.3 192.8 20.3L194.3 29.7V29.8L191.6 28.8L190.3 19.9V20ZM186.7 16.4L190.4 17.7C191.7 18.2 192.7 18.2 193.7 17.8C194.7 17.5 195.3 16.8 195.7 15.8C196.1 14.6 196.1 13.6 195.6 12.8C195.1 11.8 194.3 11.2 193 10.8L189.3 9.39999L186.7 16.4V16.4Z" fill="#AAADF0"/>
		<path d="M202.9 24.6002C201.2 23.0002 200.1 21.6002 199.6 20.3002C199.1 19.0002 199.2 17.8002 199.8 16.5002C200.127 15.8334 200.604 15.2515 201.194 14.8003C201.784 14.3491 202.471 14.041 203.2 13.9002C204.7 13.6002 206.4 13.9002 208.2 14.7002C209.344 15.2582 210.338 16.081 211.1 17.1002C211.8 18.0002 212.1 19.1002 212.3 20.1002C212.4 21.1002 212.3 22.1002 211.7 23.1002L209.4 22.0002C209.9 21.0002 210 20.0002 209.6 19.0002C209.3 18.0002 208.5 17.3002 207.2 16.6002C206.283 16.1057 205.228 15.9298 204.2 16.1002C203.2 16.2002 202.6 16.8002 202.2 17.7002C201.8 18.4002 201.8 19.1002 202.2 19.9002C202.5 20.7002 203.3 21.7002 204.6 22.9002C205.8 23.9002 206.7 25.0002 207.3 25.9002C207.9 26.9002 208.3 27.7002 208.3 28.6002C208.3 29.4002 208.2 30.3002 207.7 31.2002C207.386 31.8767 206.913 32.4668 206.321 32.9198C205.728 33.3727 205.035 33.6749 204.3 33.8002C202.569 34.0212 200.813 33.67 199.3 32.8002C198.117 32.2588 197.061 31.4753 196.2 30.5002C195.4 29.5002 194.9 28.5002 194.7 27.3002C194.6 26.3002 194.7 25.2002 195.3 24.2002L197.6 25.3002C197.1 26.4002 197 27.4002 197.5 28.5002C198 29.5002 198.9 30.3002 200.2 31.0002C201.4 31.6002 202.5 31.8002 203.4 31.6002C204.3 31.4002 204.9 30.9002 205.4 30.1002C205.8 29.2002 205.8 28.4002 205.4 27.6002C205.1 26.8002 204.2 25.8002 202.9 24.6002V24.6002ZM228.7 41.4002C227.4 39.5002 226.7 37.9002 226.5 36.5002C226.3 35.2002 226.7 34.0002 227.5 32.9002C228.5 31.7002 229.8 31.1002 231.5 31.2002C233 31.2002 234.5 31.8002 236.1 33.1002C237.095 33.9021 237.884 34.9309 238.4 36.1002C238.89 37.081 239.075 38.1857 238.932 39.2726C238.79 40.3595 238.326 41.379 237.6 42.2002L235.6 40.4002C236.4 39.5002 236.6 38.6002 236.6 37.6002C236.4 36.6002 235.8 35.6002 234.7 34.7002C233.7 33.9002 232.8 33.5002 231.9 33.5002C230.9 33.5002 230.2 33.8002 229.6 34.5002C229.1 35.2002 228.9 35.9002 229 36.8002C229.2 37.6002 229.8 38.8002 230.7 40.2002C231.7 41.6002 232.3 42.8002 232.7 43.8002C233 44.8002 233.1 45.8002 233 46.6002C232.9 47.4002 232.5 48.2002 231.9 49.0002C231.425 49.5913 230.811 50.0559 230.113 50.3525C229.415 50.649 228.655 50.7685 227.9 50.7002C226.157 50.5651 224.506 49.8626 223.2 48.7002C222.2 47.7002 221.4 46.7002 220.8 45.7002C220.239 44.6236 219.997 43.4097 220.1 42.2002C220.2 41.2002 220.6 40.2002 221.3 39.2002L223.3 41.0002C222.6 41.9002 222.3 42.9002 222.5 44.0002C222.8 45.0002 223.5 46.0002 224.5 47.0002C225.6 47.9002 226.6 48.4002 227.5 48.4002C228.5 48.4002 229.2 48.1002 229.8 47.4002C230.5 46.6002 230.7 45.8002 230.5 45.0002C230.3 44.2002 229.7 43.0002 228.7 41.4002ZM251.6 51.6002L247.3 47.0002L234.5 59.0002L232.8 57.2002L245.5 45.2002L241.2 40.6002L242.8 39.1002L253.2 50.1002L251.6 51.6002V51.6002ZM249.5 69.4002L244.5 62.8002L239.4 64.3002L237.8 62.2002L258 56.5002L259.4 58.3002L248.1 76.1002L246.5 73.9002L249.5 69.4002V69.4002ZM246.8 62.1002L250.8 67.5002L256.2 59.3002L246.8 62.1002ZM258.7 78.8002L256.4 74.8002L249.5 78.8002L248.2 76.5002L265.2 66.7002L268.5 72.3002C269.6 74.3002 270 76.0002 269.7 77.5002C269.5 79.1002 268.5 80.3002 266.8 81.3002C265.8 81.9002 264.7 82.1002 263.6 82.0002C262.416 81.8672 261.301 81.3792 260.4 80.6002L255.4 88.8002L254 86.5002L258.7 78.8002V78.8002ZM258.2 73.8002L260.2 77.2002C260.717 78.1697 261.57 78.9167 262.6 79.3002C263.6 79.7002 264.6 79.6002 265.6 79.0002C266.6 78.4002 267.2 77.6002 267.4 76.7002C267.6 75.7002 267.4 74.7002 266.7 73.5002L264.7 70.0002L258.2 73.7002V73.8002Z" fill="#AAADF0"/>
		<path d="M265.4 90.3998C265.1 88.0998 265.1 86.3998 265.6 84.9998C265.814 84.3893 266.157 83.8321 266.605 83.3662C267.054 82.9002 267.598 82.5365 268.2 82.2998C269.6 81.6998 271 81.6998 272.4 82.4998C273.9 83.1998 275 84.4998 275.7 86.2998C276.243 87.4211 276.517 88.6538 276.5 89.8998C276.4 91.0998 276.1 92.0998 275.5 92.9998C274.8 93.9998 274 94.5998 273 94.9998L272 92.5998C273 92.1998 273.8 91.3998 274.1 90.4998C274.4 89.4998 274.3 88.3998 273.8 87.0998C273.3 85.9998 272.6 85.0998 271.8 84.6998C271 84.2998 270.2 84.2998 269.2 84.6998C268.5 84.9998 268 85.5998 267.8 86.3998C267.5 87.1998 267.5 88.4998 267.8 90.1998C268 91.8998 268 93.1998 267.8 94.2998C267.8 95.2998 267.4 96.2998 266.9 96.9998C266.4 97.6998 265.7 98.1998 264.8 98.5998C263.3 99.1998 261.9 99.1997 260.5 98.3997C258.986 97.4698 257.825 96.0625 257.2 94.3998C256.669 93.2035 256.396 91.9086 256.4 90.5998C256.4 89.2998 256.8 88.1998 257.4 87.2998C257.9 86.2998 258.7 85.6998 259.8 85.2998L260.8 87.5998C259.8 88.0998 259 88.7998 258.8 89.8998C258.5 90.9998 258.6 92.1998 259.2 93.5998C259.581 94.6262 260.282 95.5027 261.2 96.0998C262 96.5998 262.9 96.5998 263.7 96.1998C264.7 95.7998 265.2 95.1998 265.4 94.3998C265.6 93.5998 265.6 92.2998 265.4 90.3998V90.3998ZM274.3 119.9C274.5 117.6 275 115.9 275.7 114.7C276.057 114.155 276.528 113.693 277.08 113.348C277.633 113.003 278.254 112.782 278.9 112.7C280.4 112.4 281.8 112.7 282.9 113.7C284.2 114.8 284.9 116.3 285.3 118.3C285.556 119.524 285.522 120.791 285.2 122C284.8 123.1 284.2 124 283.5 124.8C282.7 125.5 281.7 126 280.6 126.1L280.2 123.6C281.4 123.4 282.2 122.8 282.8 122C283.3 121.1 283.4 120 283.2 118.6C283.067 117.534 282.573 116.546 281.8 115.8C281.2 115.2 280.3 115 279.4 115.2C278.6 115.3 278 115.8 277.5 116.5C277.1 117.3 276.8 118.5 276.6 120.2C276.5 121.9 276.2 123.2 275.8 124.2C275.4 125.2 274.9 126.1 274.3 126.6C273.585 127.191 272.719 127.572 271.8 127.7C270.2 128 268.8 127.7 267.8 126.6C266.491 125.35 265.645 123.693 265.4 121.9C265.2 120.6 265.2 119.3 265.5 118.1C265.8 116.8 266.4 115.8 267.2 115.1C267.9 114.2 268.9 113.7 270 113.5L270.5 116.1C269.3 116.3 268.5 116.9 267.9 117.9C267.4 118.9 267.3 120.1 267.5 121.5C267.8 122.9 268.2 123.9 268.9 124.5C269.6 125.1 270.4 125.3 271.3 125.2C272.3 125 273 124.5 273.3 123.8C273.8 123 274.1 121.8 274.3 119.9V119.9ZM285.3 142.4L284.9 136.1L267.4 137.1L267.3 134.6L284.7 133.6L284.4 127.3L286.5 127.1L287.4 142.3L285.3 142.4V142.4ZM272.2 154.7L272.7 146.4L267.7 144.4L267.8 141.6L287 150.3L286.9 152.5L266.9 158.9V156.3L272.2 154.7V154.7ZM274.8 147.4L274.4 154L283.8 151.2L274.8 147.4V147.4ZM273.2 167.8L274 163.2L266.1 161.9L266.6 159.3L285.9 162.7L284.9 169.1C284.675 170.95 283.787 172.655 282.4 173.9C281.2 174.9 279.7 175.2 277.8 174.9C276.664 174.738 275.611 174.211 274.8 173.4C274.003 172.539 273.481 171.459 273.3 170.3L264.3 173.3H264.1L264.6 170.6L273.2 167.8V167.8ZM276 163.6L275.4 167.6C275.1 168.8 275.3 169.9 275.8 170.7C276.3 171.6 277.1 172.1 278.2 172.3C279.4 172.5 280.4 172.3 281.2 171.7C281.9 171.1 282.4 170.2 282.7 168.8L283.4 164.9L276 163.6V163.6Z" fill="#AAADF0"/>
		<path d="M270.7 181C272 179 273.2 177.7 274.4 177C275.6 176.3 276.8 176.1 278.1 176.5C279.6 177 280.7 177.9 281.3 179.4C281.9 180.9 281.9 182.6 281.3 184.4C281 185.618 280.417 186.748 279.6 187.7C278.8 188.6 277.8 189.1 276.8 189.4C275.8 189.7 274.7 189.7 273.7 189.4L274.4 186.9C275.5 187.2 276.5 187.2 277.4 186.6C278.3 186.1 278.9 185.2 279.4 183.8C279.7 182.6 279.7 181.6 279.4 180.8C279 179.8 278.4 179.3 277.4 179C276.7 178.8 275.9 179 275.2 179.4C274.5 179.9 273.6 180.9 272.7 182.4C271.8 183.8 271 184.8 270.2 185.6C269.4 186.3 268.6 186.8 267.7 187C266.808 187.215 265.874 187.18 265 186.9C264.277 186.691 263.617 186.309 263.076 185.786C262.536 185.263 262.132 184.615 261.9 183.9C261.343 182.245 261.343 180.454 261.9 178.8C262.4 177.5 262.9 176.4 263.8 175.4C264.6 174.4 265.6 173.8 266.6 173.4C267.6 173.1 268.7 173.1 269.8 173.4L269.1 175.9C268.589 175.714 268.041 175.653 267.501 175.722C266.962 175.792 266.447 175.99 266 176.3C265 177 264.4 178 264 179.4C263.594 180.457 263.559 181.62 263.9 182.7C264.2 183.5 264.9 184.1 265.8 184.4C266.7 184.6 267.5 184.5 268.2 184C268.9 183.5 269.7 182.5 270.7 181V181ZM258.5 209.2C260.2 207.6 261.7 206.6 263 206.2C264.3 205.8 265.6 205.9 266.8 206.6C268.1 207.4 268.9 208.6 269.2 210.1C269.4 211.7 269.1 213.4 268.1 215.1C267.488 216.182 266.632 217.106 265.6 217.8C264.6 218.5 263.6 218.8 262.5 218.8C261.4 218.9 260.4 218.7 259.5 218.1L260.7 215.9C261.7 216.5 262.7 216.6 263.7 216.3C264.7 216 265.5 215.3 266.2 214C266.9 213 267.2 211.9 267 211C266.9 210.1 266.4 209.4 265.5 209C264.8 208.5 264 208.5 263.2 208.8C262.4 209.1 261.4 209.8 260.2 211C258.9 212.2 257.9 213 256.9 213.6C255.9 214.1 255.1 214.4 254.2 214.4C253.285 214.409 252.386 214.166 251.6 213.7C250.2 212.9 249.4 211.7 249.2 210.1C249.068 208.335 249.525 206.577 250.5 205.1C251.123 203.97 251.974 202.983 253 202.2C254 201.5 255.2 201 256.3 200.9C257.3 200.9 258.4 201.1 259.3 201.7L258.1 203.9C257.1 203.3 256.1 203.2 255 203.6C254 204.1 253 204.9 252.3 206.2C251.701 207.118 251.419 208.207 251.5 209.3C251.5 210.3 252.1 210.9 252.9 211.4C253.7 211.9 254.6 212 255.3 211.6C256.1 211.3 257.3 210.6 258.5 209.2V209.2ZM252.5 233.6L256.2 228.5L242.2 218L243.7 216L257.7 226.4L261.5 221.4L263.3 222.6L254.2 234.8L252.5 233.6V233.6ZM234.6 234.5L240.2 228.5L237.8 223.7L239.6 221.7L248.7 240.7L247.2 242.3L227.7 234.3L229.5 232.3L234.5 234.5H234.6ZM241.2 230.5L236.6 235.5L245.6 239.3L241.2 230.6V230.5ZM226.8 245.2L230.4 242.2L225.3 236.2L227.3 234.5L239.9 249.5L234.9 253.7C233.569 254.961 231.831 255.706 230 255.8C228.5 255.8 227 255.1 225.8 253.6C225 252.6 224.6 251.6 224.5 250.5C224.5 249.4 224.7 248.3 225.3 247.2L216.4 243.7H216.3L218.4 241.8L226.8 245.2V245.2ZM231.8 243.8L228.7 246.4C227.7 247.2 227.1 248.1 227 249.1C226.8 250.1 227.1 251.1 227.8 251.9C228.6 252.9 229.5 253.3 230.5 253.4C231.5 253.4 232.5 253 233.5 252.1L236.5 249.5L231.7 243.8H231.8Z" fill="#AAADF0"/>
		<path d="M216.5 253.7C218.7 253 220.5 252.8 221.9 253C222.593 253.104 223.253 253.362 223.833 253.754C224.413 254.147 224.898 254.663 225.253 255.267C225.608 255.871 225.823 256.547 225.883 257.244C225.943 257.942 225.846 258.644 225.6 259.3C225.044 260.972 223.909 262.39 222.4 263.3C221.343 263.968 220.144 264.379 218.9 264.5C217.817 264.661 216.71 264.523 215.7 264.1C214.7 263.6 213.9 263 213.3 262.1L215.5 260.6C216.1 261.6 217 262.2 218 262.3C219 262.5 220 262.2 221.2 261.4C222.2 260.7 223 259.9 223.2 259.1C223.5 258.2 223.4 257.4 222.9 256.5C222.4 255.9 221.8 255.5 220.9 255.4C220 255.4 218.8 255.5 217.2 256C215.5 256.6 214.2 256.8 213.2 256.9C212 256.9 211.2 256.8 210.3 256.4C209.481 255.994 208.79 255.371 208.3 254.6C207.5 253.2 207.3 251.8 207.8 250.3C208.47 248.659 209.666 247.287 211.2 246.4C212.259 245.699 213.45 245.223 214.7 245C216 244.8 217.2 244.9 218.2 245.3C219.2 245.7 220 246.3 220.7 247.3L218.5 248.8C217.8 247.8 216.9 247.2 215.8 247.1C214.8 247.1 213.6 247.4 212.3 248.1C211.34 248.675 210.601 249.555 210.2 250.6C209.9 251.5 210 252.3 210.5 253.1C211 253.9 211.7 254.4 212.5 254.4C213.5 254.5 214.7 254.3 216.5 253.7V253.7ZM189 267.5C191.3 267.4 193 267.5 194.3 268.1C195.6 268.6 196.5 269.5 196.9 270.8C197.5 272.3 197.3 273.7 196.5 275.1C195.555 276.534 194.141 277.594 192.5 278.1C191.323 278.556 190.056 278.727 188.8 278.6C187.708 278.487 186.669 278.071 185.8 277.4C184.937 276.769 184.277 275.9 183.9 274.9L186.4 274C186.8 275.1 187.4 275.9 188.4 276.3C189.4 276.6 190.4 276.6 191.8 276.1C193 275.7 193.8 275.1 194.3 274.3C194.8 273.5 194.8 272.7 194.5 271.8C194.2 271 193.7 270.5 192.8 270.2C192 269.9 190.8 269.8 189.1 269.9C187.4 270.1 186 270 184.9 269.9C183.9 269.6 183 269.3 182.3 268.7C181.61 268.116 181.092 267.355 180.8 266.5C180.3 265 180.4 263.5 181.2 262.2C182.23 260.763 183.707 259.708 185.4 259.2C186.7 258.7 188 258.6 189.3 258.6C190.5 258.7 191.6 259.1 192.5 259.7C193.5 260.3 194.1 261.2 194.5 262.3L192 263.2C191.835 262.685 191.549 262.216 191.167 261.833C190.784 261.451 190.315 261.165 189.8 261C188.8 260.6 187.5 260.7 186.2 261.2C185.111 261.509 184.159 262.179 183.5 263.1C183 263.8 182.9 264.7 183.2 265.6C183.6 266.5 184.2 267.1 185 267.3C185.8 267.6 187.1 267.7 189 267.5V267.5ZM168.6 282.3L174.8 280.8L170.8 263.8L173.3 263.2L177.3 280.2L183.4 278.8L183.9 280.8L169.1 284.4L168.6 282.3V282.3ZM154.3 271.5L162.5 270.5L163.7 265.3L166.4 265L161.2 285.4L159 285.6L149.2 267L151.8 266.7L154.3 271.5V271.5ZM162 272.8L155.3 273.6L159.7 282.3L162 272.8V272.8ZM141.6 275.2H146.3V267.2H148.9V287H142.4C140.1 287 138.4 286.5 137.3 285.5C136.1 284.5 135.5 283 135.5 281.1C135.5 279.9 135.8 278.8 136.5 277.9C137.1 276.9 138 276.3 139.2 275.9L134.6 267.5V267.3H137.4L141.6 275.3V275.2ZM146.3 277.3H142.3C141 277.3 140 277.6 139.3 278.3C138.4 279 138.1 279.9 138.1 281C138.1 282.2 138.4 283.1 139.1 283.8C139.9 284.4 140.9 284.8 142.3 284.8H146.3V277.3Z" fill="#AAADF0"/>
		<path d="M128.1 274.7C130.3 275.6 131.8 276.6 132.7 277.6C133.6 278.6 134 279.8 133.8 281.2C133.6 282.7 132.8 283.9 131.5 284.8C130.2 285.7 128.5 286 126.5 285.8C125.256 285.679 124.057 285.268 123 284.6C122 283.9 121.3 283.1 120.9 282.1C120.4 281.1 120.2 280.1 120.3 279.1L122.9 279.3C122.8 280.5 123.1 281.5 123.7 282.3C124.4 283 125.4 283.5 126.7 283.6C128.1 283.8 129.1 283.6 129.9 283.1C130.6 282.7 131.1 281.9 131.2 280.9C131.2 280.1 131 279.4 130.4 278.8C129.8 278.2 128.7 277.5 127.2 276.9C125.6 276.3 124.4 275.6 123.5 274.9C122.713 274.394 122.088 273.672 121.698 272.822C121.308 271.971 121.17 271.027 121.3 270.1C121.5 268.5 122.3 267.3 123.6 266.5C125.194 265.655 127.026 265.373 128.8 265.7C130.1 265.8 131.3 266.2 132.4 266.9C133.5 267.5 134.4 268.3 134.9 269.3C135.4 270.3 135.6 271.3 135.5 272.5L132.9 272.2C133 271 132.7 270 131.9 269.2C131.1 268.4 129.9 268 128.5 267.8C127.2 267.6 126.1 267.8 125.3 268.3C124.5 268.7 124.1 269.4 123.9 270.3C123.9 271.3 124.1 272.1 124.7 272.7C125.3 273.3 126.4 274 128.1 274.7V274.7ZM98.1 267.6C100 269 101.2 270.3 101.9 271.5C102.5 272.7 102.6 274 102.1 275.3C101.87 276 101.479 276.637 100.958 277.158C100.437 277.679 99.8002 278.07 99.1 278.3C97.5 278.8 95.9 278.7 94 278C92.825 277.584 91.7634 276.899 90.9 276C90.117 275.234 89.5629 274.264 89.3 273.2C89.1 272.2 89.1 271.1 89.5 270.1L92 270.9C91.6 272.1 91.6 273.1 92 273.9C92.5 274.9 93.4 275.5 94.7 276C95.9 276.4 97 276.5 97.8 276.2C98.7 276 99.3 275.3 99.6 274.4C99.9 273.7 99.8 272.9 99.4 272.1C98.9 271.4 98 270.5 96.6 269.5C95.3 268.5 94.2 267.6 93.6 266.8C92.9527 266.12 92.5144 265.269 92.3371 264.347C92.1598 263.425 92.2511 262.472 92.6 261.6C92.8225 260.896 93.2113 260.256 93.7335 259.734C94.2556 259.212 94.8959 258.823 95.6 258.6C97.3293 258.149 99.16 258.29 100.8 259C102.1 259.5 103.2 260.1 104.1 261C105 261.9 105.6 262.9 105.9 264C106.2 265 106.1 266 105.7 267.1L103.3 266.2C103.7 265.2 103.6 264.1 103 263.2C102.4 262.2 101.4 261.5 100 261C98.9935 260.558 97.8711 260.453 96.8 260.7C95.9 261 95.3 261.6 95 262.5C94.7 263.4 94.7 264.2 95.2 264.9C95.6 265.6 96.6 266.5 98.2 267.6H98.1ZM73 266L78.7 268.7L86.6 253.1L88.9 254.2L81 270L86.6 272.8L85.6 274.8L72.1 267.9L73.1 266H73ZM69 248.5L75.9 253L80.2 249.7L82.5 251.2L65.4 263.5L63.4 262.3L68 241.7L70.2 243.2L69 248.5ZM74 254.4L68.4 250.7L66.2 260.2L74 254.4ZM57.1 242.8L60.6 245.8L65.8 239.6L67.8 241.3L55.1 256.3L50.1 252.2C48.6085 251.137 47.5448 249.577 47.1 247.8C46.9 246.2 47.4 244.8 48.6 243.2C49.4 242.3 50.4 241.7 51.5 241.4C52.5 241.2 53.7 241.2 54.9 241.6L56.7 232.3L56.8 232.2L59 233.9L57.1 242.8V242.8ZM59.3 247.4L56.3 244.8C55.3 244 54.3 243.6 53.3 243.6C52.3 243.6 51.3 244.1 50.6 244.9C49.8 245.9 49.6 246.8 49.6 247.8C49.8 248.8 50.4 249.6 51.4 250.5L54.4 253.1L59.3 247.4Z" fill="#AAADF0"/>
		<path d="M46.8999 234.1C47.8999 236.1 48.4999 237.9 48.4999 239.3C48.4999 240.6 47.9999 241.8 46.9999 242.7C46.4756 243.206 45.8429 243.586 45.1499 243.811C44.4568 244.036 43.7216 244.101 42.9999 244C41.3999 243.8 39.8999 243 38.4999 241.6C37.6238 240.697 36.9729 239.601 36.5999 238.4C36.2532 237.332 36.2185 236.187 36.4999 235.1C36.7999 234.1 37.2999 233.1 38.0999 232.4L39.8999 234.4C38.9999 235.1 38.5999 236.1 38.5999 237.1C38.5999 238.1 39.0999 239.1 40.0999 240.1C40.9999 241.1 41.8999 241.6 42.7999 241.7C43.6999 241.8 44.4999 241.6 45.1999 240.9C45.7999 240.3 45.9999 239.6 45.9999 238.7C45.9999 237.9 45.4999 236.7 44.6999 235.2C43.8999 233.7 43.3999 232.4 43.1999 231.3C42.8999 230.3 42.8999 229.3 43.1999 228.5C43.3999 227.7 43.8999 226.9 44.5999 226.2C45.7999 225.2 47.0999 224.7 48.5999 225C50.3475 225.342 51.9311 226.256 53.0999 227.6C54.0999 228.6 54.7999 229.6 55.0999 230.9C55.5999 232.1 55.6999 233.2 55.4999 234.3C55.2999 235.4 54.6999 236.3 53.8999 237.1L52.0999 235.2C52.9999 234.4 53.3999 233.4 53.2999 232.3C53.1035 231.074 52.5055 229.949 51.5999 229.1C50.5999 228.1 49.6999 227.5 48.7999 227.4C47.8999 227.2 47.0999 227.4 46.3999 228.1C45.6999 228.8 45.3999 229.5 45.3999 230.4C45.5999 231.2 45.9999 232.4 46.8999 234.1V234.1ZM28.3999 209.5C28.9999 211.7 29.0999 213.5 28.7999 214.9C28.4999 216.2 27.7999 217.2 26.5999 217.9C25.1999 218.7 23.7999 218.8 22.2999 218.2C20.7078 217.533 19.3989 216.33 18.5999 214.8C17.9319 213.743 17.5209 212.544 17.3999 211.3C17.3999 210.1 17.5999 209 18.0999 208.1C18.5999 207.1 19.2999 206.3 20.2999 205.8L21.5999 208.1C20.5999 208.6 19.8999 209.4 19.6999 210.4C19.4999 211.4 19.6999 212.5 20.3999 213.7C20.8874 214.678 21.7007 215.456 22.6999 215.9C23.4999 216.2 24.3999 216.1 25.1999 215.6C25.8999 215.2 26.2999 214.6 26.4999 213.7C26.5999 212.9 26.4999 211.7 26.0999 210C25.5999 208.3 25.3999 207 25.4999 205.9C25.4999 204.9 25.6999 203.9 26.0999 203.2C26.4999 202.4 27.0999 201.8 28.0999 201.2C29.3999 200.5 30.7999 200.4 32.2999 201C33.8972 201.758 35.1983 203.024 35.9999 204.6C36.6999 205.7 37.0999 207 37.1999 208.2C37.3999 209.5 37.1999 210.6 36.6999 211.6C36.2999 212.6 35.5999 213.4 34.5999 214L33.2999 211.7C34.2999 211.1 34.8999 210.3 34.9999 209.2C35.1999 208.1 34.9999 206.9 34.1999 205.6C33.4999 204.4 32.6999 203.6 31.8999 203.3C30.9999 203 30.1999 203 29.2999 203.5C28.4999 204 27.9999 204.7 27.8999 205.5C27.7999 206.4 27.8999 207.7 28.3999 209.5V209.5ZM10.2999 192L12.7999 197.9L28.8999 190.9L29.8999 193.3L13.8999 200.3L16.3999 206L14.3999 206.9L8.3999 192.9L10.3999 192.1L10.2999 192ZM18.3999 176.1L20.7999 184L26.1999 184.3L26.9999 186.9L5.9999 185.3L5.2999 183.1L21.9999 170.3L22.7999 172.8L18.3999 176.1V176.1ZM18.4999 183.9L16.4999 177.5L8.6999 183.3L18.4999 183.9ZM12.9999 164.1L13.7999 168.7L21.5999 167.3L22.0999 169.8L2.6999 173.2L1.5999 166.8C1.1999 164.7 1.3999 162.8 2.1999 161.5C2.9999 160.2 4.2999 159.3 6.1999 159C7.3999 158.8 8.4999 159 9.4999 159.4C10.4999 159.9 11.3999 160.7 11.9999 161.8L19.4999 155.8H19.5999L20.0999 158.5L13.0999 164.1H12.9999ZM11.6999 169.1L10.9999 165.1C10.8806 163.979 10.3453 162.945 9.4999 162.2C8.6999 161.6 7.7999 161.4 6.6999 161.6C5.4999 161.8 4.6999 162.3 4.0999 163.1C3.5999 164 3.4999 165.1 3.6999 166.4L4.3999 170.4L11.6999 169V169.1Z" fill="#AAADF0"/>
		<path d="M10.7001 151C10.2001 153.2 9.50011 154.8 8.70011 155.9C7.80011 156.9 6.70011 157.5 5.30011 157.6C3.80011 157.7 2.50011 157.2 1.30011 156C0.18345 154.651 -0.418905 152.951 -0.399891 151.2C-0.511634 149.977 -0.340552 148.746 0.100109 147.6C0.600109 146.6 1.30011 145.6 2.10011 145C3.10011 144.4 4.10011 144 5.10011 144L5.30011 146.6C4.10011 146.6 3.20011 147.1 2.50011 147.9C1.90011 148.7 1.60011 149.7 1.70011 151.1C1.70011 152.4 2.10011 153.4 2.70011 154.1C3.30011 154.7 4.10011 155.1 5.10011 155C5.90011 155 6.60011 154.6 7.10011 153.9C7.60011 153.2 8.10011 151.9 8.40011 150.3C8.80011 148.7 9.20011 147.3 9.70011 146.4C10.2001 145.4 10.8001 144.7 11.5001 144.2C12.2762 143.698 13.1762 143.421 14.1001 143.4C15.7001 143.4 17.0001 143.9 18.1001 145C19.1807 146.439 19.7444 148.201 19.7001 150C19.8001 151.3 19.7001 152.6 19.2001 153.8C18.7971 154.896 18.1062 155.863 17.2001 156.6C16.4001 157.3 15.4001 157.6 14.2001 157.7L14.1001 155.1C15.2001 155.1 16.1001 154.6 16.8001 153.6C17.4001 152.7 17.8001 151.6 17.6001 150.1C17.6001 148.7 17.2001 147.7 16.6001 147C16.0001 146.3 15.2001 146 14.3001 146C13.3001 146 12.6001 146.4 12.1001 147.2C11.6001 147.9 11.1001 149.2 10.7001 150.9V151ZM12.5001 120.2C11.5001 122.2 10.5001 123.7 9.40011 124.6C8.87851 124.994 8.27731 125.27 7.63832 125.408C6.99934 125.546 6.33793 125.543 5.70011 125.4C4.96937 125.302 4.27182 125.034 3.66381 124.617C3.05581 124.2 2.5544 123.646 2.20011 123C1.40011 121.6 1.20011 119.9 1.60011 118C1.78132 116.738 2.26131 115.538 3.00011 114.5C3.70011 113.5 4.50011 112.9 5.50011 112.5C6.50011 112.1 7.50011 111.9 8.60011 112.1L8.20011 114.7C7.00011 114.5 6.00011 114.7 5.20011 115.3C4.40011 115.9 3.90011 116.9 3.70011 118.3C3.40011 119.6 3.50011 120.6 4.00011 121.4C4.40011 122.2 5.10011 122.7 6.10011 122.9C6.90011 122.9 7.60011 122.8 8.30011 122.2C8.90011 121.6 9.60011 120.6 10.3001 119.1C11.1001 117.5 11.8001 116.3 12.5001 115.5C13.2001 114.7 14.0001 114.2 14.8001 113.9C15.6552 113.553 16.5897 113.449 17.5001 113.6C19.1001 113.9 20.2001 114.8 20.9001 116.1C21.6776 117.717 21.8889 119.548 21.5001 121.3C21.2905 122.585 20.8136 123.811 20.1001 124.9C19.4001 125.9 18.5001 126.7 17.5001 127.2C16.5001 127.7 15.5001 127.8 14.3001 127.6L14.8001 125C15.9001 125.2 16.9001 125 17.8001 124.2C18.6001 123.5 19.1001 122.4 19.4001 120.9C19.655 119.829 19.5496 118.704 19.1001 117.7C18.9124 117.307 18.6324 116.966 18.2842 116.704C17.9359 116.443 17.5297 116.27 17.1001 116.2C16.1001 116 15.3001 116.2 14.7001 116.8C14.1001 117.4 13.3001 118.5 12.5001 120.2ZM9.90011 95.1998L8.10011 101.2L24.9001 106.3L24.1001 108.8L7.30011 103.8L5.50011 109.8L3.50011 109.2L7.80011 94.5998L9.80011 95.1998H9.90011ZM26.4001 88.1998L23.1001 95.7998L27.1001 99.4998L26.1001 101.9L10.9001 87.2998L11.9001 85.1998L32.9001 86.0998L31.9001 88.4998L26.4001 88.1998V88.1998ZM21.4001 94.1998L24.1001 88.0998L14.3001 87.4998L21.4001 94.1998V94.1998ZM30.0001 75.5998L27.7001 79.5998L34.6001 83.5998L33.3001 85.7998L16.3001 75.9998L19.5001 70.2998C20.5001 68.3998 21.9001 67.1998 23.3001 66.6998C24.8001 66.0998 26.3001 66.2998 28.1001 67.2998C29.1001 67.8998 29.9001 68.6998 30.3001 69.7998C30.8001 70.7998 30.9001 71.8998 30.7001 73.1998L40.3001 73.2998L40.4001 73.3998L39.0001 75.7998L30.0001 75.5998ZM25.8001 78.4998L27.8001 74.9998C28.5001 73.9998 28.7001 72.8998 28.5001 71.8998C28.3001 70.8998 27.7001 70.0998 26.8001 69.5998C25.7001 68.9998 24.8001 68.7998 23.8001 69.0998C22.8001 69.3998 22.1001 70.0998 21.4001 71.2998L19.4001 74.7998L25.8001 78.4998V78.4998Z" fill="#AAADF0"/>
		<path d="M36.7998 64.0001C35.4034 65.1767 33.7644 66.0303 31.9998 66.5001C30.5998 66.8001 29.3998 66.5001 28.2998 65.7001C27.6885 65.2711 27.1883 64.7027 26.8404 64.0418C26.4926 63.381 26.3073 62.6468 26.2998 61.9001C26.2998 60.3001 26.7998 58.7001 27.9998 57.1001C28.7335 56.0929 29.6923 55.2711 30.7998 54.7001C31.7998 54.1001 32.7998 53.9001 33.9998 54.0001C34.9998 54.0001 35.9998 54.4001 36.9998 55.0001L35.3998 57.2001C34.3998 56.5001 33.3998 56.2001 32.3998 56.4001C31.3998 56.6001 30.4998 57.3001 29.6998 58.4001C28.8998 59.4001 28.5998 60.4001 28.5998 61.3001C28.5998 62.2001 28.9998 62.9001 29.7998 63.5001C30.4998 64.0001 31.1998 64.1001 32.0998 63.9001C32.8998 63.7001 34.0998 63.1001 35.3998 62.1001C36.6998 61.1001 37.8998 60.3001 38.8998 59.9001C39.8998 59.5001 40.7998 59.3001 41.5998 59.4001C42.5089 59.4985 43.3736 59.8444 44.0998 60.4001C45.3998 61.4001 46.0998 62.6001 46.0998 64.2001C46.0426 65.9542 45.4101 67.6408 44.2998 69.0001C43.4998 70.1001 42.4998 71.0001 41.3998 71.6001C40.2998 72.2001 39.1998 72.6001 38.0998 72.6001C36.9998 72.5001 35.9998 72.1001 35.0998 71.4001L36.5998 69.4001C37.5998 70.1001 38.5998 70.3001 39.5998 70.0001C40.6998 69.7001 41.6998 69.0001 42.5998 67.8001C43.3208 66.9604 43.7428 65.9053 43.7998 64.8001C43.7998 63.8001 43.3998 63.1001 42.5998 62.5001C41.7998 61.9001 40.9998 61.8001 40.1998 62.0001C39.3998 62.2001 38.1998 62.9001 36.7998 64.0001ZM57.9998 41.6001C55.7998 42.6001 53.9998 43.0001 52.6998 42.9001C51.2998 42.9001 50.1998 42.3001 49.2998 41.3001C48.8096 40.7309 48.463 40.0524 48.289 39.3217C48.115 38.5909 48.1187 37.8291 48.2998 37.1001C48.4998 35.6001 49.3998 34.1001 50.9998 32.9001C51.9224 32.0961 53.0171 31.5145 54.1998 31.2001C55.2505 30.876 56.3742 30.8742 57.4259 31.1951C58.4776 31.5159 59.409 32.1447 60.0998 33.0001L58.0998 34.6001C57.3998 33.7001 56.4998 33.3001 55.4998 33.2001C54.4998 33.2001 53.3998 33.6001 52.2998 34.5001C51.2998 35.3001 50.7998 36.2001 50.5998 37.1001C50.3998 38.0001 50.5998 38.8001 51.2998 39.5001C51.7998 40.2001 52.4998 40.5001 53.2998 40.5001C54.2998 40.5001 55.4998 40.1001 56.9998 39.4001C58.5998 38.7001 59.8998 38.3001 60.9998 38.1001C61.9998 37.9001 62.9998 38.0001 63.6998 38.3001C64.5552 38.592 65.3155 39.1104 65.8998 39.8001C66.8998 41.0001 67.2998 42.4001 66.8998 43.9001C66.4639 45.602 65.48 47.1131 64.0998 48.2001C63.0998 49.2001 61.8998 49.7001 60.6998 50.1001C59.3998 50.4001 58.2998 50.5001 57.1998 50.1001C56.1998 49.9001 55.1998 49.3001 54.4998 48.5001L56.4998 46.8001C57.2998 47.7001 58.1998 48.1001 59.2998 48.1001C60.4998 48.1001 61.5998 47.6001 62.6998 46.6001C63.6025 45.9666 64.2705 45.0526 64.5998 44.0001C64.7998 43.0001 64.5998 42.2001 63.9998 41.5001C63.2998 40.8001 62.5998 40.5001 61.6998 40.5001C60.8998 40.5001 59.6998 40.9001 57.8998 41.6001H57.9998ZM71.9998 20.8001L66.6998 24.3001L76.2998 38.9001L74.1998 40.4001L64.4998 25.7001L59.1998 29.2001L58.0998 27.4001L70.7998 19.1001L71.9998 20.8001V20.8001ZM89.0998 26.0001L81.7998 29.7001L82.3998 35.1001L79.9998 36.3001L77.8998 15.4001L79.8998 14.4001L95.4998 28.6001L93.0998 29.8001L89.0998 26.0001V26.0001ZM81.4998 27.5001L87.4998 24.5001L80.2998 17.8001L81.4998 27.5001ZM99.9998 18.7001L95.6998 20.2001L98.3998 27.7001L95.9998 28.6001L89.1998 10.1001L95.2998 7.90007C97.3998 7.10007 99.1998 7.00007 100.7 7.60007C102.1 8.10007 103.2 9.30007 103.9 11.1001C104.3 12.3001 104.3 13.4001 104 14.5001C103.7 15.5001 103 16.5001 102.1 17.3001L109.3 23.6001V23.7001L106.8 24.7001L99.9998 18.7001V18.7001ZM94.9998 18.2001L98.6998 16.9001C99.8998 16.4001 100.7 15.8001 101.2 14.9001C101.7 14.0001 101.8 13.0001 101.4 11.9001C101 10.9001 100.4 10.1001 99.3998 9.70007C98.4998 9.40007 97.3998 9.40007 96.0998 9.90007L92.3998 11.2001L94.9998 18.2001V18.2001Z" fill="#AAADF0"/>
		<path d="M112.6 14.2002C110.3 14.0002 108.6 13.7002 107.4 13.0002C106.776 12.6728 106.235 12.2095 105.814 11.6446C105.394 11.0796 105.106 10.4274 104.972 9.73624C104.837 9.04504 104.86 8.33248 105.038 7.6512C105.216 6.96992 105.545 6.33734 106 5.80019C107 4.50019 108.4 3.7002 110.4 3.2002C111.616 2.91107 112.883 2.91107 114.1 3.2002C115.2 3.4002 116.1 3.9002 117 4.7002C117.7 5.4002 118.2 6.4002 118.5 7.4002L116 8.00019C115.7 6.90019 115.1 6.00019 114.2 5.60019C113.3 5.10019 112.2 5.00019 110.9 5.30019C109.6 5.60019 108.7 6.10019 108.1 6.80019C107.6 7.50019 107.4 8.40019 107.6 9.30019C107.8 10.1002 108.3 10.7002 109.1 11.1002C109.9 11.5002 111.1 11.7002 112.8 11.8002C114.5 11.8002 115.8 12.0002 116.9 12.4002C117.9 12.7002 118.8 13.1002 119.4 13.8002C119.995 14.4479 120.409 15.2413 120.6 16.1002C121 17.7002 120.6 19.1002 119.6 20.3002C118.442 21.5877 116.898 22.4649 115.2 22.8002C113.9 23.2002 112.6 23.2002 111.3 23.0002C110.15 22.788 109.079 22.2698 108.2 21.5002C107.364 20.8006 106.77 19.8561 106.5 18.8002L109.1 18.2002C109.4 19.3002 110 20.2002 111.1 20.6002C112.1 21.1002 113.3 21.1002 114.7 20.8002C115.784 20.5908 116.769 20.0281 117.5 19.2002C118.1 18.5002 118.3 17.7002 118.1 16.8002C117.9 15.8002 117.4 15.2002 116.6 14.8002C115.8 14.5002 114.5 14.2002 112.6 14.2002V14.2002ZM128 2.30019C128 2.30019 128.2 2.20019 128.2 2.30019L130.2 6.7002V6.80019L135.1 6.30019C135.1 6.30019 135.3 6.50019 135.1 6.50019L131.6 9.80019V9.9002L133.5 14.3002C133.5 14.5002 133.5 14.6002 133.3 14.5002L129.2 12.1002H129L125.4 15.3002L125.2 15.2002L126.2 10.5002V10.3002L122 8.00019V7.7002L126.9 7.30019V7.00019L127.9 2.2002L128 2.30019ZM40.4998 44.7002C40.4998 44.5002 40.4998 44.4002 40.6998 44.5002L44.8998 46.9002H44.9998L48.5998 43.6002L48.7998 43.7002L47.7998 48.4002L47.8998 48.6002L52.0998 51.0002C52.1998 51.0002 52.0998 51.2002 52.0998 51.2002L47.2998 51.7002L47.1998 51.8002L46.1998 56.6002C46.1998 56.6002 46.0998 56.7002 45.9998 56.6002L43.9998 52.2002H43.8998L39.0998 52.7002C39.06 52.7135 39.0166 52.7104 38.9791 52.6916C38.9416 52.6729 38.9131 52.64 38.8998 52.6002C38.8865 52.5604 38.8896 52.517 38.9084 52.4795C38.9271 52.442 38.96 52.4135 38.9998 52.4002L42.4998 49.2002V49.0002L40.4998 44.7002V44.7002ZM219.9 25.4002L220.1 25.5002L219.1 30.2002V30.4002L223.3 32.8002V33.0002L218.4 33.5002V33.6002L217.4 38.4002H217.1L215.1 34.0002L215 33.9002L210.2 34.4002C210.173 34.4002 210.148 34.3897 210.129 34.3709C210.11 34.3522 210.1 34.3267 210.1 34.3002C210.1 34.2737 210.11 34.2482 210.129 34.2295C210.148 34.2107 210.173 34.2002 210.2 34.2002L213.7 31.0002V30.8002L211.7 26.4002L212 26.2002L216.1 28.6002H216.3L219.9 25.4002V25.4002ZM5.19981 141.2C5.19981 141.3 4.99981 141.2 4.99981 141.2L5.69981 136.4V136.2L1.2998 134.2V133.9L6.0998 133L6.89981 128.1C6.89981 128.1 7.0998 128 7.0998 128.1L9.39981 132.4L14.1998 131.6C14.2998 131.6 14.3998 131.7 14.2998 131.8L10.9998 135.3V135.4L13.1998 139.7C13.1998 139.7 13.1998 139.9 12.9998 139.9L8.69981 137.7H8.5998L5.19981 141.2V141.2ZM28.0998 228C27.9998 228.1 27.8998 228 27.9998 227.9L30.9998 224.2C31.0998 224.2 31.0998 224.1 30.9998 224L28.4998 220C28.4998 219.9 28.4998 219.7 28.6998 219.8L33.1998 221.6H33.2998L36.3998 217.8H36.5998L36.2998 222.7V222.8L40.8998 224.6V224.8L36.1998 226L36.0998 226.1L35.6998 230.9C35.6998 231.1 35.5998 231.1 35.4998 231L32.8998 227L32.7998 226.9L27.9998 228H28.0998ZM116.3 270C116.4 269.9 116.5 270 116.5 270.1L114 274.3V274.4L117.2 278C117.2 278.1 117.2 278.3 117 278.2L112.3 277.2H112.2L109.7 281.4H109.5L109.1 276.5H109L104.3 275.4C104.1 275.4 104.1 275.2 104.3 275.1L108.7 273.2V273.1L108.3 268.3C108.3 268.2 108.5 268.1 108.6 268.2L111.7 271.8H111.9L116.3 269.9V270ZM198.2 257.9C198.1 257.8 198.2 257.6 198.3 257.7L202.9 259.1H203.1L205.8 255.1C205.8 254.9 206 255 206 255.1L206.2 259.9V260L210.9 261.4V261.7L206.4 263.3H206.3L206.4 268.2C206.4 268.3 206.3 268.4 206.2 268.2L203.2 264.4H203.1L198.6 266C198.4 266 198.3 265.9 198.4 265.8L201.1 261.8V261.7L198.1 257.9H198.2ZM263.7 192C263.7 191.8 263.7 191.7 263.9 191.7L268.2 193.7C268.3 193.8 268.4 193.7 268.4 193.7L271.7 190.2L271.9 190.3L271.3 195.1V195.2L275.8 197.2V197.5L271 198.5L270.4 203.3C270.4 203.5 270.2 203.5 270.1 203.3L267.8 199.2L267.6 199.1L262.9 200C262.873 200.013 262.843 200.016 262.814 200.006C262.786 199.997 262.763 199.977 262.75 199.95C262.737 199.924 262.734 199.893 262.744 199.865C262.753 199.837 262.773 199.813 262.8 199.8L266 196.3V196.1L263.7 191.9V192ZM266.2 102.3V102L271.2 101.7V101.6L272.4 96.9002C272.4 96.8002 272.5 96.8002 272.6 96.9002L274.4 101.3L274.6 101.4L279.4 101.1C279.5 101.1 279.6 101.2 279.4 101.3L275.8 104.3V104.5L277.6 109C277.6 109 277.6 109.2 277.4 109.1L273.4 106.6H273.2L269.5 109.7C269.4 109.7 269.2 109.7 269.3 109.6L270.4 104.9V104.8L266.2 102.3V102.3Z" fill="#AAADF0"/>
	</g>
	<defs>
		<clipPath id="clip0">
			<rect width="287" height="287" fill="white"/>
		</clipPath>
	</defs>
</svg>
