<svg width="30" height="30" viewBox="0 0 30 30" fill="none" xmlns="http://www.w3.org/2000/svg">
<path d="M14.6007 1.22885C14.7264 0.842061 15.2736 0.84206 15.3993 1.22885L18.2735 10.0747C18.3297 10.2476 18.4909 10.3647 18.6727 10.3647H27.9738C28.3805 10.3647 28.5495 10.8852 28.2205 11.1242L20.6958 16.5912C20.5487 16.6981 20.4871 16.8876 20.5433 17.0606L23.4175 25.9064C23.5432 26.2932 23.1005 26.6148 22.7715 26.3758L15.2468 20.9088C15.0996 20.8019 14.9004 20.8019 14.7532 20.9088L7.22854 26.3758C6.89952 26.6148 6.45682 26.2932 6.5825 25.9064L9.45667 17.0606C9.51288 16.8876 9.45131 16.6981 9.30416 16.5912L1.77947 11.1242C1.45045 10.8852 1.61955 10.3647 2.02624 10.3647H11.3273C11.5091 10.3647 11.6703 10.2476 11.7265 10.0747L14.6007 1.22885Z" fill="white"/>
<path d="M14.7512 7.69281C14.8179 7.48758 15.1083 7.48758 15.175 7.69281L16.7 12.3865C16.7298 12.4783 16.8154 12.5404 16.9119 12.5404H21.8471C22.0629 12.5404 22.1526 12.8166 21.9781 12.9434L17.9854 15.8443C17.9073 15.901 17.8746 16.0016 17.9044 16.0933L19.4295 20.787C19.4962 20.9923 19.2613 21.1629 19.0867 21.0361L15.094 18.1352C15.016 18.0785 14.9102 18.0785 14.8322 18.1352L10.8395 21.0361C10.6649 21.1629 10.43 20.9923 10.4967 20.787L12.0217 16.0933C12.0516 16.0016 12.0189 15.901 11.9408 15.8443L7.94812 12.9434C7.77353 12.8166 7.86326 12.5404 8.07905 12.5404H13.0143C13.1108 12.5404 13.1963 12.4783 13.2262 12.3865L14.7512 7.69281Z" fill="#8083E6"/>
</svg>
