<svg width="25" height="24" fill="none" xmlns="http://www.w3.org/2000/svg"><path d="M21 20.8073c-.0419-3.2263-.8775-6.1598-2.3631-8.2838-1.477-2.111-3.4787-3.2735-5.637-3.2735-2.1583 0-4.16 1.1625-5.637 3.2735C5.8787 14.6453 5.0437 17.5747 5 20.7969c.8393.5057 4.3123 2.4531 7.9999 2.4531 3.9876 0 7.2218-1.9359 8.0001-2.4427zM12.904 8.058c2.1561 0 3.904-1.7478 3.904-3.904 0-2.1561-1.7479-3.904-3.904-3.904S9 1.9979 9 4.154c0 2.1562 1.7479 3.904 3.904 3.904z" fill="#fff"/><path d="M25 20.5052c-.0262-2.3045-.5484-4.3998-1.4769-5.917-.9232-1.5078-2.1742-2.3382-3.5232-2.3382-1.3489 0-2.5999.8304-3.5231 2.3382-.9276 1.5156-1.4495 3.608-1.4768 5.9096.5245.3612 2.6952 1.7522 4.9999 1.7522 2.4923 0 4.5137-1.3828 5.0001-1.7448zM20.1706 11.3081c1.3968 0 2.5291-1.1323 2.5291-2.529 0-1.3968-1.1323-2.5291-2.5291-2.5291-1.3967 0-2.529 1.1323-2.529 2.529 0 1.3968 1.1323 2.5291 2.529 2.5291zM10 20.5052c-.0262-2.3045-.5484-4.3998-1.477-5.917C7.6 13.0804 6.349 12.25 5 12.25c-1.349 0-2.6.8304-3.5232 2.3382C.5492 16.1038.0273 18.1962 0 20.4978c.5245.3612 2.6952 1.7522 5 1.7522 2.4922 0 4.5136-1.3828 5-1.7448zM5.0569 11.3081c1.3967 0 2.529-1.1323 2.529-2.529 0-1.3968-1.1323-2.5291-2.529-2.5291-1.3968 0-2.529 1.1323-2.529 2.529 0 1.3968 1.1322 2.5291 2.529 2.5291z" fill="#fff"/></svg>